<svg width="65" height="24" viewBox="0 0 65 24" fill="none" xmlns="http://www.w3.org/2000/svg">
<path d="M12.6471 18H0.17207V0.499999H3.77207V14.775H12.6471V18ZM19.4355 11.75C19.4355 12.75 19.7605 13.5833 20.4105 14.25C21.0605 14.9167 21.8855 15.25 22.8855 15.25C23.8855 15.25 24.7105 14.9167 25.3605 14.25C26.0105 13.5667 26.3355 12.7333 26.3355 11.75C26.3355 10.75 26.0105 9.925 25.3605 9.275C24.7105 8.60833 23.8855 8.275 22.8855 8.275C21.8855 8.275 21.0605 8.60833 20.4105 9.275C19.7605 9.925 19.4355 10.75 19.4355 11.75ZM15.9605 11.75C15.9605 9.9 16.6105 8.35 17.9105 7.1C19.1939 5.83333 20.8522 5.2 22.8855 5.2C24.9189 5.2 26.5772 5.83333 27.8605 7.1C29.1605 8.36667 29.8105 9.91667 29.8105 11.75C29.8105 13.6167 29.1605 15.1833 27.8605 16.45C26.5605 17.7 24.9022 18.325 22.8855 18.325C20.8689 18.325 19.2105 17.7 17.9105 16.45C16.6105 15.1833 15.9605 13.6167 15.9605 11.75ZM43.2605 6.975V5.525H46.7855V16.55C46.7855 18.6833 46.0689 20.3167 44.6355 21.45C43.2022 22.5833 41.5105 23.15 39.5605 23.15C37.5105 23.15 35.8772 22.7917 34.6605 22.075V18.9C35.9772 19.7 37.4855 20.1 39.1855 20.1C39.7022 20.1 40.1855 20.0417 40.6355 19.925C41.0855 19.825 41.5189 19.65 41.9355 19.4C42.3522 19.1667 42.6772 18.8167 42.9105 18.35C43.1439 17.9 43.2605 17.3583 43.2605 16.725V15.95C42.2772 17.1333 40.9022 17.725 39.1355 17.725C37.4355 17.725 36.0439 17.125 34.9605 15.925C33.8772 14.7083 33.3355 13.2167 33.3355 11.45C33.3355 9.7 33.8772 8.21667 34.9605 7C36.0439 5.8 37.4355 5.2 39.1355 5.2C40.9022 5.2 42.2772 5.79167 43.2605 6.975ZM40.1605 14.675C40.8272 14.675 41.4355 14.5167 41.9855 14.2C42.5355 13.8833 42.9605 13.475 43.2605 12.975V9.975C42.9605 9.475 42.5355 9.06667 41.9855 8.75C41.4355 8.43333 40.8272 8.275 40.1605 8.275C39.1772 8.275 38.3772 8.58333 37.7605 9.2C37.1605 9.8 36.8605 10.5583 36.8605 11.475C36.8605 12.3917 37.1689 13.1583 37.7855 13.775C38.4189 14.375 39.2105 14.675 40.1605 14.675ZM54.5029 11.75C54.5029 12.75 54.8279 13.5833 55.4779 14.25C56.1279 14.9167 56.9529 15.25 57.9529 15.25C58.9529 15.25 59.7779 14.9167 60.4279 14.25C61.0779 13.5667 61.4029 12.7333 61.4029 11.75C61.4029 10.75 61.0779 9.925 60.4279 9.275C59.7779 8.60833 58.9529 8.275 57.9529 8.275C56.9529 8.275 56.1279 8.60833 55.4779 9.275C54.8279 9.925 54.5029 10.75 54.5029 11.75ZM51.0279 11.75C51.0279 9.9 51.6779 8.35 52.9779 7.1C54.2613 5.83333 55.9196 5.2 57.9529 5.2C59.9863 5.2 61.6446 5.83333 62.9279 7.1C64.2279 8.36667 64.8779 9.91667 64.8779 11.75C64.8779 13.6167 64.2279 15.1833 62.9279 16.45C61.6279 17.7 59.9696 18.325 57.9529 18.325C55.9363 18.325 54.2779 17.7 52.9779 16.45C51.6779 15.1833 51.0279 13.6167 51.0279 11.75Z" fill="#011935"/>
</svg>
