<svg width="114" height="71" viewBox="0 0 114 71" fill="none" xmlns="http://www.w3.org/2000/svg">
<path d="M0.0273438 33.6304H2.08327C3.21148 32.162 4.22962 28.7489 4.48514 24.6174L4.74065 20.4502H16.3608V33.6304H19.0889V39.0517H15.7554V36.9681H3.33727V39.0517H0.0273438V33.6304ZM5.8099 33.6304H12.8111V23.8078H8.04665L7.90121 26.0303C7.55527 29.8879 6.55679 32.6025 5.8099 33.6304Z" fill="#0C74BB"/>
<path d="M22.0137 36.9721V20.4502H25.5595V31.8326L34.1055 20.4502H37.6513V36.9721H34.1055V25.5897L25.5595 36.9721H22.0137Z" fill="#0C74BB"/>
<path d="M75.5979 35.1463C73.9783 36.579 71.6354 37.2577 69.3986 37.2577C64.1075 37.2577 60.6167 33.8247 60.6167 28.6098C60.6167 23.7996 63.7812 19.9658 69.1628 19.9658C73.3808 19.9658 76.8361 22.994 76.8361 27.5818C76.8361 28.4986 76.7654 29.1416 76.616 29.7131H64.4141C64.7246 32.5229 66.8317 34.1184 69.7249 34.1184C71.7808 34.1184 73.5419 33.3842 74.5443 32.5031L75.5979 35.1463ZM64.2529 27.1056H73.2353C73.1803 24.7363 71.6157 23.1051 68.9977 23.1051C66.2499 23.1051 64.6342 24.7561 64.2529 27.1056Z" fill="#0C74BB"/>
<path d="M79.6505 20.4502H83.1963V36.9721H79.6505V20.4502ZM89.4624 28.3282L96.9196 36.9761H92.1748L85.2483 28.5861L91.648 20.4542H96.1923L89.4624 28.3282Z" fill="#0C74BB"/>
<path d="M98.8459 20.4502H113.756V24.03H108.084V36.9721H104.538V24.03H98.8459V20.4502Z" fill="#0C74BB"/>
<path d="M9.67405 50.3618L17.1312 59.0097H12.3825L5.45605 50.6198L11.8558 42.4878H16.404L9.67405 50.3618Z" fill="#0C74BB"/>
<path d="M3.55776 42.4878H0.0119629V59.0097H3.55776V42.4878Z" fill="#0C74BB"/>
<path d="M54.4802 57.2844C52.8606 58.7171 50.5177 59.3958 48.281 59.3958C42.9898 59.3958 39.499 55.9628 39.499 50.7518C39.499 45.9417 42.6635 42.1079 48.0451 42.1079C52.2631 42.1079 55.7185 45.1361 55.7185 49.7239C55.7185 50.6407 55.6477 51.2837 55.4983 51.8552H43.2964C43.603 54.665 45.714 56.2605 48.6072 56.2605C50.6632 56.2605 52.4243 55.5263 53.4267 54.6452L54.4802 57.2844ZM43.1313 49.2437H52.1137C52.0587 46.8744 50.4941 45.2432 47.8761 45.2432C45.1322 45.2432 43.5165 46.8942 43.1313 49.2437Z" fill="#0C74BB"/>
<path d="M56.8901 55.6958H58.9461C60.0743 54.2274 61.0924 50.8142 61.3479 46.6828L61.6034 42.4878H73.5931V55.6958H76.3212V61.1171H72.9956V59.0335H60.2079V61.1171H56.898V55.6958H56.8901ZM62.6727 55.6958H70.0434V45.8731H64.9094L64.764 48.0956C64.4181 51.9493 63.4196 54.6679 62.6727 55.6958Z" fill="#0C74BB"/>
<path d="M79.6505 59.0097V42.4878H83.1963V53.8702L91.7424 42.4878H95.2882V59.0097H91.7424V47.6273L83.1963 59.0097H79.6505Z" fill="#0C74BB"/>
<path d="M98.8459 42.4761H113.756V46.0559H108.084V58.99H104.538V46.0559H98.8459V42.4761Z" fill="#0C74BB"/>
<path d="M33.5435 50.8461C33.5749 52.3621 33.0599 53.7075 32.0575 54.7434C31.0276 55.803 29.5731 56.4142 28.0675 56.4142C27.2774 56.4142 26.5148 56.2555 25.8072 55.9261C24.5178 55.3228 23.4092 54.414 23.4092 52.2629C23.4092 49.33 23.3385 48.1354 24.6121 46.9289C26.2592 45.3692 28.2759 44.9763 30.5205 45.8693C32.4152 46.6233 33.4295 48.1989 33.5435 50.5524C33.5474 50.6199 33.5474 50.6913 33.5435 50.7588V50.8461ZM36.645 48.6077C36.6293 48.5244 36.6136 48.445 36.5939 48.3616C35.851 45.0239 33.6575 43.3174 31.3539 42.6903C30.4497 42.3966 29.4434 42.2339 28.3466 42.2339C26.5855 42.2339 24.9659 42.7657 23.6648 43.7142V42.4561H20.0679V62.6769H23.7001V58.5653C25.0524 59.2043 26.6052 59.5218 28.1147 59.5218C33.4059 59.5218 36.8966 56.0888 36.8966 50.8739C36.8966 50.088 36.8101 49.33 36.645 48.6077Z" fill="#0C74BB"/>
<path d="M57.2632 28.7098C57.2947 30.2259 56.7797 31.5713 55.7773 32.6032C54.7474 33.6628 53.2929 34.274 51.7873 34.274C50.9971 34.274 50.2345 34.1153 49.5269 33.7859C48.2376 33.1826 47.129 32.2738 47.129 30.1227C47.129 27.1898 47.0582 25.9952 48.3319 24.7887C49.979 23.229 51.9956 22.8361 54.2402 23.7291C56.135 24.4831 57.1492 26.0587 57.2632 28.4122C57.2671 28.4797 57.2632 28.5511 57.2632 28.6186V28.7098ZM60.3609 26.4715C60.3451 26.3881 60.3294 26.3087 60.3137 26.2254C59.5668 22.8877 57.3733 21.1811 55.0736 20.5541C54.1695 20.2604 53.1671 20.0977 52.0664 20.0977C50.3053 20.0977 48.6857 20.6295 47.3845 21.578V20.5818H43.7837V40.5407H47.416V36.433C48.7682 37.072 50.321 37.3895 51.8305 37.3895C57.1217 37.3895 60.6125 33.9565 60.6125 28.7416C60.6125 27.9558 60.526 27.1938 60.3609 26.4715Z" fill="#0C74BB"/>
<path d="M54.4763 7.44141L62.983 0V4.98475L54.4645 12.1364L45.9656 4.96094V0L54.4763 7.44141Z" fill="#34BCED"/>
<path d="M62.983 67.186H45.9656V70.9087H62.983V67.186Z" fill="#0C74BB"/>
</svg>
