<svg width="194" height="31" viewBox="0 0 194 31" fill="none" xmlns="http://www.w3.org/2000/svg">
<path d="M14.7897 0.281738H0V28.7025H14.7897L28.9939 14.4688L14.7897 0.281738ZM13.3617 25.6633H3.05994V3.32094H13.3617L24.712 14.4647L13.3617 25.6633Z" fill="#F7B917"/>
<path d="M20.4486 28.6779H35.2383V0.259277H20.4486L6.2422 14.4929L20.4486 28.6779ZM21.8765 3.2985H32.1783V25.6387H21.8765L10.5261 14.495L21.8765 3.2985Z" fill="white"/>
<path d="M24.7059 14.4748L13.3617 25.6632H3.05994V14.491H0V28.7024H14.7897L28.996 14.4688L24.7059 14.4748Z" fill="#F7B917"/>
<path d="M56.8679 5.21738C56.8648 5.81607 56.7685 6.41068 56.5823 6.98013C56.3954 7.57979 56.0811 8.13256 55.6602 8.60104C55.2039 9.10047 54.6482 9.50059 54.0283 9.77621C53.2661 10.1012 52.442 10.2574 51.6129 10.2341H48.5367V14.254H50.644V16.4827H43.5674V14.254H45.1544V2.53882H43.5674V0.310059H51.307C53.1511 0.310059 54.5391 0.752431 55.4705 1.63718C56.4022 2.52192 56.8679 3.71532 56.8679 5.21738ZM48.5367 2.53882V8.03778H50.7623C51.0995 8.0392 51.4347 7.98791 51.7557 7.88582C52.0617 7.78903 52.341 7.62329 52.5717 7.40157C52.8114 7.16368 52.9971 6.87769 53.1164 6.56274C53.2616 6.16633 53.3308 5.74645 53.3204 5.32477C53.3204 4.36438 53.0913 3.65995 52.6329 3.2115C52.1748 2.76304 51.5199 2.53882 50.6684 2.53882H48.5367Z" fill="white"/>
<path d="M75.9272 8.39038C75.9382 9.50865 75.7787 10.6221 75.454 11.693C75.1624 12.6579 74.6765 13.554 74.026 14.327C73.3875 15.0781 72.5872 15.6771 71.6841 16.0796C70.6547 16.5214 69.5413 16.7377 68.4202 16.7138C67.2472 16.7383 66.0812 16.5317 64.989 16.1059C64.0749 15.7397 63.2615 15.1625 62.6165 14.4222C61.9727 13.6587 61.4986 12.7687 61.2252 11.8105C60.6283 9.63753 60.6241 7.34594 61.213 5.17082C61.4823 4.19681 61.9449 3.2861 62.5737 2.49225C63.2062 1.71072 64.0175 1.09043 64.94 0.682917C65.9016 0.242567 67.0575 0.0230694 68.4079 0.0244203C69.7584 0.0257709 70.9144 0.248644 71.8759 0.693046C72.7859 1.10597 73.5849 1.72662 74.2075 2.50441C74.8199 3.29128 75.2628 4.19472 75.509 5.15866C75.7887 6.21339 75.9293 7.29971 75.9272 8.39038ZM72.3308 8.43899C72.3318 7.6995 72.2806 6.96087 72.1778 6.22846C72.0911 5.56158 71.8912 4.91414 71.5862 4.31376C71.3063 3.77213 70.8955 3.30782 70.3908 2.96232C69.8043 2.59526 69.1189 2.41498 68.4263 2.44567C67.725 2.41883 67.0306 2.59403 66.4271 2.95018C65.9018 3.28411 65.4702 3.74488 65.1726 4.28944C64.8511 4.88744 64.635 5.53575 64.5341 6.2062C64.4137 6.9519 64.3543 7.70605 64.3566 8.46127C64.3566 10.3253 64.6681 11.7632 65.2909 12.7749C65.9139 13.7867 66.959 14.2918 68.4263 14.2905C69.0481 14.3083 69.6625 14.1539 70.2011 13.8447C70.6966 13.5423 71.1109 13.1252 71.4087 12.6291C71.7441 12.0578 71.9799 11.4345 72.1064 10.7853C72.2618 10.0129 72.3369 9.22665 72.3308 8.43899Z" fill="white"/>
<path d="M82.4898 11.7981C82.4898 12.1115 82.4938 12.4093 82.502 12.6917C82.502 12.9733 82.5122 13.2711 82.5122 13.5852C83.0483 13.8197 83.6136 13.9819 84.1931 14.0674C84.7103 14.1479 85.2325 14.1912 85.7557 14.1971C86.2749 14.2093 86.7933 14.1458 87.2939 14.0087C87.6509 13.9104 87.9844 13.7423 88.2751 13.5143C88.5087 13.3267 88.6916 13.0844 88.8075 12.8092C88.915 12.5565 88.9711 12.2852 88.9727 12.0109C88.9844 11.6749 88.894 11.3431 88.7137 11.0586C88.5262 10.7876 88.2794 10.5625 87.9915 10.4001C87.647 10.2042 87.2816 10.0465 86.9022 9.93004C86.4846 9.79495 86.0236 9.66597 85.5191 9.54304C84.7967 9.37042 84.0856 9.15457 83.3894 8.8967C82.7896 8.67883 82.2238 8.37801 81.7085 8.00318C81.2507 7.66854 80.8713 7.23926 80.5967 6.74494C80.3117 6.20143 80.1713 5.5947 80.1887 4.98219C80.1742 4.26409 80.3278 3.55247 80.6375 2.90337C80.9345 2.30329 81.3682 1.78022 81.9043 1.37565C82.4894 0.939613 83.1515 0.61659 83.8565 0.42337C84.665 0.19761 85.5016 0.087094 86.3412 0.0951358C87.2094 0.101197 88.0756 0.175725 88.9319 0.318013C89.8183 0.449836 90.6775 0.723539 91.4758 1.12847C91.4758 1.73766 91.4799 2.34551 91.488 2.952C91.488 3.55984 91.488 4.16769 91.488 4.77553H89.0911C89.0911 4.45945 89.0911 4.14945 89.0809 3.84958C89.0707 3.54971 89.0686 3.24174 89.0686 2.92363C88.658 2.76422 88.228 2.65997 87.7896 2.61363C87.3506 2.55506 86.9085 2.52325 86.4656 2.5184C85.5136 2.5184 84.8194 2.71494 84.3828 3.10801C84.1672 3.2947 83.9959 3.52653 83.8812 3.78683C83.7666 4.04713 83.7115 4.32943 83.7199 4.61344C83.7105 4.90988 83.7929 5.20203 83.9565 5.45023C84.1372 5.69659 84.3671 5.90346 84.6317 6.05808C84.9732 6.26174 85.3384 6.42365 85.719 6.5403C86.1535 6.68213 86.6533 6.82396 87.2225 6.96376C87.9024 7.15286 88.5729 7.35548 89.2339 7.57161C89.8599 7.77205 90.4536 8.06141 90.9964 8.43069C91.5056 8.78061 91.9301 9.23882 92.2387 9.772C92.5751 10.3972 92.7383 11.0999 92.712 11.8083C92.7291 12.5638 92.5647 13.3125 92.2326 13.9925C91.9205 14.6074 91.4566 15.1337 90.8842 15.5222C90.24 15.9491 89.5211 16.2528 88.7647 16.4177C87.8481 16.6216 86.9112 16.7202 85.972 16.7115C84.9769 16.7085 83.9836 16.6259 83.0018 16.4643C82.0065 16.307 81.0387 16.0103 80.1275 15.583C80.1275 14.9569 80.1275 14.3288 80.1153 13.7027C80.103 13.0766 80.103 12.4425 80.103 11.7981H82.4898Z" fill="white"/>
<path d="M100.344 8.36807C100.333 9.20493 100.418 10.0403 100.596 10.8582C100.731 11.4993 101.01 12.1019 101.412 12.6209C101.806 13.1015 102.327 13.4641 102.916 13.6685C103.649 13.9153 104.42 14.0333 105.195 14.017C105.385 14.017 105.634 14.0089 105.941 13.9926C106.247 13.9785 106.576 13.9501 106.922 13.9116C107.269 13.8731 107.624 13.8204 107.987 13.7576C108.323 13.7018 108.655 13.6233 108.981 13.5226L109.501 15.8729C109.133 16.0103 108.758 16.128 108.377 16.2255C107.948 16.3376 107.514 16.4282 107.075 16.497C106.627 16.5658 106.172 16.6206 105.715 16.6611C105.258 16.7016 104.823 16.7198 104.413 16.7198C102.931 16.7198 101.697 16.5044 100.711 16.0735C99.7899 15.6908 98.9804 15.0847 98.3566 14.3107C97.7619 13.5353 97.3444 12.6407 97.1326 11.6889C96.889 10.6255 96.7699 9.53766 96.7777 8.44709C96.782 7.46613 96.8933 6.48852 97.1102 5.53147C97.3207 4.55092 97.7309 3.62353 98.3158 2.8063C98.9463 1.953 99.7748 1.26348 100.731 0.796366C101.755 0.27227 103.064 0.00954377 104.658 0.008193C105.45 0.00246456 106.242 0.0614263 107.024 0.184473C107.691 0.292055 108.348 0.453322 108.989 0.666689V5.20323H106.592V2.77389C106.277 2.69513 105.956 2.64028 105.633 2.60977C105.33 2.57909 105.026 2.56355 104.721 2.56317C104.024 2.54141 103.332 2.6801 102.698 2.9684C102.147 3.23354 101.678 3.63907 101.337 4.14356C100.97 4.69812 100.714 5.317 100.58 5.96709C100.415 6.75662 100.335 7.5616 100.344 8.36807Z" fill="white"/>
<path d="M118.442 9.77844V14.236H120.168V16.4647H113.542V14.236H115.08V2.53905H113.542V0.310279H121.588C122.406 0.290692 123.221 0.403607 124.003 0.64459C124.63 0.84234 125.206 1.17121 125.694 1.60904C126.141 2.02101 126.482 2.5339 126.687 3.10434C126.908 3.72416 127.017 4.37787 127.008 5.03525C127.005 5.43509 126.957 5.83337 126.865 6.22255C126.665 7.09517 126.198 7.88502 125.529 8.48375C125.148 8.82019 124.701 9.07291 124.215 9.22532L126.581 14.3332L128.403 14.5662V16.3776C128.197 16.4615 127.983 16.5247 127.765 16.566C127.528 16.6126 127.287 16.6531 127.042 16.6835C126.798 16.7139 126.565 16.7383 126.345 16.7545C126.124 16.7707 125.937 16.7788 125.8 16.7788C125.123 16.7788 124.617 16.6329 124.286 16.3431C123.905 15.9837 123.607 15.5469 123.411 15.0626L121.067 9.77438L118.442 9.77844ZM123.444 4.99473C123.452 4.60747 123.383 4.22247 123.24 3.86212C123.119 3.56537 122.928 3.30195 122.683 3.09419C122.444 2.89652 122.166 2.75147 121.867 2.6687C121.547 2.58036 121.216 2.53672 120.884 2.53905H118.442V7.6044H120.808C121.127 7.60408 121.445 7.56461 121.755 7.48687C122.061 7.41575 122.348 7.27726 122.593 7.08164C122.858 6.86281 123.068 6.58521 123.205 6.27118C123.375 5.86737 123.457 5.43222 123.444 4.99473Z" fill="white"/>
<path d="M132.216 16.4768V14.248H133.848V2.56323H132.238V0.334473H145.498V5.08173H143.109V2.56323H137.265V7.07546L142.708 6.93363V9.26166L137.265 9.11983V14.244H143.385V11.5857H145.798V16.4747L132.216 16.4768Z" fill="white"/>
<path d="M149.808 16.4768V14.248H151.512V2.58557H149.904V0.306152H157.617C159.053 0.306152 160.236 0.521598 161.167 0.952492C162.042 1.33954 162.804 1.94207 163.38 2.70309C163.938 3.46897 164.328 4.34191 164.526 5.26616C164.751 6.27664 164.862 7.309 164.855 8.34387C164.859 9.38881 164.736 10.4304 164.488 11.4459C164.264 12.3861 163.847 13.2704 163.264 14.0434C162.666 14.8126 161.885 15.4224 160.991 15.8183C160.039 16.2573 158.864 16.4768 157.466 16.4768H149.808ZM154.943 2.58557V14.244H157.121C157.588 14.2369 158.05 14.1576 158.492 14.009C159.011 13.8333 159.479 13.535 159.855 13.1397C160.318 12.6316 160.666 12.0304 160.875 11.377C161.173 10.4343 161.31 9.44899 161.283 8.46138C161.31 7.46128 161.183 6.46292 160.906 5.50119C160.712 4.84085 160.381 4.22804 159.935 3.70197C159.576 3.29539 159.115 2.99114 158.598 2.8206C158.128 2.6686 157.637 2.58932 157.142 2.58557H154.943Z" fill="white"/>
<path d="M168.968 16.4767V14.2479H170.567V2.53882H168.96V0.310059H175.561V2.53882H173.951V14.2439H175.561V16.4726L168.968 16.4767Z" fill="white"/>
<path d="M183.154 16.4768V14.248H185.094V2.53897H182.034L182.058 5.19524H179.667V0.306152H193.843V5.19524H191.452V2.53897H188.447V14.244H190.365V16.4728L183.154 16.4768Z" fill="white"/>
<path d="M46.8558 28.6779V24.1798H44.363V28.6779H43.5041V23.5396H47.7268C47.7268 24.3972 47.7268 25.2523 47.7268 26.1046C47.7268 26.9568 47.7268 27.8119 47.7268 28.6697L46.8558 28.6779Z" fill="white"/>
<path d="M53.4734 26.1192C53.4732 26.4452 53.4357 26.77 53.3612 27.0877C53.2921 27.393 53.1625 27.6816 52.9798 27.9367C52.7925 28.1962 52.5428 28.4051 52.2535 28.5445C51.8978 28.7068 51.5088 28.7846 51.1173 28.7714C50.7501 28.7832 50.3853 28.7088 50.0524 28.5546C49.7795 28.4233 49.5437 28.2262 49.367 27.9812C49.192 27.7298 49.0679 27.4469 49.0018 27.1485C48.9264 26.82 48.8888 26.4843 48.8896 26.1476C48.8888 25.8098 48.9321 25.4733 49.0182 25.1467C49.0981 24.8358 49.2364 24.5429 49.4262 24.2835C49.6153 24.027 49.8627 23.8187 50.1483 23.6757C50.4845 23.5128 50.8556 23.4333 51.2295 23.4447C51.6042 23.4319 51.9763 23.5111 52.3127 23.6757C52.5899 23.8197 52.828 24.0282 53.0063 24.2835C53.1844 24.5431 53.3092 24.835 53.3735 25.1426C53.4408 25.4637 53.4745 25.791 53.4734 26.1192ZM52.5718 26.1395C52.5716 25.9036 52.5551 25.668 52.5228 25.4344C52.493 25.2048 52.4239 24.9821 52.3188 24.7759C52.226 24.5812 52.0859 24.4126 51.9108 24.2855C51.7077 24.1502 51.4659 24.0833 51.2213 24.0951C50.9716 24.085 50.7244 24.1492 50.5114 24.2795C50.3303 24.4004 50.1811 24.5629 50.0769 24.7536C49.9663 24.959 49.8911 25.1817 49.8545 25.4121C49.8119 25.6522 49.7901 25.8955 49.7893 26.1395C49.7893 26.3862 49.807 26.6326 49.8423 26.877C49.8703 27.0964 49.9394 27.3088 50.0463 27.5031C50.1491 27.6838 50.2993 27.8337 50.4808 27.9367C50.7079 28.0536 50.9618 28.1095 51.2172 28.0987C51.4582 28.1107 51.6972 28.0499 51.9027 27.9245C52.0759 27.8088 52.2162 27.6512 52.3107 27.4666C52.4127 27.268 52.4814 27.0547 52.5147 26.8344C52.5483 26.6043 52.5646 26.3719 52.5636 26.1395H52.5718Z" fill="white"/>
<path d="M55.8826 24.2001H54.0589V23.5396H58.5468V24.2021H56.7373V28.6799H55.8785L55.8826 24.2001Z" fill="white"/>
<path d="M60.3012 24.0321C60.5209 23.8595 60.7667 23.7227 61.0295 23.6269C61.2934 23.5266 61.5733 23.4745 61.8558 23.4729C62.1782 23.4614 62.498 23.5311 62.7861 23.6755C63.0356 23.8048 63.2467 23.9969 63.3981 24.2327C63.5531 24.4856 63.661 24.7642 63.7163 25.0553C63.781 25.3795 63.8132 25.7094 63.812 26.04C63.8148 26.3977 63.7771 26.7545 63.6998 27.1038C63.6351 27.4111 63.5149 27.7041 63.345 27.9689C63.1818 28.2133 62.9605 28.4139 62.7002 28.5525C62.3995 28.7048 62.0647 28.7794 61.7273 28.7693C61.6274 28.7693 61.5233 28.7693 61.3928 28.7531C61.264 28.7427 61.1359 28.7257 61.0091 28.7024C60.8748 28.6803 60.7426 28.6477 60.6133 28.6051C60.4885 28.5608 60.3703 28.4994 60.2626 28.4228V30.8724H59.4097V23.5398H60.238L60.2484 23.9916L60.3012 24.0321ZM60.2686 27.7724C60.3424 27.8218 60.4209 27.864 60.5034 27.898C60.6033 27.9406 60.7071 27.9811 60.8295 28.0196C60.9493 28.0593 61.0721 28.0891 61.1967 28.1087C61.3193 28.1302 61.4436 28.1412 61.568 28.1412C61.7471 28.1426 61.9246 28.1089 62.0902 28.0419C62.264 27.9665 62.4136 27.8453 62.5227 27.6913C62.6616 27.4938 62.7606 27.2717 62.8144 27.0369C62.8926 26.705 62.928 26.3646 62.9205 26.0238C62.9278 25.7238 62.8956 25.4241 62.8248 25.1323C62.7773 24.9275 62.6869 24.7348 62.5594 24.567C62.4534 24.4317 62.3124 24.3273 62.1514 24.2651C61.9821 24.2044 61.8032 24.1742 61.6233 24.176C61.5035 24.178 61.3844 24.1936 61.2683 24.2226C61.1353 24.2552 61.005 24.298 60.8785 24.3502C60.7583 24.3993 60.6413 24.4556 60.5278 24.5184C60.434 24.5687 60.3475 24.6315 60.2708 24.7048L60.2686 27.7724Z" fill="white"/>
<path d="M67.0797 23.4203C67.3775 23.4126 67.6741 23.4592 67.9548 23.558C68.1727 23.6377 68.3724 23.7596 68.5424 23.9167C68.6939 24.0567 68.8165 24.2244 68.9034 24.411C68.9862 24.5865 69.0485 24.7707 69.0891 24.9601C69.1268 25.1295 69.1501 25.3015 69.1584 25.4748C69.1584 25.6369 69.1686 25.7706 69.1686 25.88V26.2852H65.7007C65.6997 26.515 65.7207 26.7443 65.7639 26.9701C65.8017 27.1749 65.8808 27.37 65.9965 27.5435C66.1111 27.7155 66.2686 27.8551 66.4534 27.9487C66.6787 28.0551 66.9265 28.1057 67.1756 28.0966C67.4559 28.099 67.7356 28.067 68.0079 28.0014C68.2859 27.9286 68.5585 27.8372 68.8239 27.7278L69.0279 28.2749C68.4342 28.5918 67.7698 28.7547 67.096 28.749C66.7076 28.7648 66.3204 28.6957 65.9618 28.5464C65.6827 28.4196 65.44 28.2253 65.256 27.9811C65.0767 27.7325 64.9535 27.4484 64.8949 27.1484C64.8266 26.8151 64.7931 26.4755 64.795 26.1353C64.7958 25.9606 64.8068 25.786 64.8276 25.6125C64.8494 25.4148 64.8898 25.2195 64.948 25.029C65.0116 24.826 65.0957 24.6299 65.1989 24.4435C65.3037 24.2508 65.4418 24.0779 65.6069 23.9329C65.7882 23.7787 65.9953 23.6573 66.2189 23.5742C66.4936 23.4697 66.7855 23.4174 67.0797 23.4203ZM67.1001 24.0524C66.8831 24.0461 66.6678 24.0933 66.4738 24.1902C66.3078 24.2793 66.1646 24.4056 66.0557 24.5589C65.9418 24.7216 65.8588 24.9036 65.8109 25.0959C65.7588 25.3031 65.7254 25.5149 65.7109 25.728H68.3628C68.3639 25.5003 68.3426 25.273 68.2996 25.0493C68.2653 24.8606 68.1962 24.6801 68.0956 24.5164C68.0018 24.3703 67.87 24.252 67.7141 24.174C67.5224 24.0846 67.3116 24.0429 67.1001 24.0524Z" fill="white"/>
<path d="M72.445 21.5136C72.5566 21.4649 72.6892 21.4123 72.8428 21.3555C72.9938 21.2988 73.1468 21.24 73.2977 21.1772C73.4487 21.1144 73.5996 21.0536 73.7445 20.9969C73.8893 20.9402 74.0137 20.8895 74.1198 20.8389L74.385 21.388C74.1604 21.5109 73.9289 21.6212 73.6914 21.7182L73.2182 21.9208C72.8973 22.0428 72.5839 22.1834 72.2798 22.3423C72.0291 22.4711 71.8 22.6379 71.6005 22.8366C71.4087 23.0338 71.2576 23.2664 71.1558 23.5215C71.0346 23.8363 70.9577 24.1662 70.9273 24.5021C70.9316 24.5019 70.9359 24.5027 70.9397 24.5046C70.9436 24.5064 70.9471 24.509 70.9497 24.5123C71.127 24.2391 71.3714 24.0153 71.6596 23.8619C71.9687 23.6951 72.3159 23.6106 72.6674 23.6167C72.9972 23.6094 73.3242 23.6787 73.6221 23.8193C73.8758 23.9423 74.0931 24.1287 74.2524 24.3603C74.4187 24.6059 74.5358 24.881 74.5972 25.1708C74.6708 25.5033 74.7065 25.8432 74.7033 26.1838C74.7028 26.4957 74.6659 26.8063 74.5931 27.1098C74.5221 27.4092 74.394 27.6927 74.2157 27.9446C74.0284 28.2015 73.7814 28.41 73.4956 28.5524C73.1415 28.7208 72.7518 28.802 72.3593 28.7895C71.9852 28.8038 71.6133 28.7244 71.2782 28.5585C71.0101 28.4164 70.7796 28.2138 70.605 27.9668C70.4375 27.7269 70.3184 27.4573 70.2541 27.1726C70.1884 26.8908 70.1548 26.6026 70.1541 26.3135C70.1541 25.9083 70.1541 25.5638 70.1541 25.2863C70.1541 25.0087 70.1705 24.7777 70.1807 24.5953C70.1909 24.413 70.2031 24.2691 70.2174 24.1638C70.2317 24.0584 70.2459 23.9612 70.2602 23.9004C70.3679 23.3695 70.6215 22.8786 70.9926 22.4821C71.3989 22.0568 71.895 21.7259 72.445 21.5136ZM72.5185 24.2428C72.2747 24.2357 72.0352 24.3068 71.8351 24.4454C71.6482 24.5775 71.4924 24.7481 71.3781 24.9459C71.2594 25.1509 71.1733 25.373 71.1231 25.6044C71.0717 25.8291 71.045 26.0586 71.0436 26.2892C71.044 26.5042 71.0603 26.7187 71.0925 26.9315C71.1215 27.1373 71.1909 27.3355 71.2965 27.515C71.3985 27.6913 71.5448 27.8386 71.7208 27.9425C71.9446 28.0649 72.1982 28.1233 72.4532 28.1107C72.6925 28.1206 72.9297 28.0623 73.1366 27.9425C73.313 27.8357 73.4579 27.6848 73.5568 27.5049C73.6582 27.3148 73.7271 27.1094 73.7608 26.897C73.8002 26.6707 73.82 26.4416 73.82 26.2122C73.82 25.9729 73.8036 25.734 73.771 25.497C73.7453 25.2769 73.681 25.063 73.5813 24.8648C73.4891 24.6857 73.3538 24.5319 73.1876 24.417C72.9876 24.2849 72.7502 24.2203 72.5103 24.2327L72.5185 24.2428Z" fill="white"/>
<path d="M79.1975 28.6778V24.7066H79.1649C79.1506 24.735 79.0751 24.8606 78.9364 25.0855C78.7977 25.3104 78.6345 25.5697 78.4447 25.8656C78.255 26.1614 78.0776 26.4349 77.8756 26.751C77.6736 27.0671 77.486 27.3588 77.3085 27.6344L76.8577 28.3354C76.7332 28.538 76.6537 28.6434 76.6292 28.6778H75.8132V23.5396H76.672V27.448H76.7291C76.8128 27.3203 76.8944 27.1907 76.9719 27.0569C77.0494 26.9232 77.131 26.7935 77.2147 26.6679C77.5676 26.1209 77.8552 25.6731 78.0816 25.3246L78.6365 24.4655C78.7813 24.2406 78.8956 24.0603 78.9853 23.9245L79.2322 23.5396H80.0482V24.7026C80.0482 25.1564 80.0482 25.6251 80.0482 26.1087C80.0482 26.595 80.0482 27.063 80.0482 27.527V28.69L79.1975 28.6778Z" fill="white"/>
<path d="M82.7445 24.2001H80.9086V23.5396H85.4067V24.2021H83.6034V28.6799H82.7445V24.2001Z" fill="white"/>
<path d="M88.259 23.4203C88.5566 23.4126 88.8532 23.4592 89.1341 23.558C89.3522 23.6381 89.5525 23.76 89.7236 23.9167C89.8738 24.0573 89.9958 24.225 90.0827 24.411C90.1653 24.5865 90.2277 24.7707 90.2683 24.9601C90.3058 25.1295 90.3291 25.3015 90.3377 25.4748C90.3377 25.6369 90.3377 25.7706 90.3377 25.88V26.2852H86.8698C86.8685 26.515 86.8897 26.7443 86.933 26.9701C86.9703 27.1753 87.0503 27.3704 87.1676 27.5435C87.2812 27.7153 87.4381 27.8549 87.6225 27.9487C87.8477 28.0549 88.0954 28.1057 88.3446 28.0966C88.6249 28.099 88.9044 28.067 89.1769 28.0014C89.4548 27.9286 89.7273 27.8372 89.9929 27.7278L90.1969 28.2749C89.6039 28.5914 88.9401 28.7545 88.2671 28.749C87.8779 28.7652 87.4899 28.6959 87.1309 28.5464C86.852 28.419 86.6095 28.2246 86.4251 27.9811C86.2464 27.7325 86.1237 27.4484 86.066 27.1484C85.9969 26.8151 85.9628 26.4755 85.964 26.1353C85.9648 25.9606 85.9756 25.786 85.9967 25.6125C86.0428 25.2027 86.1688 24.8055 86.3679 24.4435C86.4722 24.2506 86.6103 24.0775 86.7759 23.9329C86.9567 23.7779 87.1639 23.6565 87.3879 23.5742C87.6655 23.4681 87.9613 23.4158 88.259 23.4203ZM88.2794 24.0524C88.0629 24.0457 87.8483 24.0931 87.6551 24.1902C87.4885 24.2769 87.3447 24.4011 87.2349 24.5529C87.1215 24.7156 87.0393 24.8977 86.9922 25.0898C86.9383 25.2969 86.904 25.5086 86.8902 25.722H89.5421C89.5439 25.4942 89.5229 25.2667 89.4789 25.0432C89.4444 24.8546 89.3752 24.674 89.2749 24.5103C89.1814 24.3638 89.0494 24.2455 88.8934 24.1679C88.701 24.0808 88.4903 24.0411 88.2794 24.0524Z" fill="white"/>
<path d="M94.8846 28.6781V24.1902H93.1139L93.0812 24.7798C93.0474 25.3686 93.0139 25.9009 92.9813 26.3764C92.9621 26.7934 92.8935 27.207 92.7773 27.6083C92.6824 27.9313 92.507 28.2253 92.2673 28.4634C91.9919 28.7055 91.6504 28.8613 91.2861 28.9111L91.0821 28.2567C91.3301 28.1761 91.5576 28.0433 91.7491 27.8677C91.9172 27.6906 92.0347 27.4724 92.0898 27.2355C92.1692 26.903 92.2151 26.5637 92.2265 26.2225C92.2483 25.8172 92.2734 25.3168 92.302 24.7211L92.353 23.5317H95.7495V28.6721L94.8846 28.6781Z" fill="white"/>
<path d="M97.9282 23.5396V25.3833H99.5255C99.8003 25.3767 100.074 25.4249 100.329 25.5252C100.539 25.6095 100.728 25.7373 100.884 25.9C101.027 26.051 101.136 26.2297 101.206 26.4248C101.277 26.6195 101.313 26.8253 101.312 27.0326C101.316 27.2675 101.27 27.5005 101.18 27.7175C101.097 27.9128 100.975 28.0893 100.821 28.2359C100.667 28.3826 100.484 28.4965 100.284 28.5705C100.07 28.6489 99.8435 28.688 99.6152 28.686H97.0694V23.5396H97.9282ZM97.9282 25.9932V28.0194H99.4704C99.6034 28.026 99.7362 28.0062 99.8615 27.9608C99.9865 27.9156 100.101 27.8459 100.199 27.756C100.382 27.5462 100.481 27.276 100.474 26.9982C100.467 26.7202 100.356 26.455 100.162 26.2546C99.9412 26.0716 99.6595 25.9776 99.3725 25.9912L97.9282 25.9932Z" fill="white"/>
<path d="M103.099 26.0766C103.097 26.3418 103.122 26.6066 103.173 26.8668C103.217 27.0882 103.3 27.3002 103.418 27.4929C103.529 27.6705 103.687 27.8148 103.875 27.9102C104.1 28.015 104.347 28.065 104.595 28.0561C104.848 28.0586 105.101 28.0308 105.348 27.9731C105.601 27.9098 105.85 27.8286 106.092 27.7299L106.325 28.3033C106.066 28.4372 105.792 28.5412 105.509 28.6133C105.186 28.6996 104.852 28.7426 104.517 28.741C104.143 28.7491 103.77 28.6802 103.424 28.5383C103.143 28.4204 102.897 28.2336 102.708 27.9953C102.524 27.755 102.392 27.4789 102.322 27.1849C102.241 26.8534 102.201 26.513 102.204 26.1718C102.207 25.8723 102.239 25.5737 102.3 25.2803C102.363 24.963 102.483 24.6595 102.655 24.3848C102.836 24.1003 103.084 23.864 103.377 23.6959C103.742 23.4989 104.155 23.4037 104.57 23.4203C104.811 23.4209 105.052 23.4371 105.29 23.4689C105.557 23.5022 105.818 23.5702 106.066 23.6716L105.862 24.2794C105.646 24.2016 105.422 24.1487 105.195 24.1214C105.011 24.1013 104.827 24.0906 104.642 24.0889C104.42 24.0772 104.199 24.1201 103.998 24.2144C103.797 24.3084 103.623 24.4504 103.491 24.6279C103.205 25.0556 103.068 25.5644 103.099 26.0766Z" fill="white"/>
<path d="M107.238 28.6778V23.5396H108.075V25.5941H109.029C109.126 25.5928 109.222 25.5841 109.317 25.5677C109.418 25.5489 109.514 25.5132 109.603 25.4624C109.7 25.4048 109.785 25.3284 109.852 25.2375C109.938 25.1151 110.001 24.9775 110.037 24.8322L110.431 23.5436H111.226L110.833 24.9416C110.787 25.1424 110.7 25.3313 110.576 25.4962C110.452 25.6609 110.294 25.7979 110.113 25.898C110.335 25.9592 110.535 26.0813 110.69 26.2505C110.833 26.4189 110.94 26.6146 111.004 26.8259L111.545 28.6738H110.716L110.209 27.0103V27.0205C110.164 26.875 110.095 26.738 110.005 26.6152C109.927 26.517 109.832 26.4345 109.723 26.3721C109.621 26.3174 109.512 26.2785 109.399 26.2566C109.29 26.2365 109.181 26.2264 109.07 26.2262H108.083V28.6799L107.238 28.6778Z" fill="white"/>
<path d="M116.794 26.1192C116.795 26.4452 116.757 26.7702 116.682 27.0877C116.614 27.3926 116.485 27.6812 116.304 27.9367C116.117 28.1962 115.867 28.4051 115.578 28.5445C115.222 28.7068 114.833 28.7846 114.442 28.7714C114.074 28.7832 113.71 28.7088 113.377 28.5546C113.104 28.4225 112.869 28.2256 112.691 27.9812C112.516 27.7298 112.392 27.4469 112.326 27.1485C112.251 26.82 112.213 26.4843 112.214 26.1476C112.213 25.8098 112.256 25.4733 112.343 25.1467C112.422 24.8358 112.561 24.5429 112.751 24.2835C112.94 24.0274 113.187 23.8191 113.473 23.6757C113.809 23.513 114.18 23.4337 114.554 23.4447C114.929 23.4319 115.301 23.5111 115.637 23.6757C115.914 23.8197 116.152 24.0282 116.331 24.2835C116.509 24.5431 116.633 24.835 116.698 25.1426C116.764 25.4639 116.796 25.7912 116.794 26.1192ZM115.892 26.1395C115.892 25.9036 115.875 25.668 115.843 25.4344C115.813 25.2048 115.744 24.9821 115.639 24.7759C115.547 24.5807 115.407 24.4122 115.231 24.2855C115.028 24.1502 114.786 24.0833 114.542 24.0951C114.292 24.085 114.045 24.1492 113.832 24.2795C113.651 24.4004 113.501 24.5629 113.397 24.7536C113.287 24.959 113.211 25.1817 113.175 25.4121C113.132 25.6522 113.11 25.8955 113.11 26.1395C113.11 26.3862 113.127 26.6326 113.163 26.877C113.191 27.0964 113.26 27.3088 113.367 27.5031C113.469 27.6838 113.62 27.8337 113.801 27.9367C114.028 28.0536 114.282 28.1095 114.538 28.0987C114.778 28.1107 115.018 28.0499 115.223 27.9245C115.396 27.8088 115.536 27.6512 115.631 27.4666C115.733 27.268 115.802 27.0547 115.835 26.8344C115.873 26.6045 115.893 26.3723 115.896 26.1395H115.892Z" fill="white"/>
<path d="M120.066 23.4203C120.363 23.4126 120.66 23.4592 120.941 23.558C121.159 23.6381 121.359 23.76 121.53 23.9167C121.681 24.0573 121.802 24.225 121.889 24.411C121.972 24.5865 122.034 24.7707 122.075 24.9601C122.113 25.1295 122.136 25.3015 122.144 25.4748C122.144 25.6369 122.144 25.7706 122.144 25.88V26.2852H118.676C118.675 26.515 118.696 26.7443 118.74 26.9701C118.777 27.1753 118.857 27.3704 118.974 27.5435C119.088 27.7153 119.245 27.8549 119.429 27.9487C119.654 28.0549 119.902 28.1057 120.151 28.0966C120.436 28.0986 120.72 28.0654 120.996 27.9973C121.274 27.9246 121.546 27.8332 121.812 27.7238L122.016 28.2708C121.423 28.5873 120.759 28.7504 120.086 28.745C119.697 28.7612 119.309 28.6919 118.95 28.5423C118.671 28.4149 118.429 28.2206 118.244 27.9771C118.064 27.7288 117.942 27.4446 117.885 27.1443C117.816 26.811 117.782 26.4714 117.783 26.1312C117.784 25.9566 117.795 25.7819 117.816 25.6085C117.862 25.1986 117.988 24.8015 118.187 24.4394C118.291 24.2465 118.429 24.0735 118.595 23.9288C118.776 23.7738 118.983 23.6525 119.207 23.5702C119.481 23.4671 119.772 23.4162 120.066 23.4203ZM120.086 24.0524C119.87 24.0457 119.655 24.0931 119.462 24.1902C119.294 24.2787 119.151 24.405 119.042 24.5589C118.928 24.7216 118.846 24.9036 118.799 25.0959C118.745 25.3029 118.711 25.5147 118.697 25.728H121.339C121.341 25.5003 121.319 25.2728 121.275 25.0493C121.241 24.8606 121.172 24.6801 121.071 24.5164C120.978 24.3699 120.846 24.2516 120.69 24.174C120.501 24.0862 120.294 24.0445 120.086 24.0524Z" fill="white"/>
<path d="M126.143 28.6778V23.5396H126.981V25.5941H127.932C128.028 25.5928 128.124 25.5841 128.219 25.5677C128.32 25.5489 128.417 25.5132 128.505 25.4624C128.602 25.4048 128.687 25.3284 128.754 25.2375C128.841 25.1151 128.904 24.9775 128.939 24.8322L129.333 23.5436H130.129L129.735 24.9416C129.69 25.1424 129.602 25.3313 129.478 25.4962C129.354 25.6609 129.196 25.7979 129.015 25.898C129.237 25.9592 129.437 26.0813 129.592 26.2505C129.736 26.4185 129.842 26.6144 129.904 26.8259L130.447 28.6738H129.619L129.109 27.0103V27.0205C129.065 26.8744 128.997 26.7372 128.905 26.6152C128.829 26.5166 128.734 26.4339 128.625 26.3721C128.523 26.318 128.414 26.2791 128.301 26.2566C128.193 26.2367 128.083 26.2266 127.972 26.2262H126.985V28.6799L126.143 28.6778Z" fill="white"/>
<path d="M132.275 24.0321C132.494 23.8595 132.74 23.7227 133.003 23.6269C133.267 23.5266 133.547 23.4745 133.829 23.4729C134.152 23.4614 134.472 23.5311 134.76 23.6755C135.009 23.8048 135.22 23.9969 135.372 24.2327C135.527 24.4856 135.635 24.7642 135.69 25.0553C135.754 25.3795 135.787 25.7094 135.786 26.04C135.788 26.3977 135.751 26.7545 135.673 27.1038C135.609 27.4111 135.488 27.7041 135.319 27.9689C135.155 28.2133 134.934 28.4139 134.674 28.5525C134.373 28.7048 134.038 28.7794 133.701 28.7693C133.601 28.7693 133.497 28.7693 133.366 28.753C133.238 28.7427 133.11 28.7257 132.983 28.7024C132.85 28.6779 132.72 28.6434 132.593 28.5991C132.468 28.5547 132.35 28.4933 132.242 28.4167V30.8663H131.394V23.5398H132.216V23.9916L132.275 24.0321ZM132.242 27.7724C132.316 27.8222 132.394 27.8644 132.477 27.898C132.576 27.9412 132.684 27.9817 132.801 28.0196C132.922 28.0589 133.045 28.0889 133.17 28.1087C133.293 28.1302 133.417 28.1411 133.542 28.1411C133.721 28.1426 133.898 28.1089 134.064 28.0419C134.238 27.9665 134.387 27.8453 134.496 27.6913C134.634 27.4934 134.733 27.2713 134.788 27.0369C134.866 26.705 134.902 26.3646 134.894 26.0238C134.901 25.7238 134.869 25.4241 134.798 25.1323C134.751 24.9275 134.66 24.7348 134.533 24.567C134.427 24.4317 134.286 24.3273 134.125 24.2651C133.956 24.2046 133.778 24.1744 133.599 24.176C133.478 24.1778 133.359 24.1936 133.242 24.2226C133.109 24.2552 132.979 24.298 132.852 24.3502C132.732 24.3993 132.615 24.4556 132.501 24.5184C132.408 24.5691 132.321 24.6319 132.244 24.7048L132.242 27.7724Z" fill="white"/>
<path d="M139.054 23.4203C139.352 23.4126 139.648 23.4592 139.929 23.558C140.147 23.6377 140.347 23.7596 140.517 23.9167C140.668 24.0567 140.791 24.2244 140.878 24.411C140.96 24.5865 141.023 24.7707 141.063 24.9601C141.101 25.1295 141.124 25.3015 141.133 25.4748C141.133 25.6369 141.133 25.7706 141.133 25.88V26.2852H137.665C137.663 26.515 137.685 26.7443 137.728 26.9701C137.765 27.1749 137.845 27.37 137.961 27.5435C138.075 27.7155 138.232 27.8551 138.417 27.9487C138.643 28.0551 138.89 28.1057 139.14 28.0966C139.42 28.099 139.699 28.067 139.972 28.0014C140.25 27.9286 140.522 27.8372 140.788 27.7278L140.992 28.2749C140.694 28.4317 140.378 28.5523 140.051 28.6335C139.727 28.7117 139.394 28.7506 139.06 28.749C138.672 28.7648 138.284 28.6957 137.926 28.5464C137.647 28.4196 137.404 28.2253 137.22 27.9811C137.041 27.7325 136.917 27.4484 136.859 27.1484C136.791 26.8151 136.757 26.4755 136.759 26.1353C136.76 25.9606 136.771 25.786 136.792 25.6125C136.813 25.4148 136.854 25.2195 136.912 25.029C136.976 24.826 137.06 24.6299 137.163 24.4435C137.268 24.2508 137.406 24.0779 137.571 23.9329C137.752 23.7787 137.959 23.6573 138.183 23.5742C138.461 23.4681 138.756 23.416 139.054 23.4203ZM139.074 24.0524C138.857 24.0461 138.642 24.0933 138.448 24.1902C138.285 24.2808 138.146 24.4068 138.04 24.5589C137.926 24.7216 137.843 24.9036 137.795 25.0959C137.742 25.3029 137.709 25.5147 137.695 25.728H140.347C140.348 25.5003 140.327 25.273 140.284 25.0493C140.25 24.8606 140.18 24.6801 140.08 24.5164C139.986 24.3703 139.854 24.252 139.699 24.174C139.504 24.083 139.289 24.0413 139.074 24.0524Z" fill="white"/>
<path d="M146.753 28.0255H147.273V30.1104H146.583V28.6779H142.593V30.1104H141.906V28.0255H142.416C142.597 27.8669 142.743 27.6732 142.846 27.4562C142.956 27.2144 143.034 26.9598 143.079 26.6984C143.136 26.374 143.173 26.0466 143.191 25.7177C143.211 25.353 143.236 24.9423 143.264 24.4858L143.317 23.5376H146.765L146.753 28.0255ZM144.068 24.19L144.048 24.6641C144.026 25.1139 144.003 25.5145 143.978 25.8656C143.959 26.1781 143.922 26.4891 143.868 26.7977C143.824 27.039 143.756 27.275 143.664 27.5028C143.588 27.6942 143.479 27.8711 143.342 28.0255H145.888V24.19H144.068Z" fill="white"/>
<path d="M151.681 28.6778V24.7066H151.648C151.634 24.735 151.559 24.8606 151.42 25.0855C151.281 25.3104 151.118 25.5697 150.928 25.8656C150.739 26.1614 150.561 26.4349 150.359 26.751C150.157 27.0671 149.97 27.3588 149.792 27.6344L149.341 28.3354C149.219 28.538 149.137 28.6434 149.113 28.6778H148.307V23.5396H149.166V27.448H149.209C149.292 27.3203 149.374 27.1907 149.451 27.0569C149.529 26.9232 149.611 26.7935 149.694 26.6679C150.047 26.1209 150.335 25.6731 150.561 25.3246L151.116 24.4655L151.465 23.9245L151.712 23.5396H152.528V24.7026C152.528 25.1564 152.528 25.6251 152.528 26.1087C152.528 26.595 152.528 27.063 152.528 27.527V28.69L151.681 28.6778Z" fill="white"/>
<path d="M155.228 24.2001H153.392V23.5396H157.891V24.2021H156.083V28.6799H155.224L155.228 24.2001Z" fill="white"/>
<path d="M163.037 26.119C163.038 26.445 163.001 26.77 162.927 27.0875C162.857 27.3926 162.728 27.6812 162.546 27.9364C162.357 28.1958 162.107 28.4045 161.818 28.5443C161.462 28.7068 161.074 28.7846 160.683 28.7712C160.316 28.7828 159.95 28.7086 159.616 28.5544C159.345 28.4223 159.11 28.2254 158.933 27.981C158.758 27.7298 158.634 27.4469 158.568 27.1483C158.491 26.8202 158.454 26.4843 158.456 26.1474C158.455 25.8098 158.498 25.4735 158.582 25.1464C158.663 24.8362 158.801 24.5435 158.99 24.2833C159.179 24.027 159.427 23.8187 159.712 23.6755C160.049 23.5126 160.42 23.4333 160.794 23.4447C161.168 23.4319 161.539 23.5113 161.875 23.6755C162.153 23.8195 162.391 24.0282 162.57 24.2833C162.749 24.5427 162.873 24.8348 162.935 25.1424C163.004 25.4635 163.039 25.791 163.037 26.119ZM162.136 26.1393C162.136 25.9036 162.121 25.668 162.089 25.4342C162.057 25.2052 161.988 24.9829 161.885 24.7757C161.791 24.5816 161.651 24.4132 161.477 24.2853C161.273 24.1506 161.032 24.0839 160.787 24.0949C160.538 24.0849 160.29 24.1492 160.078 24.2795C159.895 24.3996 159.745 24.5625 159.641 24.7534C159.531 24.9594 159.456 25.1819 159.419 25.4119C159.377 25.6522 159.356 25.8955 159.355 26.1393C159.354 26.3862 159.372 26.6326 159.408 26.8768C159.436 27.0964 159.506 27.3087 159.612 27.5029C159.716 27.6828 159.866 27.8325 160.047 27.9364C160.275 28.0536 160.529 28.1093 160.785 28.0985C161.026 28.1105 161.264 28.0497 161.469 27.9243C161.642 27.8088 161.782 27.6512 161.877 27.4664C161.98 27.2684 162.049 27.0549 162.081 26.8342C162.117 26.6045 162.136 26.3721 162.136 26.1393Z" fill="white"/>
<path d="M166.554 23.5396C167.127 23.5396 167.554 23.6591 167.833 23.9022C167.971 24.0216 168.08 24.1703 168.153 24.3372C168.225 24.5042 168.259 24.6849 168.251 24.8667C168.248 25.0642 168.205 25.2591 168.125 25.4401C168.019 25.663 167.844 25.8463 167.625 25.9628C167.771 26.0194 167.905 26.1032 168.019 26.21C168.119 26.3032 168.201 26.4136 168.262 26.5362C168.318 26.6481 168.359 26.7664 168.384 26.8888C168.408 27.0035 168.42 27.1202 168.421 27.2373C168.424 27.4433 168.379 27.6474 168.288 27.833C168.203 28.008 168.082 28.164 167.933 28.2909C167.78 28.4193 167.603 28.5176 167.413 28.5806C167.211 28.6477 167 28.6813 166.787 28.6799H164.188V23.5396H166.554ZM165.049 24.192V25.7197H166.432C166.685 25.7341 166.934 25.6569 167.134 25.5029C167.217 25.4366 167.284 25.3523 167.328 25.2563C167.373 25.1605 167.395 25.0555 167.393 24.9497C167.397 24.8456 167.378 24.7419 167.337 24.6462C167.295 24.5504 167.233 24.4651 167.154 24.3966C166.92 24.24 166.639 24.1685 166.358 24.194L165.049 24.192ZM165.049 26.3093V28.0275H166.487C166.655 28.0323 166.823 28.007 166.983 27.9525C167.104 27.912 167.215 27.8479 167.311 27.7641C167.394 27.6889 167.458 27.5951 167.497 27.4905C167.535 27.3852 167.554 27.2741 167.554 27.1623C167.554 27.0507 167.53 26.9402 167.485 26.8381C167.439 26.736 167.373 26.6442 167.291 26.5686C167.068 26.38 166.779 26.2868 166.487 26.3093H165.049Z" fill="white"/>
<path d="M173.482 28.0361H174.182L174.235 28.5426C173.952 28.6711 173.645 28.7402 173.333 28.7452C173.164 28.7558 172.997 28.7108 172.856 28.6176C172.788 28.5483 172.736 28.4656 172.703 28.3747C172.67 28.2839 172.656 28.187 172.664 28.0908C172.49 28.243 172.297 28.3736 172.091 28.4798C171.93 28.5639 171.761 28.6318 171.587 28.6824C171.454 28.7213 171.317 28.7465 171.179 28.7574C171.057 28.7574 170.955 28.7574 170.877 28.7574C170.623 28.7667 170.371 28.7161 170.141 28.6095C169.96 28.524 169.802 28.3976 169.68 28.2407C169.568 28.0983 169.487 27.935 169.441 27.7605C169.397 27.6049 169.373 27.444 169.372 27.2824C169.364 27.0777 169.403 26.8743 169.487 26.6871C169.57 26.4999 169.695 26.3341 169.853 26.2024C170.175 25.9323 170.669 25.7755 171.334 25.7324L172.66 25.6493V25.3231C172.66 24.8935 172.582 24.5916 172.425 24.4154C172.268 24.2391 171.977 24.152 171.546 24.152C171.279 24.1538 171.013 24.1787 170.751 24.2269C170.474 24.2723 170.201 24.34 169.935 24.4295L169.743 23.8501C170.055 23.7119 170.382 23.6094 170.718 23.5441C171.054 23.4754 171.395 23.4402 171.738 23.4388C172.197 23.4126 172.651 23.5466 173.021 23.8177C173.331 24.0709 173.488 24.5126 173.488 25.1448L173.482 28.0361ZM171.318 26.3078C171.032 26.2985 170.753 26.3921 170.532 26.5712C170.448 26.653 170.381 26.7515 170.337 26.8603C170.293 26.9693 170.273 27.086 170.277 27.2033C170.268 27.3247 170.283 27.4469 170.321 27.5628C170.359 27.6785 170.42 27.7857 170.5 27.878C170.705 28.0444 170.968 28.1238 171.232 28.0989C171.475 28.0959 171.713 28.0361 171.928 27.9246C172.189 27.7923 172.43 27.6238 172.644 27.4242V26.2247L171.318 26.3078Z" fill="white"/>
<path d="M178.551 28.6778V26.2647H176.048V28.6778H175.187V23.5396H176.058V25.5819H178.551V23.5396H179.41V28.6799L178.551 28.6778Z" fill="white"/>
<path d="M184.11 28.6778V24.7066H184.079C184.065 24.735 183.99 24.8606 183.851 25.0855C183.712 25.3104 183.549 25.5697 183.357 25.8656L182.79 26.751C182.586 27.0671 182.401 27.3588 182.223 27.6344C182.046 27.9099 181.895 28.1429 181.772 28.3354C181.65 28.5279 181.568 28.6434 181.544 28.6778H180.728V23.5396H181.587V27.448H181.629C181.713 27.3203 181.795 27.1907 181.872 27.0569C181.95 26.9232 182.031 26.7935 182.115 26.6679C182.468 26.1209 182.756 25.6731 182.982 25.3246C183.208 24.9761 183.39 24.6904 183.535 24.4655L183.884 23.9245L184.133 23.5396H184.949V24.7026C184.949 25.1564 184.949 25.6251 184.949 26.1087C184.949 26.595 184.949 27.063 184.949 27.527V28.69L184.11 28.6778Z" fill="white"/>
<path d="M188.396 23.4203C188.694 23.4126 188.991 23.4592 189.272 23.558C189.49 23.6377 189.69 23.7596 189.861 23.9167C190.011 24.0577 190.134 24.2254 190.222 24.411C190.304 24.5867 190.366 24.7709 190.408 24.9601C190.445 25.1297 190.468 25.3017 190.477 25.4748C190.477 25.6369 190.487 25.7706 190.487 25.88V26.2852H187.019C187.019 26.515 187.04 26.7441 187.083 26.9701C187.12 27.1753 187.2 27.3704 187.317 27.5435C187.431 27.7153 187.588 27.8549 187.772 27.9487C187.997 28.0549 188.245 28.1057 188.494 28.0966C188.778 28.0984 189.06 28.065 189.335 27.9973C189.613 27.9248 189.885 27.8334 190.151 27.7238L190.355 28.2708C189.762 28.5873 189.098 28.7504 188.425 28.745C188.036 28.7612 187.648 28.6919 187.289 28.5423C187.011 28.4147 186.769 28.2206 186.585 27.9771C186.406 27.7284 186.282 27.4444 186.224 27.1443C186.156 26.811 186.122 26.4714 186.124 26.1312C186.125 25.9566 186.135 25.7821 186.155 25.6085C186.201 25.1986 186.327 24.8015 186.526 24.4394C186.631 24.2469 186.769 24.0741 186.934 23.9288C187.115 23.7744 187.322 23.6529 187.546 23.5702C187.818 23.4681 188.106 23.4172 188.396 23.4203ZM188.419 24.0524C188.202 24.0455 187.986 24.0929 187.793 24.1902C187.626 24.2791 187.482 24.4054 187.372 24.5589C187.26 24.7223 187.178 24.904 187.13 25.0959C187.076 25.3027 187.042 25.5145 187.03 25.728H189.669C189.671 25.5003 189.65 25.2728 189.606 25.0493C189.571 24.861 189.502 24.6805 189.402 24.5164C189.308 24.3707 189.176 24.2526 189.021 24.174C188.833 24.0869 188.626 24.0451 188.419 24.0524Z" fill="white"/>
</svg>
