<svg width="187" height="39" viewBox="0 0 187 39" fill="none" xmlns="http://www.w3.org/2000/svg">
<g clip-path="url(#clip0)">
<path fill-rule="evenodd" clip-rule="evenodd" d="M0.0080482 0.405423C12.6437 0.397311 25.2754 0.40948 37.9111 0.401367C37.9754 2.78233 37.9191 5.17141 37.9392 7.55644C37.9392 15.8878 37.9392 24.2232 37.9392 32.5586C37.9231 34.5826 37.9714 36.6067 37.9151 38.6307C27.2311 38.6226 16.5471 38.6266 5.85909 38.6226C3.90338 38.6104 1.95169 38.6388 0 38.5982C0.0080482 25.866 -0.0040241 13.1377 0.0080482 0.405423Z" fill="#222221"/>
<path fill-rule="evenodd" clip-rule="evenodd" d="M1.0055 1.09927C13.1824 1.09116 25.3594 1.10333 37.5363 1.09521C37.5967 3.391 37.5443 5.69085 37.5604 7.99069C37.5604 16.0219 37.5604 24.0531 37.5604 32.0843C37.5443 34.0353 37.5926 35.9863 37.5363 37.9373C27.2386 37.9292 16.9409 37.9333 6.64326 37.9292C4.75999 37.9171 2.88073 37.9495 1.00147 37.9089C1.0055 25.635 0.993426 13.3692 1.0055 1.09927Z" fill="#FFF500"/>
<path fill-rule="evenodd" clip-rule="evenodd" d="M50.8928 32.4331C51.8465 32.4574 52.8405 32.3438 53.758 32.6643C54.1644 32.79 54.5065 33.147 54.5306 33.5891C54.5427 34.1448 54.4542 34.7694 54.0276 35.1629C53.6011 35.5441 53.0176 35.6618 52.4703 35.7307C51.758 35.8119 51.0377 35.7875 50.3254 35.7956C50.5025 34.668 50.6997 33.5526 50.8928 32.4331ZM66.776 33.1104C67.6572 31.4231 68.5224 29.7276 69.4238 28.0484C69.7458 29.7357 70.0677 31.4231 70.3816 33.1104C69.1824 33.1064 67.9792 33.1104 66.776 33.1104ZM128.139 8.05148C128.824 7.90546 129.596 8.00281 130.152 8.4571C130.719 8.90328 131.009 9.62933 131.053 10.3392C131.117 11.1098 130.98 11.9454 130.482 12.5619C129.665 13.5963 127.894 13.6449 127.045 12.6268C126.333 11.7385 126.228 10.4527 126.634 9.4103C126.88 8.74914 127.443 8.20562 128.139 8.05148ZM64.6432 8.05148C65.2428 7.9298 65.8987 7.98253 66.4299 8.30296C67.1059 8.70047 67.4923 9.47519 67.5526 10.2459C67.6291 11.049 67.5124 11.9251 66.9852 12.5619C66.1683 13.5963 64.3977 13.649 63.5486 12.6268C62.8766 11.7831 62.7519 10.5785 63.0859 9.56849C63.3112 8.84243 63.8907 8.21373 64.6432 8.05148ZM114.57 7.6337C115.246 7.62964 115.93 7.89329 116.397 8.3922C116.969 8.98034 117.21 9.82402 117.226 10.6353C117.25 11.4019 117.093 12.2009 116.643 12.8337C116.176 13.4989 115.371 13.9045 114.566 13.8761C114.574 11.7953 114.566 9.71451 114.57 7.6337ZM109.697 8.06365C110.112 7.76349 110.623 7.64992 111.126 7.62558C111.158 9.71045 111.13 11.7994 111.138 13.8883C110.381 13.8924 109.629 13.5557 109.158 12.9554C108.546 12.1928 108.401 11.1544 108.51 10.2053C108.602 9.36973 108.989 8.53011 109.697 8.06365ZM96.9446 7.62964C97.7092 7.62153 98.4778 7.9663 98.9446 8.58284C99.4557 9.23588 99.6327 10.0917 99.6006 10.907C99.5885 11.7832 99.2867 12.6998 98.6066 13.2758C98.1479 13.6733 97.5442 13.8761 96.9446 13.8842C96.9366 11.7994 96.9446 9.71451 96.9446 7.62964ZM91.5161 8.58284C91.987 7.97036 92.7475 7.61747 93.5121 7.6337C93.5121 9.71856 93.5121 11.8034 93.5121 13.8883C92.7918 13.8883 92.0715 13.5881 91.6006 13.0324C91.0695 12.4321 90.8602 11.6087 90.8562 10.8218C90.8401 10.0309 91.0212 9.21154 91.5161 8.58284ZM166.328 7.55663C166.972 6.99688 167.954 6.93604 168.702 7.32137C169.431 7.71482 169.809 8.54633 169.873 9.34945C168.409 9.36973 166.944 9.35351 165.479 9.35757C165.527 8.68019 165.797 7.99469 166.328 7.55663ZM49.6212 3.58565C50.4703 3.62215 51.3757 3.45991 52.1765 3.83713C52.6795 4.06833 52.9733 4.61186 53.0095 5.15538C53.098 5.84493 52.9009 6.66833 52.257 7.02527C51.4522 7.47145 50.5025 7.30109 49.6252 7.33354C49.6172 6.08424 49.6172 4.83495 49.6212 3.58565ZM80.2969 23.2134C79.4479 28.4743 78.5947 33.731 77.7537 38.9919C79.142 39 80.5303 38.9878 81.9187 38.9959C82.2889 36.7367 82.639 34.4733 83.0011 32.21C84.8965 32.21 86.7918 32.214 88.6872 32.2059C88.3653 34.4693 87.979 36.7245 87.6289 38.9878C89.0091 38.9959 90.3894 38.9919 91.7697 38.9878C92.5986 33.727 93.4678 28.4702 94.2928 23.2094C92.9125 23.2053 91.5322 23.2134 90.152 23.2053C89.8139 25.1644 89.5121 27.1317 89.1902 29.0949C87.2908 29.0949 85.3874 29.0989 83.4881 29.0949C83.8019 27.1317 84.1239 25.1725 84.4418 23.2094C83.0615 23.2134 81.6812 23.2134 80.2969 23.2134ZM58.9652 38.9675C60.4742 38.9675 61.9873 38.9635 63.4963 38.9716C64.0275 38.0793 64.5547 37.1828 65.0697 36.2864C67.0335 36.2783 68.9973 36.2824 70.9651 36.2824C71.1703 37.1869 71.3795 38.0914 71.5848 39C73.134 39 74.6833 39 76.2366 39C75.0173 33.7351 73.7819 28.4783 72.5586 23.2175C71.0174 23.2175 69.4761 23.2175 67.9349 23.2175C64.937 28.4621 61.9511 33.7148 58.9652 38.9675ZM96.8722 23.1931C95.999 28.4621 95.1298 33.727 94.2565 38.9959C95.6851 39 97.1096 39 98.5382 39C98.9285 36.7042 99.2907 34.4044 99.6891 32.1086C101.178 34.3963 102.643 36.7002 104.12 38.9959C105.967 39.0041 107.818 39 109.665 38.9919C107.749 36.2134 105.818 33.4471 103.902 30.6727C106.49 28.1741 109.101 25.6998 111.681 23.1931C109.914 23.1891 108.144 23.1931 106.377 23.1891C104.281 25.3713 102.192 27.5616 100.083 29.7317C100.421 27.5454 100.824 25.3713 101.182 23.1891C99.7454 23.1891 98.3088 23.1891 96.8722 23.1931ZM48.0921 23.1769C47.1907 28.4459 46.3054 33.7229 45.416 38.9959C47.6695 38.9838 49.923 38.9838 52.1725 38.9594C53.8908 38.9189 55.7258 38.639 57.1101 37.5195C57.8867 36.9232 58.3817 36.0268 58.6231 35.0858C58.7841 34.4125 58.9249 33.7189 58.8324 33.0293C58.7318 32.0802 58.2247 31.1838 57.4642 30.6159C56.7278 30.0278 55.8103 29.7236 54.8928 29.5775C53.7097 29.3909 52.5065 29.4761 51.3154 29.4558C51.4804 28.4012 51.6494 27.3507 51.8103 26.2961C53.9713 26.2961 56.1282 26.3002 58.2891 26.292C58.4541 25.2537 58.6231 24.2193 58.7841 23.185C55.2187 23.1769 51.6574 23.1891 48.0921 23.1769ZM175.555 16.2977C176.863 16.3017 178.171 16.3017 179.479 16.2977C179.479 14.7969 179.475 13.3002 179.483 11.7994C180.682 11.7994 181.877 11.7994 183.077 11.7994C183.081 13.3002 183.077 14.7969 183.081 16.2977C184.384 16.3017 185.692 16.3017 186.996 16.2977C186.988 12.5457 187.02 8.79376 186.98 5.04181C185.68 5.06209 184.38 5.04181 183.081 5.04992C183.077 6.37223 183.081 7.69048 183.077 9.01279C181.877 9.00468 180.678 9.01279 179.479 9.00874C179.475 7.68643 179.479 6.36817 179.479 5.04992C178.175 5.04587 176.871 5.05803 175.568 5.04181C175.539 8.79376 175.564 12.5457 175.555 16.2977ZM137.121 5.04992C137.117 8.79782 137.117 12.5498 137.121 16.2977C138.385 16.3017 139.652 16.2936 140.92 16.3017C142.228 14.2574 143.479 12.1766 144.795 10.1404C144.811 12.1928 144.799 14.2452 144.803 16.2977C146.111 16.3058 147.415 16.3017 148.723 16.3017C148.723 12.5538 148.723 8.80187 148.723 5.05398C147.471 5.04992 146.22 5.05398 144.972 5.04992C143.656 7.0415 142.381 9.06552 141.053 11.049C141.029 9.0493 141.065 7.04961 141.037 5.04992C139.725 5.05398 138.425 5.04587 137.121 5.04992ZM73.625 5.04992C73.621 8.79782 73.621 12.5498 73.625 16.2977C74.8886 16.3017 76.1521 16.2936 77.4157 16.3017C78.7275 14.2452 80.0112 12.1766 81.2949 10.108C81.3271 12.1725 81.2829 14.2371 81.315 16.2977C82.6148 16.2977 83.9186 16.2977 85.2224 16.2977C85.2265 12.5498 85.2265 8.79782 85.2224 5.04992C83.9709 5.04587 82.7195 5.04992 81.472 5.04587C80.1521 7.03744 78.8764 9.06147 77.5445 11.049C77.5243 9.0493 77.5525 7.04555 77.5324 5.04587C76.2326 5.05398 74.9288 5.04587 73.625 5.04992ZM164.727 5.28112C163.226 6.00312 162.179 7.49579 161.865 9.12636C161.495 11.0206 161.761 13.1541 163.008 14.6833C164.087 16.0218 165.817 16.687 167.499 16.7114C169.145 16.7763 170.912 16.3788 172.127 15.1903C172.791 14.5657 173.226 13.7463 173.535 12.8945C172.28 12.8459 171.024 12.8621 169.769 12.8864C169.66 13.3691 169.334 13.7869 168.896 14.01C167.974 14.4521 166.715 14.3507 166.022 13.5354C165.56 12.9959 165.379 12.2739 165.387 11.5722C168.135 11.5601 170.883 11.5885 173.632 11.5601C173.668 9.86864 173.334 8.09204 172.312 6.717C171.531 5.64618 170.304 4.95663 169.012 4.74571C167.572 4.51451 166.042 4.63214 164.727 5.28112ZM150.763 5.74353C151.101 6.58721 151.463 7.42278 151.809 8.2624C152.699 7.69048 153.733 7.30515 154.795 7.3092C155.222 7.32543 155.701 7.37005 156.027 7.68237C156.324 7.93791 156.34 8.39625 156.204 8.74508C156.031 9.13853 155.572 9.26427 155.177 9.27644C154.469 9.28861 153.765 9.28861 153.057 9.27644C153.025 10.0958 153.053 10.9151 153.045 11.7345C153.721 11.7345 154.397 11.7183 155.073 11.7466C155.487 11.771 155.962 11.8521 156.22 12.2172C156.477 12.6228 156.332 13.215 155.938 13.4786C155.419 13.8396 154.747 13.791 154.151 13.7544C153.153 13.6774 152.232 13.2434 151.395 12.7161C151.025 13.5841 150.723 14.4846 150.373 15.3607C152.401 16.5289 154.831 16.9994 157.133 16.5532C158.151 16.3544 159.181 15.8799 159.801 15.0119C160.473 14.1195 160.606 12.8215 160.039 11.8399C159.644 11.122 158.9 10.6637 158.127 10.4608C158.336 10.3108 158.578 10.2012 158.775 10.0268C159.725 9.23588 159.986 7.80406 159.544 6.67644C159.278 5.99501 158.699 5.47582 158.047 5.17566C157.037 4.70109 155.898 4.60374 154.795 4.65242C153.407 4.75382 152.014 5.0986 150.763 5.74353ZM124.22 5.78814C123.033 6.86708 122.482 8.48955 122.361 10.0633C122.252 11.775 122.594 13.6044 123.697 14.9591C124.626 16.1395 126.14 16.8128 127.632 16.7114C128.916 16.6708 130.152 16.0097 130.92 14.9753C130.92 15.4175 130.916 15.8596 130.92 16.3017C132.172 16.3058 133.423 16.3058 134.675 16.3017C134.675 12.5538 134.679 8.80187 134.671 5.04992C133.419 5.05803 132.168 5.04587 130.916 5.05803C130.912 5.50421 130.92 5.95039 130.908 6.40062C130.337 5.70702 129.64 5.06615 128.755 4.82683C127.218 4.40094 125.423 4.68081 124.22 5.78814ZM60.1724 6.38845C59.1543 7.71076 58.7841 9.44275 58.8606 11.0936C58.929 12.7323 59.5084 14.4278 60.7519 15.5351C62.0476 16.7154 64.0235 17.048 65.6331 16.3788C66.3414 16.0867 66.945 15.5797 67.4158 14.9794C67.4198 15.4175 67.4198 15.8515 67.4158 16.2895C68.6713 16.3139 69.9268 16.2936 71.1783 16.2977C71.1824 12.5457 71.1864 8.79376 71.1783 5.04181C69.9268 5.05398 68.6753 5.04181 67.4198 5.04587C67.4118 5.49204 67.4238 5.94228 67.4118 6.39251C67.0416 5.97067 66.6673 5.53666 66.1804 5.24056C65.2468 4.63214 64.0718 4.54696 62.9973 4.70515C61.8907 4.87956 60.8565 5.48799 60.1724 6.38845ZM145.105 0.00405616C144.984 0.40156 144.783 0.795008 144.437 1.03838C143.902 1.4156 143.194 1.42371 142.578 1.29392C141.966 1.15195 141.516 0.61248 141.379 0.00811232C140.526 0.316381 139.685 0.661154 138.832 0.965367C139.133 1.74009 139.701 2.40125 140.401 2.83931C141.685 3.6181 143.29 3.73978 144.731 3.39501C145.99 3.09891 147.182 2.21872 147.62 0.96131C146.779 0.64493 145.938 0.324493 145.105 0.00405616ZM110.892 0.00405616C110.9 1.63058 110.888 3.25304 110.896 4.87551C109.319 4.89579 107.661 5.25679 106.438 6.32356C105.335 7.26459 104.8 8.72886 104.735 10.1566C104.635 11.7669 104.981 13.5111 106.12 14.7036C107.339 15.9934 109.174 16.4599 110.888 16.468C110.888 18.0418 110.892 19.6156 110.888 21.1894C112.192 21.2016 113.496 21.1853 114.8 21.1975C114.82 19.6197 114.804 18.0459 114.808 16.468C116.389 16.4518 118.051 16.0705 119.266 15.0037C120.212 14.1844 120.755 12.9797 120.908 11.7507C121.129 10.0025 120.876 8.05148 119.653 6.70484C118.433 5.35819 116.554 4.88768 114.804 4.87145C114.808 3.24493 114.804 1.62246 114.804 0C113.504 0.00405616 112.2 0 110.892 0.00405616ZM93.2747 0.00405616C93.2747 1.63058 93.2747 3.25304 93.2747 4.87956C91.5926 4.89173 89.8059 5.32168 88.5785 6.5507C87.6289 7.48767 87.1741 8.83432 87.1138 10.1526C87.0091 11.7548 87.3472 13.4949 88.4779 14.6874C89.6972 15.9934 91.5443 16.464 93.2747 16.4721C93.2787 18.0459 93.2666 19.6197 93.2787 21.1975C94.5785 21.1975 95.8783 21.1934 97.178 21.2016C97.2143 19.6278 97.1861 18.0499 97.1901 16.4721C98.6187 16.4599 100.096 16.1557 101.275 15.3039C102.317 14.5697 102.997 13.3894 103.226 12.1401C103.436 10.9557 103.415 9.71451 103.069 8.56256C102.768 7.55257 102.132 6.64399 101.275 6.03557C100.096 5.19594 98.6187 4.88768 97.1941 4.88768C97.1821 3.2571 97.2062 1.62652 97.1821 0C95.8823 0.00405616 94.5745 0 93.2747 0.00405616ZM81.6088 0.00405616C81.4921 0.405616 81.2869 0.795008 80.9448 1.03838C80.4096 1.41966 79.6973 1.42371 79.0776 1.28986C78.466 1.14384 78.0193 0.608424 77.8744 0.00811232C77.0254 0.320437 76.1843 0.657098 75.3352 0.969423C75.7256 1.95101 76.5264 2.74197 77.4881 3.14353C78.4499 3.54509 79.5203 3.6546 80.5505 3.5248C81.5645 3.39906 82.5706 3.00156 83.2949 2.26334C83.645 1.89017 83.979 1.46427 84.1198 0.96131C83.2828 0.648986 82.4458 0.320437 81.6088 0.00405616ZM45.2349 0.00405616C45.2269 5.43526 45.2309 10.8665 45.2309 16.2977C46.6917 16.3017 48.1524 16.2977 49.6132 16.3017C49.6252 14.5089 49.6091 12.7161 49.6212 10.9232C51.1584 10.8908 52.76 11.0774 54.2328 10.5298C55.4079 10.1201 56.4059 9.22371 56.9451 8.09204C57.8867 6.1532 57.7258 3.66677 56.4018 1.94696C55.589 0.884243 54.3173 0.267707 53.0176 0.0932917C51.9954 -0.0486739 50.9612 0.0283931 49.9351 0.00811232C48.3657 0.00405616 46.8003 0 45.2349 0.00405616Z" fill="white"/>
<path fill-rule="evenodd" clip-rule="evenodd" d="M6.54318 3.78007C8.23733 3.06213 10.3258 3.42718 11.6779 4.67648C13.5612 6.62344 15.4525 8.55823 17.3278 10.5092C16.8409 11.0244 16.3137 11.4989 15.859 12.0425C16.8731 13.1174 17.9314 14.1476 18.9696 15.2022C20.0119 14.1476 21.0541 13.093 22.0923 12.0384C21.6094 11.5111 21.0621 11.0365 20.6155 10.4768C22.535 8.53795 24.4102 6.55854 26.3176 4.61158C27.7019 3.39879 29.7985 3.06213 31.4765 3.82063C32.8206 4.41283 33.8668 5.52828 34.6596 6.75324C35.6535 8.31486 36.1807 10.1726 36.1847 12.0262C35.7018 11.5233 35.2551 10.9798 34.736 10.5174C32.8326 12.4765 30.9453 14.4478 29.0218 16.3866C28.5188 15.8877 28.0279 15.3807 27.5329 14.8777C27.5088 13.4905 27.5329 12.0993 27.5007 10.7121C26.9816 11.3043 26.3659 11.8316 25.879 12.4481C25.8629 13.9164 25.8709 15.3848 25.879 16.849C25.8629 16.9829 25.9192 17.1654 25.7945 17.2668C25.05 18.0456 24.2895 18.8041 23.549 19.5869C27.3277 23.42 31.1143 27.2409 34.901 31.0659C33.4202 32.6113 31.887 34.0999 30.394 35.6291C26.6275 31.8528 22.877 28.0643 19.1145 24.284C19.038 24.1826 18.9012 24.138 18.8288 24.2637C15.0622 28.0521 11.2997 31.8406 7.52909 35.625C6.01602 34.1161 4.51101 32.5991 3.01404 31.074C5.53313 28.5429 8.03612 25.9916 10.5512 23.4565C11.8148 22.1585 13.1105 20.889 14.366 19.5788C13.5974 18.7798 12.8208 17.9929 12.0522 17.1938C12.0522 15.6038 12.0562 14.0097 12.0482 12.4197C11.4888 11.864 10.9737 11.2637 10.3983 10.7242C10.3862 12.1114 10.3942 13.4946 10.3862 14.8818C9.87514 15.3766 9.41639 15.9323 8.86509 16.3785C7.03815 14.4802 5.19108 12.5982 3.36414 10.6999C3.29573 10.6431 3.19513 10.4687 3.09855 10.5863C2.62773 11.0365 2.22532 11.5557 1.7384 11.9897C1.7545 9.98194 2.37421 7.96603 3.54925 6.33545C4.32992 5.25651 5.30778 4.28709 6.54318 3.78007Z" fill="#1F1A17"/>
</g>
<defs>
<clipPath id="clip0">
<rect width="187" height="39" fill="white"/>
</clipPath>
</defs>
</svg>
