<svg width="204" height="46" viewBox="0 0 204 46" fill="none" xmlns="http://www.w3.org/2000/svg">
<path fill-rule="evenodd" clip-rule="evenodd" d="M118.846 28.6742C115.128 28.6742 114.335 27.475 114.335 24.4419V20.8479C114.335 17.7337 114.967 16.6156 118.846 16.6156C121.616 16.6156 124.307 17.0141 124.307 17.0141L124.702 11.5014C124.702 11.5014 121.298 11.0217 118.371 11.0217C110.537 11.0217 107.69 13.6563 107.69 19.9661V25.4788C107.69 32.4269 111.17 34.4231 118.294 34.4231C121.222 34.4231 125.02 33.9434 125.02 33.9434L124.625 28.3532C124.541 28.2757 121.85 28.6742 118.846 28.6742ZM85.4543 17.0916H91.9425V34.0246H98.6683V17.0916H105.157L105.551 11.3391H85.0595L85.4543 17.0916ZM75.1682 11.3428L69.7875 24.2021H69.3928L63.7745 11.3428H57.5239L56.0216 34.0283H62.3526L63.0654 23.084H63.4602L67.4957 31.711H71.7687L75.329 23.084H75.7238L76.4366 34.0283H83.0052L81.5029 11.3428H75.1682ZM162.125 17.1728C160.385 17.1728 158.645 17.5713 157.062 17.9698L157.537 20.2059C158.802 19.9661 160.385 19.645 161.968 19.645C164.658 19.645 165.29 20.6044 165.29 22.6818V24.4382C165.29 24.4382 163.708 24.1172 161.017 24.1172C157.614 24.1172 155.955 26.1134 155.955 29.4676C155.955 32.342 157.219 34.5006 160.308 34.5006C162.286 34.5006 164.186 33.7811 165.608 32.7442L165.766 34.1021H168.138V22.6855C168.141 19.2502 166.716 17.1728 162.125 17.1728ZM165.29 30.272C164.102 31.069 162.52 31.8697 161.098 31.8697C159.04 31.8697 158.725 30.9103 158.725 29.2351C158.725 27.3163 159.438 26.3607 161.258 26.3607C163.554 26.3607 165.294 26.6005 165.294 26.6005L165.29 30.272ZM190.216 17.4126H193.064V33.9471H190.216V17.4126ZM196.624 25.4788L202.794 17.4126H199.709L193.619 25.7186L200.027 34.0246H203.507L196.624 25.4788ZM145.906 20.1284H140.763V13.8187H151.049V11.3428H137.835V33.9471H145.826C150.651 33.9471 152.471 31.711 152.471 28.1945V25.7186C152.551 22.2833 150.731 20.1284 145.906 20.1284ZM149.624 28.1945C149.624 30.4306 148.516 31.4675 145.745 31.4675H140.759V22.6043H145.745C148.516 22.6043 149.624 23.5637 149.624 25.7186V28.1945ZM182.697 24.1209H175.653V17.4126H172.806V34.0246H175.653V26.5193H182.697V34.0283H185.545V17.4126H182.697V24.1209ZM40.3548 0H4.51068C2.05795 0 0 1.99624 0 4.55334V40.814C0 43.2899 1.97753 45.3673 4.51068 45.3673H40.3548C42.8076 45.3673 44.8655 43.3711 44.8655 40.814V4.55334C44.8655 2.07741 42.8076 0 40.3548 0ZM22.3925 39.4561C14.0036 39.4561 10.2861 32.7479 10.2861 26.0359C10.2861 16.6119 16.7743 5.90753 22.3925 5.90753C28.0912 5.90753 34.499 16.6119 34.499 26.0359C34.499 32.7479 30.7779 39.4561 22.3925 39.4561Z" fill="#ED1C24"/>
</svg>
