<svg width="205" height="31" viewBox="0 0 205 31" fill="none" xmlns="http://www.w3.org/2000/svg">
<path d="M0 31H8.16676V22.5533H12.2072C19.5429 22.5533 24.8728 18.8758 24.8728 11.9231C24.8728 5.28638 20.0874 1.46525 12.6083 1.46525H0V31ZM61.8668 31V19.8239L73.071 1.46525H63.93L57.8264 12.2391L51.7515 1.46525H42.4385L53.6427 19.9388V31H61.8668ZM19.0844 31H27.681L29.7729 25.7136H41.149L43.2982 31H52.0667L39.487 1.23541H31.6068L19.0844 31ZM32.1799 19.3355L35.5039 10.9462L38.7993 19.3355H32.1799ZM8.16676 16.1464V8.33179H12.0066C14.9581 8.33179 16.7347 9.68212 16.7347 12.2104C16.7347 14.6237 14.9581 16.1464 12.0639 16.1464H8.16676Z" fill="#1240ED"/>
<path d="M119.693 31H130.897C141.5 31 147.689 24.6793 147.689 16.1464C147.689 7.52734 141.586 1.46525 131.069 1.46525H119.693V31ZM186.288 31V19.8239L196.318 3.39018C195.658 2.98796 195.229 2.2697 195.2 1.46525H188.351L182.248 12.2104L176.173 1.43652H166.86L178.064 19.9101V31H186.288ZM143.85 31H152.446L154.538 25.7136H165.914L168.063 31H176.832L164.281 1.23541H156.401L143.85 31ZM156.945 19.3355L160.269 10.9462L163.564 19.3355H156.945ZM127.86 23.7312V8.6191H131.184C136.055 8.6191 139.322 11.4347 139.322 16.1752C139.322 21.0306 136.084 23.7312 131.184 23.7312H127.86Z" fill="#1240ED"/>
<path d="M196.203 9.91195V10.5153H199.756C201.046 10.5153 201.963 11.4347 201.963 12.6413C201.963 13.8767 201.132 14.595 199.871 14.595H196.231V15.1983H199.985C201.447 15.1983 202.507 14.279 202.507 12.7275C202.507 11.607 201.934 10.9175 201.218 10.5153H202.364V9.91195H196.203ZM197.521 0C198.295 0 198.896 0.632067 198.896 1.37905C198.896 2.15477 198.266 2.75811 197.521 2.75811C196.747 2.75811 196.146 2.12604 196.146 1.37905C196.117 0.632067 196.747 0 197.521 0ZM196.06 6.00463C196.06 7.84337 197.55 9.1937 199.269 9.1937C201.017 9.1937 202.478 7.8721 202.478 6.03336C202.478 4.19462 200.988 2.8443 199.269 2.8443C197.521 2.8443 196.06 4.19462 196.06 6.00463ZM196.604 6.03336C196.604 4.59685 197.779 3.5051 199.269 3.5051C200.73 3.5051 201.934 4.62558 201.934 6.00463C201.934 7.38369 200.759 8.5329 199.269 8.5329C197.808 8.56163 196.604 7.41242 196.604 6.03336ZM196.06 28.2419C196.06 29.4198 196.547 30.1668 197.206 30.7989L197.578 30.3967C197.034 29.8795 196.604 29.2474 196.604 28.2706C196.604 27.0639 197.492 25.9722 199.04 25.8573V30.9713C199.126 30.9713 199.183 30.9713 199.269 30.9713C201.074 30.9713 202.478 29.8795 202.478 28.1557C202.478 26.4893 201.046 25.2252 199.269 25.2252C197.349 25.2252 196.06 26.633 196.06 28.2419ZM199.555 25.8573C200.931 25.9722 201.934 26.9203 201.934 28.127C201.934 29.5348 200.788 30.253 199.555 30.3392V25.8573ZM196.203 19.1631V19.7664H199.756C201.046 19.7664 201.963 20.6858 201.963 21.8925C201.963 23.1279 201.132 23.8462 199.871 23.8462H196.231V24.4495H199.985C201.447 24.4495 202.507 23.5301 202.507 21.9787C202.507 20.8582 201.934 20.1687 201.218 19.7664H202.364V19.1631H196.203ZM196.203 17.6404V18.2437H202.335V17.6404H196.203ZM203.94 17.5829V18.3299H204.742V17.5829H203.94ZM196.203 16.1464V16.7498H205V16.1464H196.203Z" fill="#1240ED"/>
<path fill-rule="evenodd" clip-rule="evenodd" d="M100.064 6.924C102.815 6.924 105.136 8.70528 105.939 11.1761H112.071C112.042 8.76274 112.014 6.95273 111.956 6.57924C109.864 6.26321 80.0343 6.26321 77.9138 6.57924C77.8565 6.95273 77.8279 8.79147 77.7992 11.1761H85.5648V15.0547H77.7705C77.7705 19.9388 77.7992 25.1965 77.9138 25.8573H111.956C112.071 25.1965 112.1 19.9388 112.1 15.0547H105.967C105.165 17.5255 102.815 19.3355 100.093 19.3355C96.683 19.3355 93.9035 16.5487 93.9035 13.1297C93.8748 9.71084 96.6257 6.924 100.064 6.924ZM87.4847 22.8981H89.7771C90.0637 22.8981 90.3216 22.6682 90.3216 22.3522C90.3216 22.0649 90.0923 21.8063 89.7771 21.8063H87.4847C87.1981 21.8063 86.9402 22.0361 86.9402 22.3522C86.9689 22.6682 87.1981 22.8981 87.4847 22.8981ZM80.1203 22.8981H85.2209C85.5075 22.8981 85.7654 22.6682 85.7654 22.3522C85.7654 22.0649 85.5361 21.8063 85.2209 21.8063H80.1203C79.8337 21.8063 79.5758 22.0361 79.5758 22.3522C79.5758 22.6682 79.8337 22.8981 80.1203 22.8981ZM90.2643 19.0769V10.0843H93.8175V7.18258H83.387V10.0843H86.9402V19.0769H90.2643ZM111.928 30.8563H77.9425C76.567 30.8563 75.3348 30.2817 74.4179 29.3911C73.5009 28.4717 72.9565 27.2363 72.9565 25.8573V6.60797C72.9565 5.22891 73.5296 3.99351 74.4179 3.07414C75.3348 2.15477 76.567 1.6089 77.9425 1.6089H111.928C113.303 1.6089 114.535 2.1835 115.452 3.07414C116.369 3.99351 116.914 5.22891 116.914 6.60797V25.8285C116.914 27.2076 116.341 28.443 115.452 29.3624C114.535 30.3105 113.274 30.8563 111.928 30.8563ZM100.064 9.96941C101.812 9.96941 103.216 11.3772 103.216 13.1297C103.216 14.8823 101.812 16.2901 100.064 16.2901C98.3164 16.2901 96.9123 14.8823 96.9123 13.1297C96.9123 11.3772 98.3164 9.96941 100.064 9.96941Z" fill="#1240ED"/>
</svg>
