<svg width="248" height="53" viewBox="0 0 248 53" fill="none" xmlns="http://www.w3.org/2000/svg">
<rect width="52" height="53"/>
<path d="M66.772 20H65.078V10.2H67.094V16.584L71.84 10.2H73.576V20H71.574V13.574L66.772 20ZM78.5841 20H76.6101V13.014H78.5841V15.604H81.4541V13.014H83.4281V20H81.4541V17.256H78.5841V20ZM89.7421 20H87.7681V14.666H85.5841V13.014H91.9541V14.666H89.7421V20ZM97.5173 20.182C96.4253 20.182 95.506 19.846 94.7593 19.174C94.0126 18.502 93.6393 17.6107 93.6393 16.5C93.6393 15.464 93.9753 14.596 94.6473 13.896C95.3193 13.1867 96.1966 12.832 97.2793 12.832C98.2873 12.832 99.0946 13.1913 99.7013 13.91C100.308 14.6287 100.611 15.5013 100.611 16.528V17.046H95.5993C95.702 17.5127 95.9586 17.872 96.3693 18.124C96.7893 18.376 97.312 18.502 97.9373 18.502C98.712 18.502 99.4586 18.2967 100.177 17.886V19.468C99.552 19.944 98.6653 20.182 97.5173 20.182ZM95.5993 15.786H98.6653C98.6466 15.3847 98.502 15.0533 98.2313 14.792C97.97 14.5213 97.6246 14.386 97.1953 14.386C96.7566 14.386 96.3926 14.5167 96.1033 14.778C95.814 15.03 95.646 15.366 95.5993 15.786ZM107.377 12.832C108.329 12.832 109.113 13.1867 109.729 13.896C110.354 14.5867 110.667 15.4593 110.667 16.514C110.667 17.55 110.354 18.4227 109.729 19.132C109.113 19.832 108.329 20.182 107.377 20.182C106.397 20.182 105.631 19.8367 105.081 19.146V22.8H103.107V13.014H105.081V13.868C105.603 13.1773 106.369 12.832 107.377 12.832ZM106.817 14.554C106.443 14.554 106.103 14.652 105.795 14.848C105.487 15.044 105.249 15.296 105.081 15.604V17.424C105.249 17.732 105.487 17.984 105.795 18.18C106.103 18.3667 106.443 18.46 106.817 18.46C107.377 18.46 107.829 18.2733 108.175 17.9C108.529 17.5173 108.707 17.0553 108.707 16.514C108.707 15.9633 108.529 15.4967 108.175 15.114C107.829 14.7407 107.377 14.554 106.817 14.554ZM115.07 20H113.096V13.014H115.07V15.604H117.94V13.014H119.914V20H117.94V17.256H115.07V20ZM126.242 20.182C125.15 20.182 124.231 19.846 123.484 19.174C122.738 18.502 122.364 17.6107 122.364 16.5C122.364 15.464 122.7 14.596 123.372 13.896C124.044 13.1867 124.922 12.832 126.004 12.832C127.012 12.832 127.82 13.1913 128.426 13.91C129.033 14.6287 129.336 15.5013 129.336 16.528V17.046H124.324C124.427 17.5127 124.684 17.872 125.094 18.124C125.514 18.376 126.037 18.502 126.662 18.502C127.437 18.502 128.184 18.2967 128.902 17.886V19.468C128.277 19.944 127.39 20.182 126.242 20.182ZM124.324 15.786H127.39C127.372 15.3847 127.227 15.0533 126.956 14.792C126.695 14.5213 126.35 14.386 125.92 14.386C125.482 14.386 125.118 14.5167 124.828 14.778C124.539 15.03 124.371 15.366 124.324 15.786ZM135.234 20H133.26V14.666H131.076V13.014H137.446V14.666H135.234V20ZM144.215 17.004H139.889V15.226H144.215V17.004ZM149.479 20H147.505V13.014H153.049V14.666H149.479V20ZM157.114 20H155.266V13.014H157.212V17.13L160.376 13.014H162.224V20H160.278V15.884L157.114 20ZM167.107 20H165.133V13.014H171.867V20H169.893V14.666H167.107V20ZM178.197 20.182C177.105 20.182 176.185 19.846 175.439 19.174C174.692 18.502 174.319 17.6107 174.319 16.5C174.319 15.464 174.655 14.596 175.327 13.896C175.999 13.1867 176.876 12.832 177.959 12.832C178.967 12.832 179.774 13.1913 180.381 13.91C180.987 14.6287 181.291 15.5013 181.291 16.528V17.046H176.279C176.381 17.5127 176.638 17.872 177.049 18.124C177.469 18.376 177.991 18.502 178.617 18.502C179.391 18.502 180.138 18.2967 180.857 17.886V19.468C180.231 19.944 179.345 20.182 178.197 20.182ZM176.279 15.786H179.345C179.326 15.3847 179.181 15.0533 178.911 14.792C178.649 14.5213 178.304 14.386 177.875 14.386C177.436 14.386 177.072 14.5167 176.783 14.778C176.493 15.03 176.325 15.366 176.279 15.786ZM188.056 12.832C189.008 12.832 189.792 13.1867 190.408 13.896C191.033 14.5867 191.346 15.4593 191.346 16.514C191.346 17.55 191.033 18.4227 190.408 19.132C189.792 19.832 189.008 20.182 188.056 20.182C187.076 20.182 186.311 19.8367 185.76 19.146V22.8H183.786V13.014H185.76V13.868C186.283 13.1773 187.048 12.832 188.056 12.832ZM187.496 14.554C187.123 14.554 186.782 14.652 186.474 14.848C186.166 15.044 185.928 15.296 185.76 15.604V17.424C185.928 17.732 186.166 17.984 186.474 18.18C186.782 18.3667 187.123 18.46 187.496 18.46C188.056 18.46 188.509 18.2733 188.854 17.9C189.209 17.5173 189.386 17.0553 189.386 16.514C189.386 15.9633 189.209 15.4967 188.854 15.114C188.509 14.7407 188.056 14.554 187.496 14.554ZM195.638 20H193.776V13.014H195.722L197.752 15.618L199.796 13.014H201.742V20H199.88V15.688L198.144 17.858H197.36L195.638 15.688V20ZM211.304 18.474C211.472 18.474 211.608 18.446 211.71 18.39V19.832C211.458 20.028 211.104 20.126 210.646 20.126C209.853 20.126 209.326 19.8273 209.064 19.23C208.448 19.8647 207.646 20.182 206.656 20.182C205.891 20.182 205.27 19.9673 204.794 19.538C204.318 19.1087 204.08 18.544 204.08 17.844C204.08 17.0973 204.351 16.528 204.892 16.136C205.434 15.744 206.082 15.548 206.838 15.548C207.632 15.548 208.304 15.6927 208.854 15.982V15.772C208.854 14.8947 208.238 14.456 207.006 14.456C206.25 14.456 205.546 14.652 204.892 15.044V13.392C205.602 13.0187 206.465 12.832 207.482 12.832C208.49 12.832 209.293 13.0747 209.89 13.56C210.506 14.0453 210.814 14.7173 210.814 15.576V17.942C210.814 18.2967 210.978 18.474 211.304 18.474ZM208.854 17.942V17.242C208.444 16.9713 207.958 16.836 207.398 16.836C206.978 16.836 206.642 16.9153 206.39 17.074C206.148 17.2327 206.026 17.4567 206.026 17.746C206.026 18.0447 206.138 18.2733 206.362 18.432C206.586 18.5813 206.89 18.656 207.272 18.656C207.963 18.656 208.49 18.418 208.854 17.942ZM218.326 12.832C219.278 12.832 220.062 13.1867 220.678 13.896C221.303 14.5867 221.616 15.4593 221.616 16.514C221.616 17.55 221.303 18.4227 220.678 19.132C220.062 19.832 219.278 20.182 218.326 20.182C217.346 20.182 216.581 19.8367 216.03 19.146V22.8H214.056V13.014H216.03V13.868C216.553 13.1773 217.318 12.832 218.326 12.832ZM217.766 14.554C217.393 14.554 217.052 14.652 216.744 14.848C216.436 15.044 216.198 15.296 216.03 15.604V17.424C216.198 17.732 216.436 17.984 216.744 18.18C217.052 18.3667 217.393 18.46 217.766 18.46C218.326 18.46 218.779 18.2733 219.124 17.9C219.479 17.5173 219.656 17.0553 219.656 16.514C219.656 15.9633 219.479 15.4967 219.124 15.114C218.779 14.7407 218.326 14.554 217.766 14.554ZM226.02 20H224.046V13.014H226.02V15.562L228.428 13.014H230.85L227.812 16.164L231.326 20H228.778L226.02 16.99V20ZM236.29 20.182C235.198 20.182 234.278 19.846 233.532 19.174C232.785 18.502 232.412 17.6107 232.412 16.5C232.412 15.464 232.748 14.596 233.42 13.896C234.092 13.1867 234.969 12.832 236.052 12.832C237.06 12.832 237.867 13.1913 238.474 13.91C239.08 14.6287 239.384 15.5013 239.384 16.528V17.046H234.372C234.474 17.5127 234.731 17.872 235.142 18.124C235.562 18.376 236.084 18.502 236.71 18.502C237.484 18.502 238.231 18.2967 238.95 17.886V19.468C238.324 19.944 237.438 20.182 236.29 20.182ZM234.372 15.786H237.438C237.419 15.3847 237.274 15.0533 237.004 14.792C236.742 14.5213 236.397 14.386 235.968 14.386C235.529 14.386 235.165 14.5167 234.876 14.778C234.586 15.03 234.418 15.366 234.372 15.786ZM245.281 20H243.307V14.666H241.123V13.014H247.493V14.666H245.281V20ZM69.082 40H64.966V33.014H68.914C69.6233 33.014 70.174 33.182 70.566 33.518C70.958 33.8447 71.154 34.274 71.154 34.806C71.154 35.506 70.8693 36.0007 70.3 36.29C71.1867 36.598 71.63 37.1953 71.63 38.082C71.63 38.6793 71.406 39.1507 70.958 39.496C70.51 39.832 69.8847 40 69.082 40ZM66.912 37.046V38.614H68.592C69.2733 38.614 69.614 38.3527 69.614 37.83C69.614 37.3073 69.2733 37.046 68.592 37.046H66.912ZM66.912 34.372V35.8H68.284C68.9093 35.8 69.222 35.562 69.222 35.086C69.222 34.61 68.9093 34.372 68.284 34.372H66.912ZM83.2075 40H81.2615V33.014H83.2075V40ZM77.6355 40H74.1355V33.014H76.1095V35.058H77.5375C78.4148 35.058 79.1148 35.282 79.6375 35.73C80.1601 36.178 80.4215 36.7753 80.4215 37.522C80.4215 38.2313 80.1788 38.824 79.6935 39.3C79.1988 39.7667 78.5128 40 77.6355 40ZM76.1095 36.528V38.474H77.2295C77.6121 38.474 77.9108 38.39 78.1255 38.222C78.3401 38.054 78.4475 37.816 78.4475 37.508C78.4475 37.2 78.3401 36.962 78.1255 36.794C77.9108 36.6167 77.6121 36.528 77.2295 36.528H76.1095ZM88.0953 40H86.1213V33.014H91.6653V34.666H88.0953V40ZM95.2709 36.5C95.2709 37.06 95.4529 37.5267 95.8169 37.9C96.1809 38.2733 96.6429 38.46 97.2029 38.46C97.7629 38.46 98.2249 38.2733 98.5889 37.9C98.9529 37.5173 99.1349 37.0507 99.1349 36.5C99.1349 35.94 98.9529 35.478 98.5889 35.114C98.2249 34.7407 97.7629 34.554 97.2029 34.554C96.6429 34.554 96.1809 34.7407 95.8169 35.114C95.4529 35.478 95.2709 35.94 95.2709 36.5ZM93.3249 36.5C93.3249 35.464 93.6889 34.596 94.4169 33.896C95.1355 33.1867 96.0642 32.832 97.2029 32.832C98.3415 32.832 99.2702 33.1867 99.9889 33.896C100.717 34.6053 101.081 35.4733 101.081 36.5C101.081 37.5453 100.717 38.4227 99.9889 39.132C99.2609 39.832 98.3322 40.182 97.2029 40.182C96.0735 40.182 95.1449 39.832 94.4169 39.132C93.6889 38.4227 93.3249 37.5453 93.3249 36.5ZM104.557 41.778H102.667V38.348H103.563C104.095 37.5173 104.375 36.192 104.403 34.372L104.431 33.014H110.311V38.348H111.459V41.778H109.597V40H104.557V41.778ZM105.579 38.348H108.379V34.666H106.195C106.195 36.1127 105.989 37.34 105.579 38.348ZM115.768 40H113.794V33.014H115.768V35.604H118.638V33.014H120.612V40H118.638V37.256H115.768V40ZM132.596 40H130.65V33.014H132.596V40ZM127.024 40H123.524V33.014H125.498V35.058H126.926C127.803 35.058 128.503 35.282 129.026 35.73C129.548 36.178 129.81 36.7753 129.81 37.522C129.81 38.2313 129.567 38.824 129.082 39.3C128.587 39.7667 127.901 40 127.024 40ZM125.498 36.528V38.474H126.618C127 38.474 127.299 38.39 127.514 38.222C127.728 38.054 127.836 37.816 127.836 37.508C127.836 37.2 127.728 36.962 127.514 36.794C127.299 36.6167 127 36.528 126.618 36.528H125.498ZM135.02 33.014H137.232L138.632 34.974L140.046 33.014H142.23L139.78 36.346L142.44 40H140.228L138.604 37.76L136.966 40H134.782L137.456 36.36L135.02 33.014ZM151.324 40H149.35V33.014H156.084V40H154.11V34.666H151.324V40ZM160.482 36.5C160.482 37.06 160.664 37.5267 161.028 37.9C161.392 38.2733 161.854 38.46 162.414 38.46C162.974 38.46 163.436 38.2733 163.8 37.9C164.164 37.5173 164.346 37.0507 164.346 36.5C164.346 35.94 164.164 35.478 163.8 35.114C163.436 34.7407 162.974 34.554 162.414 34.554C161.854 34.554 161.392 34.7407 161.028 35.114C160.664 35.478 160.482 35.94 160.482 36.5ZM158.536 36.5C158.536 35.464 158.9 34.596 159.628 33.896C160.347 33.1867 161.276 32.832 162.414 32.832C163.553 32.832 164.482 33.1867 165.2 33.896C165.928 34.6053 166.292 35.4733 166.292 36.5C166.292 37.5453 165.928 38.4227 165.2 39.132C164.472 39.832 163.544 40.182 162.414 40.182C161.285 40.182 160.356 39.832 159.628 39.132C158.9 38.4227 158.536 37.5453 158.536 36.5ZM170.702 40H168.728V33.014H170.702V35.562L173.11 33.014H175.532L172.494 36.164L176.008 40H173.46L170.702 36.99V40ZM178.863 42.884C178.284 42.884 177.817 42.7907 177.463 42.604V40.882C177.789 41.0687 178.144 41.162 178.527 41.162C178.881 41.162 179.175 41.05 179.409 40.826C179.651 40.6113 179.875 40.2567 180.081 39.762L177.071 33.014H179.199L181.047 37.606L182.797 33.014H184.883L181.649 40.728C181.033 42.1653 180.104 42.884 178.863 42.884ZM189.014 40H187.04V33.014H193.774V40H191.8V34.666H189.014V40ZM198.172 36.5C198.172 37.06 198.354 37.5267 198.718 37.9C199.082 38.2733 199.544 38.46 200.104 38.46C200.664 38.46 201.126 38.2733 201.49 37.9C201.854 37.5173 202.036 37.0507 202.036 36.5C202.036 35.94 201.854 35.478 201.49 35.114C201.126 34.7407 200.664 34.554 200.104 34.554C199.544 34.554 199.082 34.7407 198.718 35.114C198.354 35.478 198.172 35.94 198.172 36.5ZM196.226 36.5C196.226 35.464 196.59 34.596 197.318 33.896C198.037 33.1867 198.965 32.832 200.104 32.832C201.243 32.832 202.171 33.1867 202.89 33.896C203.618 34.6053 203.982 35.4733 203.982 36.5C203.982 37.5453 203.618 38.4227 202.89 39.132C202.162 39.832 201.233 40.182 200.104 40.182C198.975 40.182 198.046 39.832 197.318 39.132C196.59 38.4227 196.226 37.5453 196.226 36.5ZM208.392 40H206.418V33.014H208.392V35.562L210.8 33.014H213.222L210.184 36.164L213.698 40H211.15L208.392 36.99V40Z" fill="white"/>
</svg>
