<svg width="156" height="35" viewBox="0 0 156 35" fill="none" xmlns="http://www.w3.org/2000/svg">
<path d="M156 33.7253H151.729L144.462 25.0381L137.209 33.7253H132.977L142.34 22.4925L133.488 11.9331H137.746L144.448 19.9469L151.124 11.9331H155.355L146.571 22.479L156 33.7253ZM108.007 22.8292C108.01 20.4596 108.713 18.1439 110.028 16.1747C111.342 14.2055 113.209 12.6712 115.393 11.7656C117.577 10.86 119.98 10.6237 122.297 11.0867C124.615 11.5496 126.744 12.691 128.415 14.3666C130.086 16.0422 131.224 18.1768 131.686 20.5008C132.148 22.8248 131.912 25.2339 131.009 27.4237C130.106 29.6135 128.576 31.4857 126.612 32.8039C124.648 34.1221 122.338 34.827 119.975 34.8297C116.801 34.8297 113.757 33.5654 111.513 31.3148C109.268 29.0643 108.007 26.0119 108.007 22.8292ZM111.943 19.4621C111.29 21.0592 111.122 22.8142 111.461 24.5066C111.8 26.199 112.63 27.7531 113.847 28.9737C115.065 30.1943 116.615 31.0268 118.302 31.3666C119.99 31.7064 121.74 31.5383 123.333 30.8834C124.664 30.3362 125.84 29.4678 126.755 28.3553C127.671 27.2428 128.298 25.9207 128.581 24.5066C128.864 23.0925 128.794 21.6301 128.378 20.2495C127.962 18.8689 127.212 17.6128 126.195 16.5929C125.178 15.573 123.925 14.8209 122.548 14.4034C121.171 13.986 119.713 13.9161 118.302 14.2C116.892 14.4839 115.574 15.1129 114.464 16.0309C113.355 16.9489 112.489 18.1276 111.943 19.4621ZM92.2246 34.264H92.238H92.2246ZM83.534 32.6343V0.996673H86.798V12.4719C88.4999 11.6801 90.3626 11.2973 92.238 11.354C98.8466 11.354 104.206 16.1757 104.206 22.8023C104.206 29.4288 98.8331 34.2506 92.2246 34.264C85.5354 34.264 83.534 32.6343 83.534 32.6343ZM92.2246 14.6269H92.238H92.2246ZM86.798 16.4047V29.9002C88.4868 30.7291 90.3611 31.105 92.238 30.9912C97.0332 30.9912 100.942 27.624 100.942 22.8157C100.942 17.994 97.0467 14.6269 92.238 14.6269C90.2869 14.6532 88.3898 15.2732 86.798 16.4047ZM75.918 0.996673V33.7253H72.654V0.996673H75.918ZM65.0381 0.996673V33.7253H61.7741V0.996673H65.0381ZM52.4119 5.87229C51.727 5.82389 51.0859 5.51693 50.6178 5.0133C50.1497 4.50967 49.8894 3.84682 49.8894 3.15838C49.8894 2.46993 50.1497 1.80709 50.6178 1.30346C51.0859 0.799828 51.727 0.492871 52.4119 0.444463C52.7834 0.418207 53.1563 0.468904 53.5073 0.593399C53.8584 0.717893 54.1802 0.91352 54.4526 1.1681C54.725 1.42268 54.9423 1.73076 55.0908 2.07317C55.2393 2.41558 55.316 2.78498 55.316 3.15838C55.316 3.53178 55.2393 3.90118 55.0908 4.24358C54.9423 4.58599 54.725 4.89408 54.4526 5.14866C54.1802 5.40324 53.8584 5.59886 53.5073 5.72336C53.1563 5.84785 52.7834 5.89855 52.4119 5.87229ZM41.6394 33.7253L30.2221 22.277L40.5514 11.9062H45.172L34.8293 22.277L46.2466 33.7253H41.6394ZM26.9447 33.7253V0.996673H30.2087V33.7253H26.9447ZM10.5307 34.264C8.55071 34.2072 6.60135 33.7592 4.79429 32.9456C2.98724 32.1321 1.35803 30.969 0 29.5231L2.31032 26.9641C4.47288 29.0248 7.01153 31.0316 10.4904 31.0316C14.3589 31.0316 18.5228 28.8497 18.5228 24.9438C18.5228 21.7113 15.9573 19.5968 10.5576 17.9267C4.40572 16.0411 1.27604 13.482 1.27604 8.67376C1.27604 3.90588 5.29223 0 11.0143 0C15.2991 0 17.9721 1.83173 20.5779 4.16179L18.3079 6.69388C16.0245 4.66012 13.8485 3.28633 11.1755 3.28633C7.8712 3.28633 4.59376 5.42783 4.59376 8.51213C4.59376 11.3001 6.19219 13.078 11.8471 14.8154C17.0319 16.4182 21.7734 18.8964 21.7734 24.8226C21.7734 30.2908 17.4348 34.264 10.5307 34.264ZM54.1581 33.7253H50.8941V11.9062H54.1581V33.7253Z" fill="white"/>
</svg>
