<svg width="157" height="40" viewBox="0 0 157 40" fill="none" xmlns="http://www.w3.org/2000/svg">
<g clip-path="url(#clip0)">
<path d="M34.5416 21.5807L40.3514 15.6988C40.3217 15.5934 40.2919 15.4846 40.2588 15.3825C40.2555 15.366 40.2489 15.3528 40.2456 15.3396C39.5578 13.0791 38.8105 11.3887 38.8006 11.3657L38.7874 11.3294L38.7675 11.2833C36.3801 5.11141 33.9927 1.35492 32.5114 0.310349C32.2138 0.102753 31.9526 -0.0092826 31.7343 0.000602915C30.7291 0.0533257 29.4924 1.981 28.4442 3.8922C28.097 4.52817 27.7697 5.16414 27.4787 5.72761L25.8452 8.56146C25.6964 8.82178 25.455 9.00301 25.1806 9.07221C25.121 9.08869 25.0648 9.10187 25.0053 9.10846C24.8896 9.11505 24.7573 9.12164 24.6217 9.12493C24.5821 9.12493 24.5424 9.12823 24.5027 9.12823C24.4002 9.13152 24.2977 9.13152 24.1886 9.13152C24.1423 9.13152 24.0993 9.13152 24.053 9.13152C23.9439 9.13152 23.8381 9.13152 23.7289 9.13152C23.686 9.13152 23.6463 9.13152 23.6033 9.13152C23.481 9.12823 23.3619 9.12823 23.2462 9.12493C23.2197 9.12493 23.1933 9.12493 23.1668 9.12493C22.8858 9.11834 22.6278 9.11175 22.4261 9.10187C22.3402 9.09857 22.2707 9.09528 22.2046 9.09198L34.5416 21.5807Z" fill="#F9AF1F"/>
<path d="M41.6966 23.6758C41.69 23.2211 41.6701 22.8553 41.6437 22.6411C41.647 22.6411 41.6404 22.5653 41.6338 22.4698C41.6205 22.3116 41.604 22.1007 41.6073 22.1007C41.5346 21.4384 41.4354 20.809 41.3329 20.1961C41.2833 19.9061 41.2337 19.6129 41.1874 19.3361L41.1444 19.0889L41.1113 18.8945C41.0154 18.3442 40.8997 17.7972 40.7707 17.2634C40.7707 17.2601 40.7674 17.2535 40.7674 17.2502C40.6385 16.7164 40.4963 16.1991 40.3508 15.6982L34.541 21.5801L41.1411 28.2627C41.1576 28.2166 41.1741 28.1638 41.1907 28.1177C41.5015 27.3928 41.6437 26.0187 41.69 24.8061C41.6966 24.404 41.6999 24.0152 41.6966 23.6758Z" fill="#F9A11F"/>
<path d="M3.68101 15.3397C3.6777 15.3562 3.67109 15.3694 3.66778 15.3825C3.63802 15.4847 3.60826 15.5934 3.5752 15.6989L9.38494 21.5808L21.722 9.09205C21.6559 9.09535 21.5864 9.09865 21.5005 9.10194C21.2955 9.10853 21.0408 9.11842 20.7598 9.12501C20.7333 9.12501 20.7069 9.12501 20.6804 9.12501C20.5647 9.1283 20.4457 9.1283 20.3233 9.1316C20.2803 9.1316 20.2406 9.1316 20.1977 9.1316C20.0885 9.1316 19.9827 9.1316 19.8736 9.1316C19.8273 9.1316 19.781 9.1316 19.738 9.1316C19.6322 9.1316 19.5264 9.1283 19.4239 9.1283C19.3842 9.1283 19.3412 9.1283 19.3049 9.12501C19.1693 9.12171 19.037 9.11512 18.9213 9.10853C18.8552 9.10523 18.789 9.08876 18.7262 9.06899C18.4584 8.99649 18.2269 8.81855 18.0814 8.56483L16.4479 5.73098C16.1569 5.16751 15.8296 4.53154 15.4824 3.89557C14.4342 1.98107 13.1975 0.0533989 12.1923 0.000676194C11.9906 -0.00920932 11.7426 0.0896459 11.4714 0.274175C9.99338 1.26273 7.57953 5.0324 5.16238 11.2833L5.14254 11.3295L5.12931 11.3657C5.11609 11.3888 4.36879 13.0792 3.68101 15.3397Z" fill="#F9AF1F"/>
<path d="M21.7252 9.0924L9.38818 21.5811L21.9666 34.3169L34.5451 21.5811L22.208 9.0924C22.0989 9.08911 22.0129 9.08581 21.9832 9.08252C21.9799 9.08252 21.9699 9.08252 21.9666 9.08252C21.9633 9.08252 21.9534 9.08252 21.9534 9.08252C21.917 9.08252 21.8311 9.08581 21.7252 9.0924Z" fill="#F9A11F"/>
<path d="M34.5408 21.5806L21.9624 34.3165L26.5421 38.9528C26.6578 38.933 26.7702 38.9165 26.886 38.8934C26.8959 38.8901 26.9058 38.8901 26.9157 38.8869C26.9224 38.8869 26.929 38.8836 26.9356 38.8836C27.2431 38.8242 27.5572 38.7583 27.8747 38.6858C27.8879 38.6826 27.9011 38.6793 27.9143 38.676C28.7807 38.4783 29.6735 38.2212 30.5663 37.9148C30.6919 37.8719 30.8143 37.8291 30.9366 37.7863C31.1582 37.7039 31.383 37.6182 31.6045 37.5292C31.7732 37.4633 31.9418 37.3908 32.1105 37.3216C32.3089 37.236 32.5106 37.1503 32.709 37.0613C32.9503 36.9493 33.1851 36.8307 33.4232 36.712C33.6183 36.6132 33.8134 36.511 34.0085 36.4056C34.2928 36.2507 34.5739 36.0893 34.8484 35.9179C34.9839 35.8355 35.1129 35.7466 35.2452 35.6609C35.4766 35.5093 35.7081 35.3511 35.9362 35.1864C36.0619 35.0941 36.1908 35.0018 36.3132 34.9063C36.5645 34.7119 36.8092 34.5109 37.0506 34.3033C37.1365 34.2308 37.2225 34.1616 37.3052 34.0858C37.6226 33.7991 37.9301 33.496 38.2244 33.1763C38.2906 33.1038 38.3501 33.028 38.4162 32.9555C38.6444 32.6985 38.8626 32.4349 39.0709 32.1614C39.1569 32.0494 39.2396 31.934 39.3222 31.8187C39.5074 31.5584 39.686 31.2882 39.8546 31.0081C39.924 30.8928 39.9968 30.7807 40.0629 30.6654C40.2878 30.27 40.4994 29.8647 40.6879 29.4363C40.6945 29.4231 40.7011 29.4066 40.7077 29.3902C40.7573 29.2748 40.8102 29.1463 40.8631 29.0178C40.8797 28.975 40.8962 28.9354 40.9127 28.8926C40.9722 28.7443 41.0285 28.5894 41.0814 28.4445C41.0847 28.4346 41.088 28.4247 41.0913 28.4148C41.1078 28.3654 41.121 28.3225 41.1376 28.2797C41.1409 28.2731 41.1409 28.2665 41.1442 28.2599L34.5408 21.5806Z" fill="#FF9417"/>
<path d="M2.78469 28.2632L9.38474 21.5806L3.57498 15.6987C3.42949 16.1963 3.2873 16.7169 3.15834 17.2508C3.15834 17.2541 3.15504 17.2606 3.15504 17.2639C3.02608 17.7978 2.91035 18.3448 2.81445 18.895L2.78139 19.0895L2.7384 19.3366C2.6888 19.6134 2.6392 19.9067 2.59291 20.1966C2.4904 20.8095 2.3912 21.4389 2.31846 22.1012C2.32177 22.1012 2.30523 22.3121 2.29201 22.4703C2.2887 22.5033 2.2887 22.5329 2.28539 22.556C2.28209 22.6054 2.27878 22.6417 2.28209 22.6417C2.25233 22.8558 2.23249 23.2249 2.22918 23.6763C2.22587 24.0157 2.22918 24.4046 2.24571 24.8066C2.29201 26.0225 2.43419 27.3933 2.74501 28.1182C2.75163 28.1644 2.76816 28.2171 2.78469 28.2632Z" fill="#F9A11F"/>
<path d="M21.9632 34.3165L9.38802 21.5806L2.78467 28.2632C2.78797 28.2698 2.78797 28.2764 2.79128 28.283C2.80781 28.3291 2.82104 28.372 2.83757 28.4181C2.84088 28.428 2.84419 28.4379 2.84749 28.4477C2.9004 28.5927 2.95661 28.7443 3.01613 28.8959C3.03267 28.9387 3.0492 28.9783 3.06573 29.0211C3.11864 29.1529 3.16824 29.2781 3.22114 29.3935C3.22776 29.4066 3.23437 29.4231 3.24098 29.4396C3.42616 29.868 3.64109 30.2766 3.86594 30.6687C3.93207 30.7873 4.00482 30.8994 4.07426 31.0114C4.24289 31.2882 4.42145 31.5584 4.60662 31.822C4.68929 31.9373 4.77196 32.0527 4.85793 32.1647C5.06625 32.4382 5.28779 32.7018 5.51264 32.9588C5.57878 33.0313 5.63829 33.1104 5.70443 33.1796C5.99872 33.496 6.30624 33.7991 6.62367 34.0858C6.70634 34.1616 6.79562 34.2308 6.87828 34.3033C7.11967 34.5109 7.36436 34.7152 7.61566 34.9063C7.74132 35.0018 7.86697 35.0941 7.99262 35.1864C8.21747 35.3511 8.44894 35.506 8.68371 35.6609C8.81597 35.7466 8.94824 35.8355 9.0805 35.9179C9.35826 36.0893 9.63932 36.2507 9.92039 36.4056C10.1122 36.511 10.3073 36.6132 10.5057 36.712C10.7437 36.8307 10.9785 36.9493 11.2199 37.0613C11.4183 37.1536 11.6167 37.236 11.8151 37.3216C11.9837 37.3941 12.1524 37.4633 12.321 37.5292C12.5426 37.6182 12.7674 37.7039 12.9889 37.7863C13.1113 37.8324 13.2369 37.8719 13.3593 37.9148C14.2554 38.2245 15.1449 38.4783 16.0145 38.676C16.0277 38.6793 16.041 38.6826 16.0542 38.6858C16.3716 38.7583 16.6825 38.8242 16.9933 38.8836C16.9999 38.8836 17.0065 38.8869 17.0131 38.8869C17.023 38.8901 17.033 38.8901 17.0429 38.8934C17.1586 38.9165 17.271 38.933 17.3868 38.9528L21.9632 34.3165Z" fill="#FF9417"/>
<path d="M21.9635 34.3169L17.3838 38.9532C18.3262 39.1179 19.219 39.23 20.0324 39.2893C20.3201 39.309 20.6045 39.3255 20.8723 39.3321C21.2162 39.342 21.5865 39.3486 21.9668 39.3486C22.347 39.3453 22.7174 39.3387 23.0613 39.3321C23.3258 39.3255 23.6102 39.309 23.9012 39.2893C24.7113 39.23 25.6074 39.1212 26.5498 38.9532L21.9635 34.3169Z" fill="#FF8A00"/>
<path d="M30.8154 24.8827C31.1329 25.3473 32.31 24.9255 32.8986 24.797C33.9733 24.5664 35.0578 24.4972 36.1523 24.3851C38.3083 24.1676 40.2823 24.2566 42.425 24.2467C42.8549 24.2434 43.6882 24.2797 43.8337 23.8612C44.1048 23.0737 42.9541 22.8463 42.3622 22.7936C40.236 22.6123 38.1661 22.6288 36.0102 22.8232C34.8231 22.932 33.7517 22.9583 32.5613 23.2714C32.1315 23.3834 31.6421 23.5185 31.2618 23.7656C30.9411 23.9864 30.5641 24.5103 30.8154 24.8827Z" fill="white"/>
<path d="M29.7971 27.0837C30.0088 27.6043 31.2487 27.4396 31.8506 27.4396C32.9484 27.4396 34.023 27.601 35.1175 27.723C37.2701 27.9635 39.1814 28.4677 41.2778 28.9092C41.6977 28.9982 42.5045 29.2091 42.736 28.8301C43.1692 28.1184 42.0912 27.6538 41.5258 27.4791C39.4856 26.853 37.4619 26.4345 35.3126 26.1709C34.1321 26.0259 33.0773 25.8282 31.8472 25.8842C31.4042 25.904 30.8949 25.9304 30.4717 26.0951C30.1146 26.2335 29.6318 26.6685 29.7971 27.0837Z" fill="white"/>
<path d="M13.0589 24.8827C12.7415 25.3473 11.5643 24.9255 10.9757 24.797C9.90108 24.5664 8.81651 24.4972 7.72201 24.3851C5.56608 24.1676 3.59202 24.2566 1.44932 24.2467C1.01946 24.2434 0.186187 24.2797 0.0406948 23.8612C-0.230449 23.0737 0.92026 22.8463 1.51215 22.7936C3.63831 22.6123 5.70827 22.6288 7.8642 22.8232C9.05128 22.932 10.1226 22.9583 11.313 23.2714C11.7429 23.3834 12.2323 23.5185 12.6125 23.7656C12.93 23.9864 13.3102 24.5103 13.0589 24.8827Z" fill="white"/>
<path d="M14.0737 27.0837C13.8621 27.6043 12.6221 27.4396 12.0203 27.4396C10.9225 27.4396 9.84781 27.601 8.75331 27.723C6.60069 27.9635 4.68946 28.4677 2.59305 28.9092C2.17311 28.9982 1.36629 29.2091 1.13482 28.8301C0.701658 28.1184 1.77962 27.6538 2.34505 27.4791C4.38525 26.853 6.40891 26.4345 8.55822 26.1709C9.73869 26.0259 10.7935 25.8282 12.0236 25.8842C12.4667 25.904 12.9759 25.9304 13.3991 26.0951C13.7596 26.2335 14.2423 26.6685 14.0737 27.0837Z" fill="white"/>
<path d="M32.8297 17.1383C32.7139 16.1992 32.2973 15.3326 31.5996 14.6735C30.8027 13.9189 29.7611 13.5202 28.6699 13.5499C27.5754 13.5795 26.5537 14.031 25.7997 14.8218C25.3996 15.2403 25.1087 15.7313 24.9169 16.2585C24.7482 16.7297 24.659 17.2273 24.6722 17.7413C24.6986 18.832 25.1516 19.8503 25.9485 20.6016C26.3189 20.9508 26.7388 21.2243 27.2018 21.4155C27.6978 21.6198 28.2235 21.7252 28.7658 21.7252H28.8782C31.14 21.6659 32.9322 19.7876 32.8726 17.5337C32.8759 17.3986 32.8462 17.2701 32.8297 17.1383Z" fill="white"/>
<path d="M28.7891 14.809C29.5099 14.809 30.201 15.0858 30.7301 15.5866C31.1996 16.0315 31.4939 16.6213 31.5766 17.2935C31.5832 17.3528 31.5931 17.4089 31.603 17.4649C31.6096 17.4978 31.6162 17.5341 31.6162 17.5604C31.6361 18.315 31.3583 19.0301 30.8359 19.5804C30.3134 20.1274 29.6091 20.4404 28.8717 20.4602H28.7725C28.3989 20.4602 28.0351 20.3877 27.6913 20.246C27.3705 20.1142 27.0795 19.9231 26.8216 19.6792C26.2727 19.1586 25.9586 18.4567 25.9387 17.7021C25.9288 17.3627 25.9883 17.0167 26.1107 16.6773C26.2463 16.2984 26.4513 15.9623 26.7191 15.6822C27.2416 15.1352 27.9459 14.8221 28.7064 14.8024L28.7891 14.809ZM28.7891 13.5469C28.7494 13.5469 28.713 13.5469 28.6733 13.5469C27.5788 13.5766 26.5571 14.028 25.8032 14.8189C25.4031 15.2373 25.1121 15.7283 24.9203 16.2555C24.7517 16.7268 24.6624 17.2243 24.6756 17.7384C24.7021 18.8291 25.1551 19.8473 25.952 20.5986C26.3223 20.9479 26.7423 21.2214 27.2052 21.4125C27.7012 21.6168 28.2269 21.7222 28.7692 21.7222H28.8816C31.1434 21.6629 32.9356 19.7847 32.8761 17.5308C32.8728 17.399 32.843 17.2705 32.8265 17.1387C32.7107 16.1995 32.2941 15.3329 31.5964 14.6739C30.8359 13.9456 29.8373 13.5469 28.7891 13.5469Z" fill="white"/>
<path d="M29.9031 18.167C30.7961 18.167 31.52 17.4455 31.52 16.5556C31.52 15.6657 30.7961 14.9443 29.9031 14.9443C29.0101 14.9443 28.2861 15.6657 28.2861 16.5556C28.2861 17.4455 29.0101 18.167 29.9031 18.167Z" fill="white"/>
<path d="M19.0078 16.2586C18.8193 15.7313 18.525 15.2403 18.1249 14.8219C17.371 14.031 16.3525 13.5796 15.2547 13.5499C14.1669 13.5203 13.122 13.919 12.3251 14.6736C11.6274 15.3359 11.2107 16.2025 11.095 17.1384C11.0785 17.2702 11.0487 17.3987 11.0454 17.5305C10.9859 19.7844 12.7781 21.6659 15.0398 21.7219H15.1522C15.6945 21.7219 16.2203 21.6165 16.7163 21.4122C17.1792 21.2211 17.5991 20.9476 17.9695 20.5983C18.7631 19.847 19.2161 18.8321 19.2459 17.7381C19.2657 17.2273 19.1764 16.7265 19.0078 16.2586Z" fill="white"/>
<path d="M15.1419 14.8093H15.2246C15.9818 14.8291 16.6861 15.1421 17.2086 15.6891C17.4764 15.9692 17.6814 16.3053 17.817 16.6842C17.9393 17.0236 17.9956 17.3696 17.9889 17.709C17.9691 18.4636 17.655 19.1688 17.1061 19.6861C16.8482 19.93 16.5572 20.1178 16.2397 20.2496C15.8991 20.3913 15.5354 20.4638 15.1717 20.4638H15.0791C14.3219 20.444 13.6176 20.131 13.0951 19.584C12.5727 19.037 12.2949 18.3186 12.3148 17.5706C12.3181 17.5377 12.3247 17.5014 12.328 17.4685C12.3379 17.4125 12.3445 17.3532 12.3544 17.2939C12.4371 16.6216 12.7281 16.0318 13.1976 15.587C13.73 15.0861 14.4178 14.8093 15.1419 14.8093ZM15.1419 13.5472C14.0937 13.5472 13.0984 13.946 12.328 14.6709C11.6303 15.3332 11.2136 16.1999 11.0979 17.1357C11.0814 17.2675 11.0516 17.396 11.0483 17.5278C10.9888 19.7817 12.781 21.6632 15.0427 21.7193H15.1552C15.6974 21.7193 16.2232 21.6138 16.7192 21.4095C17.1821 21.2184 17.6021 20.9449 17.9724 20.5956C18.766 19.8443 19.219 18.8294 19.2488 17.7354C19.262 17.2214 19.1727 16.7238 19.0041 16.2526C18.8156 15.7253 18.5213 15.2344 18.1212 14.8159C17.3673 14.025 16.3489 13.5736 15.251 13.5439C15.218 13.5472 15.1783 13.5472 15.1419 13.5472Z" fill="white"/>
<path d="M16.1171 18.2065C17.032 18.2065 17.7738 17.4674 17.7738 16.5557C17.7738 15.6439 17.032 14.9048 16.1171 14.9048C15.2021 14.9048 14.4604 15.6439 14.4604 16.5557C14.4604 17.4674 15.2021 18.2065 16.1171 18.2065Z" fill="white"/>
<path d="M34.9582 24.1277C34.8987 23.6104 34.4292 23.2348 33.91 23.2941C33.3909 23.3534 33.0139 23.8213 33.0735 24.3386C33.166 25.1723 32.9048 25.9566 32.2931 26.6683C31.4168 27.6865 29.9454 28.3851 28.5467 28.4411C27.0686 28.5037 25.3458 27.815 24.1687 26.6914C23.4015 25.9599 22.9816 25.1394 22.9816 24.3815C22.9816 23.6071 23.266 23.3435 23.6595 22.9777C23.8909 22.7602 24.1555 22.5164 24.3307 22.1638C24.5126 21.7981 24.496 21.3796 24.2877 21.0468C23.9207 20.4602 23.1502 20.3218 22.1086 20.3119C22.102 20.3119 22.0954 20.3086 22.0855 20.3086C22.0657 20.3086 22.0458 20.3086 22.026 20.3086C22.0061 20.3086 21.9863 20.3086 21.9665 20.3086C21.9599 20.3086 21.9532 20.3119 21.9433 20.3119C20.8984 20.3218 20.128 20.4602 19.7642 21.0468C19.5559 21.3796 19.5394 21.7981 19.7213 22.1638C19.8965 22.5131 20.161 22.7602 20.3925 22.9777C20.786 23.3435 21.0704 23.6071 21.0704 24.3815C21.0704 25.1394 20.6471 25.9599 19.8833 26.6914C18.7061 27.815 16.9834 28.4971 15.5053 28.4411C14.1033 28.3818 12.6351 27.6865 11.7589 26.6683C11.1472 25.9566 10.8826 25.1723 10.9785 24.3386C11.038 23.8213 10.6611 23.3534 10.1419 23.2941C9.6228 23.2348 9.15325 23.6071 9.09374 24.1277C8.94163 25.4854 9.36488 26.7869 10.3205 27.8974C11.5406 29.3176 13.4982 30.2502 15.4292 30.3293C15.5185 30.3326 15.6078 30.3358 15.6971 30.3358C17.6282 30.3358 19.7146 29.4758 21.1993 28.0589C21.5201 27.7524 21.7945 27.4295 22.0326 27.0967C22.2707 27.4295 22.5451 27.7557 22.8659 28.0589C24.3505 29.4791 26.437 30.3358 28.3681 30.3358C28.4574 30.3358 28.5467 30.3326 28.6359 30.3293C30.567 30.2502 32.5245 29.3176 33.7447 27.8974C34.6871 26.7869 35.1103 25.4854 34.9582 24.1277Z" fill="white"/>
<path d="M60.2444 21.9466H57.4106L52.907 16.8885V21.9466H50.5361V6.62402H52.907V15.8406L57.1692 11.0033H60.0692L55.2349 16.3646L60.2444 21.9466Z" fill="white"/>
<path d="M62.0431 20.5656C60.9221 19.4485 60.3501 18.0909 60.3501 16.473C60.3501 14.8517 60.9221 13.4974 62.0431 12.3804C63.1641 11.2633 64.5462 10.7163 66.1499 10.7163C67.7768 10.7163 69.1358 11.2633 70.2568 12.3804C71.3777 13.4974 71.9498 14.855 71.9498 16.473C71.9498 18.0942 71.3777 19.4485 70.2568 20.5656C69.1358 21.6826 67.7735 22.2296 66.1499 22.2296C64.5462 22.2296 63.1641 21.6826 62.0431 20.5656ZM66.1499 19.9329C67.1155 19.9329 67.9289 19.6034 68.5869 18.9476C69.245 18.2919 69.5756 17.4582 69.5756 16.473C69.5756 15.4877 69.245 14.6573 68.5869 13.9983C67.9289 13.3426 67.1155 13.013 66.1499 13.013C65.1844 13.013 64.371 13.3426 63.713 13.9983C63.0549 14.654 62.7243 15.4877 62.7243 16.473C62.7243 17.4582 63.0549 18.2886 63.713 18.9476C64.371 19.6034 65.1844 19.9329 66.1499 19.9329Z" fill="white"/>
<path d="M82.8024 20.5656C81.6814 19.4485 81.1094 18.0909 81.1094 16.473C81.1094 14.8517 81.6814 13.4974 82.8024 12.3804C83.9233 11.2633 85.3055 10.7163 86.9092 10.7163C88.5361 10.7163 89.8951 11.2633 91.0161 12.3804C92.137 13.4974 92.7091 14.855 92.7091 16.473C92.7091 18.0942 92.137 19.4485 91.0161 20.5656C89.8951 21.6826 88.5328 22.2296 86.9092 22.2296C85.3055 22.2296 83.92 21.6826 82.8024 20.5656ZM86.9092 19.9329C87.8748 19.9329 88.6882 19.6034 89.3462 18.9476C90.0042 18.2919 90.3349 17.4582 90.3349 16.473C90.3349 15.4877 90.0042 14.6573 89.3462 13.9983C88.6882 13.3426 87.8748 13.013 86.9092 13.013C85.9437 13.013 85.1303 13.3426 84.4722 13.9983C83.8142 14.654 83.4835 15.4877 83.4835 16.473C83.4835 17.4582 83.8142 18.2886 84.4722 18.9476C85.1303 19.6034 85.9437 19.9329 86.9092 19.9329Z" fill="white"/>
<path d="M100.219 8.61391C98.4826 8.46233 97.6262 9.18398 97.6262 10.7822V10.9997H100.219V13.2766H97.6262V21.9462H95.2553V13.2766H93.5854V10.9997H95.2553V10.7822C95.2553 7.78353 96.9681 6.14253 100.219 6.34024V8.61391Z" fill="white"/>
<path d="M102.175 20.5656C101.054 19.4485 100.482 18.0909 100.482 16.473C100.482 14.8517 101.054 13.4974 102.175 12.3804C103.296 11.2633 104.679 10.7163 106.282 10.7163C107.909 10.7163 109.268 11.2633 110.389 12.3804C111.51 13.4974 112.082 14.855 112.082 16.473C112.082 18.0942 111.51 19.4485 110.389 20.5656C109.268 21.6826 107.906 22.2296 106.282 22.2296C104.679 22.2296 103.293 21.6826 102.175 20.5656ZM106.282 19.9329C107.248 19.9329 108.061 19.6034 108.719 18.9476C109.377 18.2919 109.708 17.4582 109.708 16.473C109.708 15.4877 109.377 14.6573 108.719 13.9983C108.061 13.3426 107.248 13.013 106.282 13.013C105.317 13.013 104.503 13.3426 103.845 13.9983C103.187 14.654 102.857 15.4877 102.857 16.473C102.857 17.4582 103.187 18.2886 103.845 18.9476C104.503 19.6034 105.317 19.9329 106.282 19.9329Z" fill="white"/>
<path d="M120.14 13.2766H117.419V18.5291C117.419 19.9295 118.342 19.9065 120.144 19.8208V21.9462C116.52 22.3844 115.048 21.3992 115.048 18.5324V13.2766H113.028V10.9996H115.048V8.63693L117.419 7.93506V10.9996H120.144V13.2766H120.14Z" fill="white"/>
<path d="M79.907 13.2766H77.1857V18.5291C77.1857 19.9295 78.1082 19.9065 79.9103 19.8208V21.9462C76.2863 22.3844 74.8148 21.3992 74.8148 18.5324V13.2766H72.7944V10.9996H74.8148V8.63693L77.1857 7.93506V10.9996H79.9103V13.2766H79.907Z" fill="white"/>
<path d="M122.932 20.5656C121.811 19.4485 121.239 18.0909 121.239 16.473C121.239 14.8517 121.811 13.4974 122.932 12.3804C124.053 11.2633 125.435 10.7163 127.039 10.7163C128.665 10.7163 130.025 11.2633 131.145 12.3804C132.266 13.4974 132.838 14.855 132.838 16.473C132.838 18.0942 132.266 19.4485 131.145 20.5656C130.025 21.6826 128.662 22.2296 127.039 22.2296C125.435 22.2296 124.053 21.6826 122.932 20.5656ZM127.039 19.9329C128.004 19.9329 128.818 19.6034 129.476 18.9476C130.134 18.2919 130.464 17.4582 130.464 16.473C130.464 15.4877 130.134 14.6573 129.476 13.9983C128.818 13.3426 128.004 13.013 127.039 13.013C126.073 13.013 125.26 13.3426 124.602 13.9983C123.944 14.654 123.613 15.4877 123.613 16.473C123.613 17.4582 123.944 18.2886 124.602 18.9476C125.26 19.6034 126.073 19.9329 127.039 19.9329Z" fill="white"/>
<path d="M137.187 20.5658C137.187 21.4621 136.44 22.2068 135.54 22.2068C134.641 22.2068 133.894 21.4621 133.894 20.5658C133.894 19.6695 134.598 18.9248 135.54 18.9248C136.44 18.9248 137.187 19.6695 137.187 20.5658Z" fill="white"/>
<path d="M142.087 12.8387C142.679 11.4811 143.823 10.8022 145.469 10.8022V13.3626C144.57 13.2967 143.78 13.5142 143.099 14.0183C142.417 14.4994 142.087 15.31 142.087 16.4271V21.9465H139.716V11H142.087V12.8387Z" fill="white"/>
<path d="M154.63 11H157V21.9466H154.63V20.5461C153.905 21.6632 152.784 22.2332 151.224 22.2332C148.698 22.2332 147.008 20.5263 147.008 17.7254V11H149.379V17.4783C149.379 19.1193 150.324 20.0189 151.839 20.0189C153.509 20.0189 154.63 18.9908 154.63 16.8654V11Z" fill="white"/>
<path d="M52.4808 32.979C51.8393 32.979 51.2937 32.7582 50.844 32.3167C50.3943 31.8751 50.1694 31.3314 50.1694 30.6856C50.1694 30.0397 50.3943 29.4993 50.844 29.0545C51.2937 28.6129 51.8393 28.3921 52.4808 28.3921C53.1289 28.3921 53.6745 28.6129 54.1209 29.0545C54.5673 29.496 54.7888 30.0397 54.7888 30.6856C54.7888 31.3314 54.5673 31.8751 54.1209 32.3167C53.6745 32.7582 53.1256 32.979 52.4808 32.979ZM51.5086 31.6708C51.7698 31.9312 52.0939 32.063 52.4808 32.063C52.8676 32.063 53.1884 31.9312 53.4496 31.6708C53.7108 31.4105 53.8431 31.081 53.8431 30.6856C53.8431 30.2902 53.7108 29.9606 53.4496 29.7003C53.1884 29.44 52.8643 29.3082 52.4808 29.3082C52.0972 29.3082 51.7732 29.44 51.5086 29.7003C51.2441 29.9606 51.1151 30.2902 51.1151 30.6856C51.1151 31.081 51.2474 31.4105 51.5086 31.6708Z" fill="white"/>
<path d="M58.5916 28.5078H59.5373V32.864H58.5916V31.1307H56.5878V32.864H55.6421V28.5078H56.5878V30.241H58.5916V28.5078Z" fill="white"/>
<path d="M64.319 28.5078V32.864H63.3733V29.4139H61.9118V31.0352C61.9118 31.7271 61.7597 32.2181 61.4555 32.5081C61.1513 32.7981 60.7214 32.9167 60.1626 32.864V31.9842C60.4304 32.0303 60.6321 31.9743 60.7677 31.8194C60.9 31.6612 60.9694 31.3877 60.9694 30.9923V28.5078H64.319Z" fill="white"/>
<path d="M68.8815 28.5075H69.8272V32.8638H68.8815V32.2377C68.5244 32.732 68.0152 32.9791 67.3506 32.9791C66.7488 32.9791 66.2362 32.7583 65.813 32.3135C65.3864 31.8686 65.1748 31.3282 65.1748 30.6889C65.1748 30.0431 65.3864 29.5027 65.813 29.0578C66.2395 28.6163 66.7521 28.3955 67.3506 28.3955C68.0152 28.3955 68.5244 28.6394 68.8815 29.127V28.5075ZM66.514 31.6841C66.7752 31.9477 67.1059 32.0795 67.5027 32.0795C67.8995 32.0795 68.2301 31.9477 68.4914 31.6841C68.7526 31.4205 68.8848 31.0877 68.8848 30.6857C68.8848 30.2836 68.7526 29.9508 68.4914 29.6872C68.2301 29.4236 67.8995 29.2918 67.5027 29.2918C67.1059 29.2918 66.7752 29.4236 66.514 29.6872C66.2528 29.9508 66.1205 30.2836 66.1205 30.6857C66.1205 31.0877 66.2495 31.4205 66.514 31.6841Z" fill="white"/>
<path d="M74.0932 28.5077H74.8206V32.8639H73.8948V30.0927L71.6562 32.8639H70.9287V28.5077H71.8546V31.2691L74.0932 28.5077ZM71.6462 27.8981V27.0776H74.0932V27.8981H71.6462Z" fill="white"/>
<path d="M78.8611 28.5078H79.8068V32.864H78.8611V31.1307H76.8573V32.864H75.9116V28.5078H76.8573V30.241H78.8611V28.5078Z" fill="white"/>
<path d="M86.0137 28.5078V29.4139H84.0297V32.864H83.084V28.5078H86.0137Z" fill="white"/>
<path d="M89.8159 28.5078H90.5434V32.864H89.6175V30.0927L87.3789 32.864H86.6548V28.5078H87.5806V31.2691L89.8159 28.5078Z" fill="white"/>
<path d="M95.5266 28.5078V32.864H94.5809V29.3975H92.577V32.864H91.6313V28.5078H95.5266Z" fill="white"/>
<path d="M97.3617 31.0874C97.4312 31.4169 97.5932 31.674 97.8412 31.8486C98.0925 32.0265 98.3967 32.1155 98.7604 32.1155C99.263 32.1155 99.6367 31.9343 99.888 31.5751L100.665 32.0265C100.232 32.6592 99.5937 32.9756 98.7505 32.9756C98.0396 32.9756 97.4642 32.7581 97.0278 32.3264C96.5913 31.8947 96.373 31.3444 96.373 30.6821C96.373 30.033 96.588 29.486 97.0211 29.0477C97.451 28.6094 98.0065 28.3887 98.6811 28.3887C99.3226 28.3887 99.8483 28.6127 100.258 29.0609C100.668 29.509 100.873 30.0527 100.873 30.692C100.873 30.7909 100.86 30.9227 100.837 31.0841H97.3617V31.0874ZM97.3518 30.3196H99.9211C99.8582 29.9638 99.7094 29.6969 99.478 29.5189C99.2465 29.3377 98.9787 29.2487 98.6678 29.2487C98.3173 29.2487 98.0264 29.3443 97.7949 29.5354C97.5667 29.7265 97.4179 29.9901 97.3518 30.3196Z" fill="white"/>
<path d="M104.183 28.3955C104.782 28.3955 105.298 28.6163 105.721 29.0611C106.147 29.506 106.359 30.0464 106.359 30.6856C106.359 31.3315 106.147 31.8752 105.721 32.3168C105.294 32.7583 104.782 32.9791 104.183 32.9791C103.519 32.9791 103.009 32.7352 102.652 32.2476V34.6102H101.707V28.5075H102.652V29.1336C103.006 28.6426 103.519 28.3955 104.183 28.3955ZM103.046 31.6841C103.307 31.9477 103.638 32.0795 104.034 32.0795C104.431 32.0795 104.762 31.9477 105.023 31.6841C105.284 31.4205 105.417 31.0877 105.417 30.6856C105.417 30.2836 105.284 29.9508 105.023 29.6872C104.762 29.4236 104.431 29.2918 104.034 29.2918C103.638 29.2918 103.307 29.4236 103.046 29.6872C102.785 29.9508 102.652 30.2836 102.652 30.6856C102.652 31.0877 102.781 31.4205 103.046 31.6841Z" fill="white"/>
<path d="M111.676 28.5078V32.864H110.757V29.9972L109.497 31.9941H109.385L108.135 30.0071V32.864H107.216V28.5078H108.178L109.444 30.5211L110.711 28.5078H111.676Z" fill="white"/>
<path d="M116.23 28.5075H117.175V32.8638H116.23V32.2377C115.873 32.732 115.363 32.9791 114.699 32.9791C114.097 32.9791 113.584 32.7583 113.161 32.3135C112.735 31.8686 112.523 31.3282 112.523 30.6889C112.523 30.0431 112.735 29.5027 113.161 29.0578C113.588 28.6163 114.1 28.3955 114.699 28.3955C115.363 28.3955 115.873 28.6394 116.23 29.127V28.5075ZM113.862 31.6841C114.123 31.9477 114.454 32.0795 114.851 32.0795C115.248 32.0795 115.578 31.9477 115.84 31.6841C116.101 31.4205 116.233 31.0877 116.233 30.6857C116.233 30.2836 116.101 29.9508 115.84 29.6872C115.578 29.4236 115.248 29.2918 114.851 29.2918C114.454 29.2918 114.123 29.4236 113.862 29.6872C113.601 29.9508 113.469 30.2836 113.469 30.6857C113.469 31.0877 113.598 31.4205 113.862 31.6841Z" fill="white"/>
<path d="M120.75 28.3955C121.348 28.3955 121.864 28.6163 122.287 29.0611C122.714 29.506 122.925 30.0464 122.925 30.6856C122.925 31.3315 122.714 31.8752 122.287 32.3168C121.861 32.7583 121.348 32.9791 120.75 32.9791C120.085 32.9791 119.576 32.7352 119.219 32.2476V34.6102H118.273V28.5075H119.219V29.1336C119.576 28.6426 120.088 28.3955 120.75 28.3955ZM119.615 31.6841C119.877 31.9477 120.207 32.0795 120.604 32.0795C121.001 32.0795 121.332 31.9477 121.593 31.6841C121.854 31.4205 121.986 31.0877 121.986 30.6856C121.986 30.2836 121.854 29.9508 121.593 29.6872C121.332 29.4236 121.001 29.2918 120.604 29.2918C120.207 29.2918 119.877 29.4236 119.615 29.6872C119.354 29.9508 119.222 30.2836 119.222 30.6856C119.222 31.0877 119.351 31.4205 119.615 31.6841Z" fill="white"/>
<path d="M127.651 32.864H126.523L124.731 30.8506V32.864H123.785V28.5078H124.731V30.4321L126.427 28.5078H127.581L125.657 30.643L127.651 32.864Z" fill="white"/>
<path d="M128.682 31.0874C128.751 31.4169 128.914 31.674 129.161 31.8486C129.413 32.0265 129.717 32.1155 130.081 32.1155C130.583 32.1155 130.957 31.9343 131.208 31.5751L131.985 32.0265C131.552 32.6592 130.917 32.9756 130.071 32.9756C129.36 32.9756 128.785 32.7581 128.348 32.3264C127.912 31.8947 127.693 31.3444 127.693 30.6821C127.693 30.033 127.908 29.486 128.341 29.0477C128.771 28.6094 129.327 28.3887 130.001 28.3887C130.643 28.3887 131.169 28.6127 131.579 29.0609C131.989 29.509 132.194 30.0527 132.194 30.692C132.194 30.7909 132.18 30.9227 132.157 31.0841H128.682V31.0874ZM128.672 30.3196H131.241C131.179 29.9638 131.03 29.6969 130.798 29.5189C130.567 29.3377 130.299 29.2487 129.988 29.2487C129.638 29.2487 129.347 29.3443 129.115 29.5354C128.887 29.7265 128.738 29.9901 128.672 30.3196Z" fill="white"/>
<path d="M136.191 28.5078V29.4139H134.766V32.864H133.82V29.4139H132.385V28.5078H136.191Z" fill="white"/>
</g>
<defs>
<clipPath id="clip0">
<rect width="157" height="40" fill="white"/>
</clipPath>
</defs>
</svg>
