<svg width="218" height="37" viewBox="0 0 218 37" fill="none" xmlns="http://www.w3.org/2000/svg">
<path fill-rule="evenodd" clip-rule="evenodd" d="M57.2147 9.44889V16.4532H64.6869V9.44889H68.7432V27.7006H64.6869L64.6831 19.8266H57.2147V27.7006L53.1584 27.6963V9.44889H57.2147ZM82.7776 20.6449L80.4539 13.9484H80.3975L77.9957 20.6449H82.7782H82.7776ZM82.5455 9.44943L89.4451 27.7006L85.2364 27.6963L83.84 23.6349H76.9334L75.4898 27.7006L71.4031 27.6963L78.3851 9.44943H82.5461H82.5455ZM99.2968 18.0366C99.761 18.0366 100.21 18.0029 100.641 17.9364C101.071 17.8667 101.452 17.7364 101.778 17.5369C102.103 17.3444 102.369 17.0634 102.567 16.7079C102.763 16.3497 102.863 15.8831 102.863 15.3019C102.863 14.7249 102.762 14.2551 102.567 13.8964C102.369 13.5409 102.103 13.2599 101.778 13.0642C101.452 12.8717 101.071 12.7381 100.637 12.6679C100.194 12.6003 99.7458 12.5669 99.2974 12.5682H96.1429V18.0366H99.2968ZM100.409 9.44889C101.561 9.44889 102.545 9.61566 103.353 9.94866C104.165 10.2817 104.823 10.7182 105.332 11.2656C105.833 11.801 106.211 12.4373 106.44 13.1307C106.675 13.8294 106.787 14.5511 106.787 15.3019C106.789 16.0359 106.672 16.7655 106.44 17.4629C106.213 18.1603 105.835 18.8004 105.332 19.3386C104.823 19.8861 104.165 20.3226 103.353 20.6561C102.545 20.9891 101.561 21.1559 100.409 21.1559H96.1429V27.7006L92.079 27.6963V9.44889H100.409ZM117.572 18.0366C118.036 18.0366 118.485 18.0029 118.915 17.9364C119.346 17.8667 119.727 17.7331 120.052 17.5369C120.378 17.3444 120.643 17.0634 120.842 16.7079C121.037 16.3497 121.137 15.8831 121.137 15.3019C121.137 14.7249 121.04 14.2514 120.842 13.8964C120.643 13.5409 120.378 13.2599 120.049 13.0642C119.727 12.8717 119.346 12.7381 118.915 12.6679C118.471 12.6004 118.022 12.567 117.572 12.5682H114.418V18.0366H117.572ZM118.683 9.44889C119.835 9.44889 120.819 9.61566 121.628 9.94866C122.44 10.2817 123.097 10.7182 123.603 11.2656C124.108 11.7998 124.488 12.4363 124.718 13.1307C124.95 13.8294 125.066 14.5511 125.066 15.3019C125.066 16.0349 124.95 16.7561 124.718 17.4629C124.49 18.1613 124.109 18.8016 123.603 19.3386C123.098 19.8861 122.44 20.3264 121.628 20.6561C120.819 20.9891 119.835 21.1559 118.683 21.1559H114.418V27.6963H110.358V9.44889H118.683ZM126.645 9.44889H131.191L135.509 16.6559L139.801 9.44889H144.325L137.473 20.6969V27.7006L133.417 27.6963L133.413 20.5934L126.645 9.44889ZM150.97 9.44889L150.966 24.3261H159.961V27.6963L146.91 27.7006V9.44889H150.97ZM177.071 9.44889V12.8229H167.329V16.7341H176.275V19.8496H167.329V24.3261H177.281V27.6963H163.272V9.44889H177.071ZM185.086 9.44889L192.79 21.6921H192.839V9.44889H196.64V27.6969L192.581 27.7006L184.907 15.4799H184.854V27.7006H181.056V9.44889H185.086ZM208.92 24.3261C209.504 24.3261 210.073 24.2296 210.623 24.0414C211.176 23.8558 211.663 23.5459 212.097 23.1121C212.527 22.6767 212.872 22.1099 213.134 21.4101C213.392 20.7119 213.519 19.8604 213.519 18.8539C213.519 17.9364 213.429 17.1041 213.25 16.3641C213.066 15.6204 212.771 14.9876 212.355 14.4584C211.944 13.9296 211.394 13.5264 210.713 13.2449C210.036 12.9639 209.194 12.8234 208.194 12.8234H205.302V24.3261H208.92ZM209.201 9.44889C210.391 9.44889 211.499 9.63765 212.524 10.0114C213.549 10.3889 214.439 10.9477 215.188 11.6984C215.937 12.4459 216.52 13.3859 216.946 14.5104C217.366 15.6349 217.579 16.9556 217.579 18.4694C217.579 19.8014 217.406 21.0261 217.062 22.1506C216.718 23.2756 216.194 24.2484 215.498 25.0666C214.799 25.8833 213.931 26.5273 212.886 26.9976C211.843 27.4641 210.616 27.7006 209.201 27.7006L201.239 27.6963V9.44889H209.201ZM34.9239 27.1118C34.9353 27.7124 34.9315 28.3291 34.9315 28.9297C34.9277 29.1763 34.9277 29.4246 34.9277 29.6756V32.1401C34.9315 33.3686 34.5606 34.3783 33.7943 35.2299C32.7721 36.3693 31.4896 36.8804 29.988 36.7388C27.9642 36.5511 26.3482 35.0631 25.9729 33.0399C25.9324 32.8398 25.911 32.6364 25.9089 32.4323C25.9035 30.7041 25.9013 28.8664 25.9089 27.0314C25.9187 25.1734 27.1036 23.4976 28.8622 22.8649C29.3592 22.6822 29.8851 22.5882 30.4153 22.5871C31.2215 22.5888 32.0123 22.8049 32.7049 23.2129C33.7829 23.8526 34.5308 24.8859 34.8117 26.1246C34.8789 26.4163 34.9125 26.7493 34.9239 27.1118ZM34.8301 4.56168C34.8523 4.76169 34.8681 4.95742 34.8681 5.15368C34.8667 6.27916 34.4647 7.36826 33.7327 8.23008C33.0007 9.0919 31.9852 9.67145 30.8644 9.86715C30.2345 9.97882 29.5885 9.96514 28.9641 9.82691C28.3397 9.68867 27.7494 9.42866 27.2279 9.06209C26.7063 8.69552 26.264 8.22976 25.9267 7.69207C25.5894 7.15438 25.364 6.55557 25.2636 5.93068C24.852 3.37017 26.5385 0.975894 29.1019 0.480952C29.2435 0.450923 29.3866 0.432691 29.5319 0.410169L29.7125 0.388184H30.3513L30.5493 0.417676C30.7103 0.443952 30.8752 0.465937 31.0287 0.499184C32.013 0.696862 32.9096 1.19543 33.5917 1.92443C34.2739 2.65342 34.7071 3.57597 34.8301 4.56168ZM34.8155 14.4182C34.9912 15.4466 34.6506 16.3529 33.8052 17.1041C31.9305 18.7681 29.9886 20.0786 27.8633 21.1076C25.8094 22.1045 23.6116 22.7804 21.3483 23.1115C19.3185 23.4038 17.2377 23.4081 15.1613 23.1309C11.8555 22.6836 8.72217 21.6026 5.57527 19.8261C4.07475 18.9831 2.79712 18.1101 1.67079 17.1588C1.04607 16.6301 0.690331 16.0124 0.580788 15.2606C0.574281 15.2316 0.568858 15.1978 0.55747 15.1758L0.559639 14.5538L0.574281 14.4916C0.593261 14.4101 0.606818 14.3286 0.632306 14.2503C0.965271 13.0299 1.81504 12.2271 3.15015 11.8684C4.53516 11.4946 5.77157 11.7354 6.83066 12.5896C8.93474 14.2803 11.2774 15.5271 13.7866 16.3003C15.4124 16.7969 17.049 17.0221 18.6455 16.9744C20.2575 16.919 21.8459 16.5741 23.333 15.9566C24.8802 15.3276 26.352 14.4283 27.8297 13.2186C27.942 13.1264 28.0542 13.0299 28.1665 12.9339C28.3948 12.7376 28.6149 12.5494 28.8514 12.3901C29.9441 11.6539 31.3578 11.4984 32.6376 11.9794C33.8122 12.4234 34.6278 13.3334 34.8155 14.4176V14.4182ZM10.0822 4.65015C10.1104 4.85392 10.1196 5.04965 10.1196 5.24591C10.1196 7.54366 8.46024 9.55292 6.12298 9.95939C3.45926 10.4222 0.943037 8.65742 0.522221 6.02344C0.318272 4.80004 0.604395 3.5462 1.31988 2.52795C2.03537 1.5097 3.12392 0.807178 4.35457 0.56943C4.49882 0.542618 4.64524 0.524387 4.78732 0.505618L4.96628 0.476126H5.60455L5.80682 0.509372C5.96788 0.531894 6.12677 0.557633 6.28566 0.587126C7.26898 0.785804 8.16437 1.28481 8.84547 2.01372C9.52657 2.74263 9.95898 3.66464 10.0817 4.64962L10.0822 4.65015ZM9.42497 27.1118C9.43853 27.7124 9.4369 28.3291 9.43311 28.9297V29.6756L9.43148 30.4349C9.43148 31.0006 9.43148 31.5701 9.43311 32.1444C9.4369 33.3686 9.06435 34.3751 8.29755 35.2299C7.26666 36.3693 5.97764 36.8804 4.46574 36.7388C2.43216 36.5511 0.812346 35.0631 0.428405 33.0356C0.391468 32.8365 0.370974 32.6347 0.367127 32.4323C0.363331 30.7083 0.357365 28.8664 0.367127 27.0314C0.373881 26.1205 0.661828 25.2334 1.19243 24.4888C1.72303 23.7442 2.47097 23.1776 3.33616 22.8649C3.96521 22.6338 4.63865 22.5451 5.30694 22.6053C5.97522 22.6656 6.62135 22.8732 7.19779 23.2129C8.28074 23.8526 9.03615 24.8859 9.31706 26.1246C9.3856 26.4494 9.42193 26.7801 9.42552 27.1118" fill="#E87E3A"/>
</svg>
