<svg width="195" height="39" viewBox="0 0 195 39" fill="none" xmlns="http://www.w3.org/2000/svg">
<path d="M188.313 7.55713L181.659 14.8382V7.55713H176.844V25.9396H181.659V18.2015L188.781 25.9396H195V25.9394L186.239 16.3075L194.365 7.55713H188.313Z" fill="#EF3124"/>
<path d="M168.353 14.4138H161.7V7.55713H156.884V25.9396H161.7V18.6909H168.353V25.9396H173.168V7.55713H168.353V14.4138Z" fill="#EF3124"/>
<path d="M28.5887 17.5154C28.4736 20.9429 28.0205 21.6295 26.0477 21.6295V25.9393H26.7832C31.7045 25.9393 32.888 23.4576 33.0695 17.9401L33.2699 11.8343H37.8842V25.9393H42.6993V7.55713H28.9232L28.5887 17.5154Z" fill="#EF3124"/>
<path d="M54.299 21.8906H51.1894V17.2214H54.299C55.971 17.2214 56.9741 17.9398 56.9741 19.4742C56.9741 21.1395 56.0044 21.8906 54.299 21.8906ZM54.6668 13.14H51.1894V7.55664H46.3746V25.9391H54.734C59.9833 25.9391 61.8558 22.6088 61.8558 19.4742C61.8558 15.4257 59.2479 13.14 54.6668 13.14Z" fill="#EF3124"/>
<path d="M77.538 21.9235V11.5405C80.213 11.8996 81.8846 13.8586 81.8846 16.7318C81.8846 19.6051 80.213 21.5641 77.538 21.9235ZM72.7232 21.9235C70.0481 21.5641 68.3762 19.6051 68.3762 16.7318C68.3762 13.8586 70.0481 11.8996 72.7232 11.5405V21.9235ZM77.538 7.13239V0.308105H72.7232V7.13239C67.2061 7.58947 63.4943 11.4098 63.4943 16.7318C63.4943 22.0865 67.2061 25.9069 72.7232 26.3637V33.2862H77.538V26.3637C83.055 25.9393 86.7666 22.0865 86.7666 16.7318C86.7666 11.3772 83.055 7.5568 77.538 7.13239Z" fill="#EF3124"/>
<path d="M100.008 19.0825C100.008 21.2049 98.4699 22.4131 96.4634 22.4131C94.7248 22.4131 93.3539 21.7926 93.3539 19.9641C93.3539 18.1683 94.8584 17.8746 96.1626 17.8746H100.008V19.0825ZM104.823 20.2907V14.1198C104.823 9.61399 101.88 6.77295 96.9318 6.77295C91.8158 6.77295 89.1074 9.77705 88.8732 12.9117H93.7551C93.9222 12.2259 94.6579 11.0506 96.9318 11.0506C98.8041 11.0506 100.008 11.8994 100.008 14.1198H95.2264C90.9463 14.1198 88.4049 16.3073 88.4049 19.9641C88.4049 23.7844 91.1848 26.3965 95.1929 26.3965C98.1318 26.3965 99.7633 25.0402 100.476 24.0128C101.111 25.2534 102.515 25.9392 104.354 25.9392H106.026V21.6947C105.157 21.6947 104.823 21.3029 104.823 20.2907Z" fill="#EF3124"/>
<path d="M125.219 21.303H120.07V14.6421H125.219C127.894 14.6421 129.399 15.8503 129.399 17.9724C129.399 20.1602 127.894 21.303 125.219 21.303ZM125.454 10.1686H120.07V4.97735H132.542V0.308105H115.021V25.9393H125.454C131.238 25.9393 134.548 23.1314 134.548 17.9724C134.548 13.1078 131.238 10.1686 125.454 10.1686Z" fill="#EF3124"/>
<path d="M148.157 19.0825C148.157 21.2049 146.619 22.4131 144.613 22.4131C142.874 22.4131 141.503 21.7926 141.503 19.9641C141.503 18.1683 143.008 17.8746 144.312 17.8746H148.157V19.0825ZM152.972 20.2907V14.1198C152.972 9.61399 150.03 6.77295 145.081 6.77295C139.965 6.77295 137.257 9.77705 137.023 12.9117H141.905C142.072 12.2259 142.807 11.0506 145.081 11.0506C146.954 11.0506 148.157 11.8994 148.157 14.1198H143.376C139.096 14.1198 136.555 16.3073 136.555 19.9641C136.555 23.7844 139.334 26.3965 143.342 26.3965C146.281 26.3965 147.913 25.0402 148.625 24.0128C149.261 25.2534 150.665 25.9392 152.504 25.9392H154.176V21.6947C153.306 21.6947 152.972 21.3029 152.972 20.2907Z" fill="#EF3124"/>
<path d="M25.7466 39.0002H0V33.7759H25.7466V39.0002Z" fill="#EF3124"/>
<path d="M9.1952 16.2421L12.8065 5.76107H12.94L16.3508 16.2421H9.1952ZM17.5532 3.82634C16.8191 1.68857 15.9731 0 13.0738 0C10.1748 0 9.27418 1.68175 8.50149 3.82634L0.535004 25.9393H5.81821L7.65711 20.6826H17.8219L19.5271 25.9393H25.1448L17.5532 3.82634Z" fill="#EF3124"/>
</svg>
