<svg width="179" height="53" viewBox="0 0 179 53" fill="none" xmlns="http://www.w3.org/2000/svg">
<path fill-rule="evenodd" clip-rule="evenodd" d="M49.2606 32.9247V28.3234V27.6077L48.6697 27.1987L47.1053 26.108L46.6186 25.7672L47.0705 25.3923L48.6349 24.0631L49.1564 23.62L49.2954 23.1087L49.0173 22.4951L47.4877 18.6437L47.4529 18.5754V18.5073V16.0873V15.5079L47.0357 15.099V15.099L45.3323 13.429L45.1933 13.2927V13.0882V10.7024V10.123L44.7762 9.71396L40.9869 5.93068L40.9521 5.8625L37.719 2.69269L37.3019 2.2837L36.7108 2.28352H35.1812H34.9726L34.8336 2.14724L33.0954 0.443087L32.6781 0H32.0872H26.9421H26.7336L23.2223 3.4424V3.64689V13.872L20.3369 13.0881V8.62314C20.5108 8.55495 20.6499 8.45273 20.7541 8.31635C21.0322 8.04367 21.2408 7.63467 21.2408 7.19159C21.2408 6.7485 21.067 6.37361 20.7541 6.06683C20.476 5.79414 20.0588 5.58963 19.6069 5.58963C19.155 5.58963 18.7726 5.76004 18.4597 6.06683C18.1815 6.33951 17.973 6.7485 17.973 7.19159C17.973 7.63467 18.1468 8.00957 18.4597 8.31635C18.5987 8.45266 18.7378 8.55495 18.8768 8.62314V10.5659L16.5128 9.91831C16.4433 9.5775 16.3042 9.27073 16.0609 9.06622C15.7828 8.79354 15.3656 8.58905 14.9137 8.58905C14.4617 8.58905 14.0794 8.75944 13.7665 9.06622C13.4883 9.3389 13.2797 9.7479 13.2797 10.191C13.2797 10.6341 13.4535 11.009 13.7665 11.3157C14.0446 11.5884 14.4617 11.7929 14.9137 11.7929C15.3656 11.7929 15.748 11.6225 16.0609 11.3157L16.0957 11.2816H16.1304L18.8768 12.0315V13.5312C18.8073 13.872 19.0158 14.247 19.3983 14.3492L23.1876 15.3716V17.6894C23.1528 17.7235 23.0832 17.7235 23.0485 17.7576L18.6335 21.1659L15.9914 21.1659C15.9219 21.0296 15.8176 20.8591 15.6785 20.7569C15.4004 20.4842 14.9832 20.2797 14.5313 20.2797C14.0794 20.2797 13.697 20.4501 13.3841 20.7569C13.1059 21.0296 12.8974 21.4385 12.8974 21.8816C12.8974 22.3247 13.0712 22.6996 13.3841 23.0064C13.6622 23.2791 14.0794 23.4836 14.5313 23.4836C14.9832 23.4836 15.3656 23.3132 15.6785 23.0064C15.7828 22.9041 15.8871 22.7337 15.9914 22.5974H18.8768C19.0506 22.5974 19.2244 22.5292 19.3635 22.3929L23.1876 19.4617V20.2116V21.4726L23.6395 21.9157H25.6211L26.073 21.4726V20.2116V14.4174L29.5147 13.0199C29.6885 12.9858 29.8623 12.8836 29.9666 12.7131C30.0362 12.6108 30.071 12.4745 30.071 12.3382L30.2448 10.6341L32.852 10.5659C32.9564 10.5659 33.0606 10.5318 33.1649 10.4977L34.6945 9.71381C34.7293 9.67971 34.7641 9.67971 34.8336 9.64561C35.1117 9.81602 35.3898 9.88421 35.7026 9.88421C36.1198 9.88421 36.537 9.71381 36.8151 9.40702C37.128 9.10023 37.267 8.69124 37.267 8.28226C37.267 7.87327 37.0932 7.46428 36.7803 7.19159C36.4674 6.8848 36.0502 6.7485 35.6331 6.7485C35.2159 6.7485 34.7988 6.9189 34.5207 7.22569C34.2077 7.53246 34.0687 7.94146 34.0687 8.35045C34.0687 8.38455 34.0687 8.45273 34.0687 8.48676L32.6781 9.16843L30.3837 9.20253L30.488 8.21406C30.488 8.17996 30.488 8.14587 30.488 8.07776C30.6966 8.00957 30.8704 7.87327 31.0095 7.73697C31.2877 7.46428 31.4962 7.05529 31.4962 6.6122C31.4962 6.16912 31.3224 5.79421 31.0095 5.48744C30.7314 5.21475 30.3142 5.01025 29.8623 5.01025C29.4104 5.01025 29.028 5.18065 28.7151 5.48744C28.437 5.76011 28.2284 6.16912 28.2284 6.6122C28.2284 7.05529 28.4022 7.43018 28.7151 7.73697C28.8194 7.83925 28.9237 7.94146 29.0627 8.00964C29.0627 8.00964 29.0627 8.04374 29.0627 8.07784L28.6455 11.827L26.073 12.8836V4.77166V4.56716L26.2121 4.43087L27.7764 2.89711L27.9155 2.7608L28.1241 2.76072H31.2877H31.4962L31.6353 2.93119L33.3734 4.63536L33.7906 5.04435H34.3816H35.9112H36.1198L36.2588 5.18065L38.6575 7.53239L39.0051 7.87318L42.2382 11.1111L42.3772 11.2474V11.4519V13.8718V14.4512L42.7944 14.8602L44.4978 16.5302L44.6368 16.6666V16.8711V18.2685L42.2383 18.2688H41.6821L40.2568 15.2353C40.4653 14.9627 40.6043 14.6218 40.6043 14.281C40.6043 13.8379 40.4306 13.463 40.1176 13.1562C39.8395 12.8835 39.4224 12.679 38.9704 12.679C38.5185 12.679 38.1361 12.8494 37.8232 13.1562C37.5451 13.4289 37.3365 13.8379 37.3365 14.281C37.3365 14.7241 37.5103 15.099 37.8232 15.4057H37.8233C38.1014 15.6784 38.5186 15.8829 38.9705 15.8829L40.5697 19.2572C40.674 19.5299 40.952 19.7003 41.2302 19.7003H41.5082V22.1202L38.4142 24.7106C38.2057 24.6083 37.9971 24.5743 37.7537 24.5743C37.3018 24.5743 36.9194 24.7447 36.6065 25.0514C36.3284 25.3241 36.1198 25.7331 36.1198 26.1762C36.1198 26.6193 36.2936 26.9942 36.6065 27.301C36.8846 27.5737 37.3018 27.7781 37.7537 27.7781C38.2057 27.7781 38.588 27.6078 38.901 27.301C39.1791 27.0283 39.3877 26.6193 39.3877 26.1762C39.3877 26.0399 39.3877 25.9376 39.3529 25.8354L42.6554 23.1087C42.864 22.9724 42.9683 22.7679 42.9683 22.5293V19.8026L44.8456 19.8025L45.8885 22.4951L45.9928 22.8019L45.7495 23.0064L43.3508 25.0173L42.0646 26.108V26.2784L43.4551 27.2328L46.2015 29.1414L46.4101 29.2777V29.5163V32.9247V32.9929V33.0611L46.0277 34.4585L43.1423 33.9132L42.4123 31.8C42.6904 31.5273 42.899 31.1183 42.899 30.6753C42.899 30.2322 42.7252 29.8573 42.4123 29.5505C42.1341 29.2778 41.717 29.0733 41.265 29.0733C40.8131 29.0733 40.4307 29.2437 40.1178 29.5505C39.8397 29.8232 39.6311 30.2322 39.6311 30.6753C39.6311 31.1183 39.8049 31.4932 40.1178 31.8C40.3612 32.0386 40.7088 32.209 41.0565 32.2431L41.8213 34.4244L40.5698 36.2309C40.5351 36.265 40.5003 36.3332 40.5003 36.4013C40.3959 36.3672 40.2917 36.3672 40.1527 36.3672C39.7007 36.3672 39.3184 36.5376 39.0055 36.8444C38.7273 37.1171 38.5187 37.5261 38.5187 37.9691C38.5187 38.4122 38.6925 38.7871 39.0055 39.0939C39.2836 39.3666 39.7007 39.5711 40.1527 39.5711C40.6046 39.5711 40.987 39.4007 41.2999 39.0939C41.578 38.8212 41.7866 38.4122 41.7866 37.9691C41.7866 37.6965 41.7171 37.4579 41.6128 37.2534C41.6824 37.2193 41.7171 37.1511 41.7518 37.083L42.9686 35.3788L45.715 35.8901L44.3244 41.173L44.2896 41.3093L44.1853 41.4116L42.9338 42.6386L42.5167 43.0476V43.627V44.7858V44.9903L42.3776 45.1266L41.3348 46.1491L41.3 46.115L39.0403 43.8996C39.1099 43.7292 39.1446 43.5588 39.1446 43.3542C39.1446 42.9111 38.9708 42.5362 38.6579 42.2294C38.3798 41.9568 37.9627 41.7523 37.5107 41.7523C37.0588 41.7523 36.6764 41.9227 36.3635 42.2294C36.0854 42.5021 35.8768 42.9111 35.8768 43.3542C35.8768 43.7973 36.0506 44.1722 36.3287 44.4449C36.6069 44.7176 37.024 44.9221 37.4759 44.9221C37.6497 44.9221 37.7889 44.888 37.9627 44.8539L40.2571 47.1034L40.2919 47.1375L39.0751 48.3305L38.9361 48.4668L38.7271 48.4668H36.0156H35.4593L35.0421 48.8758L33.7907 50.1028L33.6517 50.2391H33.4431H29.2714L27.4983 50.2392L26.9768 50.6482L29.3755 52.9999L34.2078 53H34.7988L35.2159 52.591L36.4327 51.398L36.5717 51.2617L36.7803 51.2617H39.4919H40.0829L40.5001 50.8527L44.8804 46.5581L44.8803 46.5582L45.2975 46.1492V45.5698V44.411V44.2065L45.4365 44.0702L46.4794 43.0477L46.7575 42.775L46.8619 42.4001L49.1911 33.6406L49.2258 33.4702L49.2606 32.9247ZM15.3657 10.5659C15.2614 10.6682 15.1223 10.7363 14.9485 10.7363C14.7747 10.7363 14.6356 10.6681 14.5314 10.5659C14.4271 10.4636 14.3576 10.3273 14.3576 10.1569C14.3576 9.98649 14.4271 9.85011 14.5314 9.7479C14.6357 9.64561 14.7747 9.5775 14.9485 9.5775C15.1223 9.5775 15.2614 9.64569 15.3657 9.7479C15.47 9.85019 15.5395 9.98649 15.5395 10.1569C15.5395 10.3273 15.47 10.4637 15.3657 10.5659ZM20.024 7.63467C19.9197 7.73697 19.7807 7.80507 19.6069 7.80507C19.4331 7.80507 19.294 7.73687 19.1897 7.63467C19.0854 7.53239 19.0159 7.39609 19.0159 7.22569C19.0159 7.05529 19.0855 6.9189 19.1897 6.8167C19.2941 6.71441 19.4331 6.64628 19.6069 6.64628C19.7807 6.64628 19.9198 6.71448 20.024 6.8167C20.1284 6.91898 20.1978 7.05529 20.1978 7.22569C20.1979 7.36206 20.1284 7.53246 20.024 7.63467ZM14.9833 22.2565C14.879 22.3588 14.74 22.4269 14.5662 22.4269C14.3924 22.4269 14.2532 22.3587 14.149 22.2565C14.0447 22.1543 13.9752 22.0179 13.9752 21.8475C13.9752 21.6771 14.0448 21.5408 14.149 21.4385C14.2533 21.3363 14.3924 21.2682 14.5662 21.2682C14.74 21.2682 14.8791 21.3363 14.9833 21.4385C15.0876 21.5408 15.1571 21.6771 15.1571 21.8475C15.1571 22.0179 15.0876 22.1543 14.9833 22.2565ZM35.2507 7.90737C35.355 7.80507 35.4941 7.73697 35.6679 7.73697C35.8069 7.73697 35.9808 7.77105 36.085 7.90737C36.1894 8.00964 36.2588 8.18006 36.2588 8.31635C36.2588 8.45266 36.2241 8.62314 36.085 8.72534C35.9807 8.82764 35.8417 8.89575 35.6679 8.89575C35.5289 8.89575 35.355 8.86165 35.2507 8.72534C35.1464 8.62304 35.0769 8.45266 35.0769 8.31635C35.0769 8.14596 35.1464 8.00964 35.2507 7.90737ZM29.5146 6.2373C29.619 6.13502 29.758 6.0669 29.9318 6.0669C30.1056 6.0669 30.2447 6.13509 30.3489 6.2373C30.4533 6.33959 30.5227 6.47589 30.5227 6.64628C30.5227 6.8167 30.4532 6.95308 30.3489 7.05529C30.2446 7.15757 30.1056 7.22569 29.9318 7.22569C29.758 7.22569 29.6189 7.1575 29.5146 7.05529C29.4103 6.953 29.3408 6.8167 29.3408 6.64628C29.3408 6.50992 29.3756 6.33951 29.5146 6.2373ZM39.3877 14.6218C39.2833 14.7241 39.1443 14.7923 38.9705 14.7923C38.7967 14.7923 38.6576 14.7241 38.5534 14.6218C38.449 14.5196 38.3796 14.3833 38.3796 14.2129C38.3796 14.0425 38.4491 13.9061 38.5534 13.8039C38.6577 13.7016 38.7967 13.6335 38.9705 13.6335C39.1443 13.6335 39.2834 13.7017 39.3877 13.8039C39.492 13.9062 39.5615 14.0425 39.5615 14.2129C39.5615 14.3833 39.4919 14.5196 39.3877 14.6218ZM38.1709 26.4488C38.0666 26.5511 37.9275 26.6192 37.7537 26.6192C37.5799 26.6192 37.4408 26.551 37.3366 26.4488C37.2322 26.3465 37.1628 26.2102 37.1628 26.0398C37.1628 25.8694 37.2323 25.733 37.3366 25.6308C37.4409 25.5285 37.5799 25.4604 37.7537 25.4604C37.9275 25.4604 38.0666 25.5286 38.1709 25.6308C38.2752 25.7331 38.3447 25.8694 38.3447 26.0398C38.3447 26.2102 38.2752 26.3466 38.1709 26.4488ZM40.5696 38.0373C40.4652 38.1395 40.3262 38.2077 40.1524 38.2077C39.9786 38.2077 39.8395 38.1395 39.7353 38.0373C39.6309 37.935 39.5615 37.7987 39.5615 37.6283C39.5615 37.4579 39.631 37.3215 39.7353 37.2193C39.8396 37.117 39.9786 37.0489 40.1524 37.0489C40.3262 37.0489 40.4653 37.1171 40.5696 37.2193C40.6739 37.3216 40.7434 37.4579 40.7434 37.6283C40.7435 37.7987 40.6739 37.935 40.5696 38.0373ZM41.7168 30.8116C41.6125 30.9139 41.4734 30.982 41.2996 30.982C41.1258 30.982 40.9867 30.9138 40.8825 30.8116C40.7782 30.7093 40.7087 30.573 40.7087 30.4026C40.7087 30.2322 40.7782 30.0958 40.8825 29.9936C40.9868 29.8913 41.1258 29.8232 41.2996 29.8232C41.4734 29.8232 41.6125 29.8914 41.7168 29.9936C41.8211 30.0959 41.8906 30.2322 41.8906 30.4026C41.8907 30.5389 41.8211 30.7093 41.7168 30.8116ZM37.8928 43.3884C37.7884 43.4907 37.6494 43.5588 37.4756 43.5588C37.3018 43.5588 37.1627 43.4906 37.0585 43.3884C36.9541 43.2861 36.8846 43.1498 36.8846 42.9794C36.8846 42.809 36.9542 42.6726 37.0585 42.5704C37.1628 42.4681 37.3018 42.4 37.4756 42.4C37.6494 42.4 37.7885 42.4682 37.8928 42.5704C37.9971 42.6727 38.0666 42.809 38.0666 42.9794C38.0666 43.1157 37.9971 43.2861 37.8928 43.3884Z" fill="#4C5D6E"/>
<path fill-rule="evenodd" clip-rule="evenodd" d="M33.6516 30.4023L33.2344 30.8454V31.7997V33.6743V39.639V40.6274L33.6168 41.0023H34.5207L34.8336 40.5592L37.2323 31.4589L36.8151 30.4023H36.3632H34.4512H33.6516Z" fill="#4C5D6E"/>
<path fill-rule="evenodd" clip-rule="evenodd" d="M36.8499 21.5069L34.8336 12.7815L34.5207 12.3384H33.6168L33.2344 12.7474V13.7017V19.2915V21.166V22.1204L33.6516 22.5635H34.4512H35.9808H36.4327L36.8499 21.5069Z" fill="#4C5D6E"/>
<path fill-rule="evenodd" clip-rule="evenodd" d="M28.6803 40.0141V43.5588C28.6803 43.7633 28.7846 43.9678 28.9237 44.1042L30.0013 45.1266C30.0361 45.1607 30.0709 45.1948 30.1404 45.2289C30.1056 45.3312 30.1056 45.4675 30.1056 45.5697C30.1056 46.0128 30.2794 46.3877 30.5923 46.6945C30.8704 46.9672 31.2876 47.1717 31.7395 47.1717C32.1914 47.1717 32.5738 47.0013 32.8867 46.6945C33.1649 46.4218 33.3734 46.0128 33.3734 45.5697C33.3734 45.1266 33.1996 44.7517 32.8867 44.445C32.6086 44.1723 32.1914 43.9678 31.7395 43.9678C31.4962 43.9678 31.2876 44.036 31.079 44.1041L31.0442 44.07L30.1751 43.2179V34.9697C30.3142 34.9015 30.4533 34.7993 30.5575 34.697C30.8357 34.4243 31.0442 34.0153 31.0442 33.5722C31.0442 33.1291 30.8704 32.7542 30.5575 32.4474C30.2794 32.1747 29.8622 31.9702 29.4103 31.9702C28.9584 31.9702 28.576 32.1407 28.2631 32.4474C27.9849 32.7201 27.7764 33.1291 27.7764 33.5722C27.7764 34.0153 27.9502 34.3902 28.2631 34.697C28.4021 34.8333 28.5412 34.9356 28.715 35.0038V38.5826L26.0731 38.5826V29.6186H29.3756C29.4104 29.6186 29.4104 29.6186 29.4452 29.6186C29.619 29.6186 29.7581 29.5504 29.8971 29.4141L31.8092 27.5395C31.9482 27.5736 32.0873 27.6077 32.2263 27.6077C32.6782 27.6077 33.0606 27.4373 33.3735 27.1305C33.6517 26.8578 33.8602 26.4488 33.8602 26.0057C33.8602 25.5626 33.6864 25.1877 33.3735 24.881C33.0954 24.6083 32.6782 24.4038 32.2263 24.4038C32.0525 24.4038 31.8787 24.4379 31.7048 24.5061L30.1057 22.9382V18.8482C30.2795 18.78 30.4186 18.6778 30.5228 18.5414C30.801 18.2688 31.0095 17.8598 31.0095 17.4167C31.0095 16.9736 30.8357 16.5987 30.5228 16.2919C30.2447 16.0192 29.8275 15.8147 29.3756 15.8147C28.9237 15.8147 28.5413 15.9851 28.2284 16.2919C27.9503 16.5646 27.7417 16.9736 27.7417 17.4167C27.7417 17.8598 27.9155 18.2347 28.2284 18.5414C28.3674 18.6777 28.5065 18.78 28.6455 18.8482V23.1428C28.6108 23.2791 28.6455 23.4155 28.7151 23.5518C28.7846 23.6881 28.8541 23.7904 28.9585 23.8586L30.6618 25.5286C30.5923 25.699 30.5923 25.8694 30.5923 26.0399C30.5923 26.2444 30.6271 26.4489 30.6966 26.6193L29.0627 28.2212L26.0731 28.2212V26.7896V25.8352L25.6211 25.3921L24.6477 25.3922H14.0447H12.1674H11.194L10.742 25.8353V26.7897V28.6302V33.1293V33.9132V34.4926L11.1592 34.9016L11.7155 35.4469L16.3043 36.9466L16.8258 36.5035L16.1305 35.8218L13.7319 33.4701L13.5928 33.3338V33.1293L13.5927 28.6302V28.153H14.0795H22.7704H23.2571V28.6302V33.2656H20.7889L19.4331 32.0385L19.3983 32.0044C19.4331 31.9022 19.4331 31.7659 19.4331 31.6636C19.4331 31.2206 19.2593 30.8457 18.9812 30.573C18.703 30.3003 18.2859 30.0958 17.8339 30.0958C17.382 30.0958 16.9996 30.2662 16.6867 30.573C16.4086 30.8457 16.2 31.2547 16.2 31.6977C16.2 32.1408 16.3738 32.5157 16.6867 32.7884C16.9649 33.0611 17.382 33.2656 17.8339 33.2656C18.0773 33.2656 18.2859 33.2315 18.4944 33.1293L19.7112 34.3223V37.7987L18.3207 39.1621C18.1469 39.0939 17.9383 39.0598 17.7297 39.0598C17.2778 39.0598 16.8954 39.2302 16.6173 39.537C16.3391 39.8097 16.1305 40.2187 16.1305 40.6618C16.1305 41.1048 16.3043 41.4797 16.6173 41.7865C16.8954 42.0592 17.3125 42.2637 17.7297 42.2637C18.1816 42.2637 18.564 42.0933 18.8769 41.7865C19.155 41.5138 19.3636 41.1048 19.3636 40.6618C19.3636 40.5255 19.3288 40.3891 19.2941 40.2528L19.3288 40.2187L20.8237 38.7531C21.0322 38.6168 21.1713 38.3782 21.1713 38.1055V34.7653L23.2224 34.7652V47.8874V48.0919L23.0833 48.2282L21.519 49.762L21.3799 49.8983L21.1713 49.8984H18.5292V47.7171L19.3983 46.865C19.4331 46.8309 19.4679 46.7968 19.5026 46.7287C19.6417 46.7628 19.8156 46.7969 19.9894 46.7969C20.4413 46.7969 20.8237 46.6265 21.1366 46.3197C21.4147 46.047 21.6233 45.638 21.6233 45.1949C21.6233 44.7518 21.4495 44.3769 21.1366 44.0702C20.8584 43.7975 20.4413 43.593 19.9894 43.593C19.5374 43.593 19.155 43.7634 18.8769 44.0361C18.5988 44.3087 18.3902 44.7177 18.3902 45.1608C18.3902 45.3653 18.425 45.5357 18.4945 45.7062C18.4598 45.7403 18.425 45.7403 18.3902 45.7744L17.7992 46.3538L15.1224 43.7294C15.0877 43.6953 15.0529 43.6612 15.0181 43.6271C14.8443 43.5248 14.6705 43.4567 14.4618 43.4908L12.1326 43.4906L10.7073 40.4572C10.9506 40.1845 11.0896 39.8437 11.0896 39.4347C11.0896 38.9916 10.9158 38.6167 10.6029 38.344C10.3248 38.0714 9.90765 37.8668 9.45571 37.8668C9.00378 37.8668 8.6214 38.0373 8.3085 38.344C8.03037 38.6167 7.82179 39.0257 7.82179 39.4347C7.82179 39.8778 7.9956 40.2527 8.3085 40.5254C8.58663 40.7981 8.96901 40.9685 9.38616 41.0026L10.9505 44.3428C11.0201 44.5472 11.1591 44.7176 11.3329 44.7858C11.4373 44.854 11.5763 44.854 11.7153 44.854L14.2185 44.854L17.0344 47.6148V49.7961H15.7481H15.5395L15.4005 49.6598L14.149 48.4328L13.7319 48.0238L13.1408 48.0237H10.4292H10.2206L10.0816 47.8874L6.81376 44.6835L6.67473 44.5472V44.3428V43.1839V42.6045L6.25758 42.1955L6.25749 42.1954L5.00603 40.9685L4.90169 40.8662L4.86692 40.7299L2.85061 32.8225V32.7543V32.6861V32.243L5.31885 33.3678V33.4019C5.31885 33.845 5.49265 34.2199 5.80556 34.4926C6.0837 34.7652 6.50085 34.9697 6.95279 34.9697C7.40472 34.9697 7.78709 34.7993 8.10001 34.4926C8.37814 34.2199 8.58672 33.8109 8.58672 33.3678C8.58672 32.9247 8.41291 32.5498 8.10001 32.243C7.82187 31.9703 7.40472 31.7659 6.95279 31.7659C6.60518 31.7659 6.29228 31.8681 6.01414 32.0726L2.88538 30.6752V22.3247V22.1202L3.02441 21.9839L4.79737 20.2457L5.21452 19.8367V19.2573V18.8142L7.40472 18.8141L8.34336 21.1659C8.34336 21.2 8.37814 21.234 8.41291 21.2681L6.11848 23.5177C5.97945 23.654 5.90989 23.8245 5.90989 23.9949V23.9948V25.5967C5.77087 25.6649 5.59699 25.7671 5.49274 25.9035C5.21461 26.1762 5.00603 26.5852 5.00603 27.0283C5.00603 27.4714 5.17984 27.8463 5.49274 28.153C5.77087 28.4257 6.18803 28.6302 6.63996 28.6302C7.0919 28.6302 7.47428 28.4598 7.78718 28.153C8.06531 27.8804 8.27389 27.4714 8.27389 27.0283C8.27389 26.5852 8.10009 26.2103 7.78718 25.9035C7.64816 25.7672 7.50905 25.699 7.37002 25.5967V24.3016L11.8198 19.9048C11.8546 19.8707 11.8546 19.8707 11.8893 19.8366L11.9241 19.8025C11.9937 19.7002 12.0285 19.5639 12.0285 19.4276L12.0284 14.69L16.2348 17.0758C16.2348 17.144 16.2348 17.1781 16.2348 17.2462C16.2348 17.6893 16.4086 18.0642 16.6867 18.3369C16.9649 18.6096 17.382 18.814 17.8339 18.814C18.2859 18.814 18.6683 18.6437 18.9812 18.3369C19.2593 18.0642 19.4679 17.6552 19.4679 17.2121C19.4679 16.769 19.2941 16.3941 18.9812 16.0873C18.703 15.8146 18.2859 15.6101 17.8339 15.6101C17.521 15.6101 17.243 15.6783 16.9996 15.8487L11.7155 12.8494C11.6111 12.7812 11.4721 12.7131 11.2983 12.7131C10.9159 12.7131 10.5682 13.0199 10.5682 13.4289V19.0527L9.42102 20.1775L8.48238 17.8598C8.37805 17.5871 8.10001 17.4167 7.82187 17.4167H5.14506V16.7009V16.4964L5.28407 16.3601L7.33516 14.3492L7.75231 13.9402V13.3608V10.5319V10.3274L7.89134 10.1911L13.0364 5.14672L13.1754 5.01042L13.3842 5.01025H14.9138H15.5047L15.9219 4.60126L17.6601 2.89711L17.7991 2.7608L18.0077 2.76072H21.7971L21.9361 2.38583L18.7378 0H17.1734H16.5825L16.1653 0.408988L14.4271 2.11314L14.2881 2.24942L14.0795 2.24951H12.5498H11.9588L11.5417 2.65852L5.28416 8.79354L4.90169 9.20253V9.78192V12.6109V12.8154L4.76268 12.9517L2.7116 14.9627L2.32921 15.3376V15.917V18.5414V18.7459L2.19019 18.8822L0.417236 20.6205L0 20.9955V21.5749V32.9247V33.1292L0.0347796 33.2996L2.36399 42.059L2.46832 42.4339L2.74645 42.7066L3.78934 43.7291L3.92837 43.8654V44.0699V45.2288V45.8082L4.34552 46.2171L8.72573 50.4437L9.14289 50.8527H9.73393H12.4455H12.6541L12.7931 50.989L14.0099 52.1819L14.4271 52.5909H15.0181H22.3185H22.5271L26.0731 49.1826V48.9781V40.0141H28.6803ZM31.2877 45.1607C31.392 45.0584 31.531 44.9903 31.7048 44.9903C31.8786 44.9903 32.0177 45.0585 32.122 45.1607C32.2263 45.263 32.2958 45.3993 32.2958 45.5697C32.2958 45.7401 32.2262 45.8765 32.122 45.9787C32.0176 46.081 31.8786 46.1491 31.7048 46.1491C31.531 46.1491 31.3919 46.0809 31.2877 45.9787C31.1833 45.8764 31.1139 45.7401 31.1139 45.5697C31.1138 45.4334 31.1833 45.2629 31.2877 45.1607ZM28.9585 33.1974C29.0628 33.0951 29.2018 33.027 29.3756 33.027C29.5494 33.027 29.6885 33.0952 29.7928 33.1974C29.8971 33.2997 29.9666 33.436 29.9666 33.6064C29.9666 33.7768 29.897 33.9132 29.7928 34.0154C29.6884 34.1177 29.5494 34.1858 29.3756 34.1858C29.2018 34.1858 29.0627 34.1176 28.9585 34.0154C28.8541 33.9131 28.7846 33.7768 28.7846 33.6064C28.7846 33.436 28.8541 33.2996 28.9585 33.1974ZM29.758 17.8257C29.6537 17.9279 29.5146 17.9961 29.3408 17.9961C29.167 17.9961 29.0279 17.9279 28.9237 17.8257C28.8193 17.7234 28.7499 17.5871 28.7499 17.4167C28.7499 17.2463 28.8194 17.1099 28.9237 17.0077C29.028 16.9054 29.167 16.8373 29.3408 16.8373C29.5146 16.8373 29.6537 16.9055 29.758 17.0077C29.8623 17.11 29.9318 17.2463 29.9318 17.4167C29.9319 17.5871 29.8623 17.7235 29.758 17.8257ZM31.7743 25.6308C31.8786 25.5285 32.0176 25.4604 32.1914 25.4604C32.3652 25.4604 32.5044 25.5286 32.6086 25.6308C32.7129 25.7331 32.7824 25.8694 32.7824 26.0398C32.7824 26.2102 32.7128 26.3466 32.6086 26.4488C32.5043 26.5511 32.3652 26.6192 32.1914 26.6192C32.0176 26.6192 31.8785 26.551 31.7743 26.4488C31.67 26.3465 31.6005 26.2102 31.6005 26.0398C31.6005 25.8694 31.67 25.7331 31.7743 25.6308ZM18.2859 32.0726C18.1815 32.1749 18.0425 32.243 17.8687 32.243C17.6949 32.243 17.5558 32.1748 17.4516 32.0726C17.3472 31.9703 17.2778 31.834 17.2778 31.6636C17.2778 31.4932 17.3473 31.3569 17.4516 31.2547C17.5559 31.1524 17.6949 31.0842 17.8687 31.0842C18.0425 31.0842 18.1816 31.1525 18.2859 31.2547C18.3902 31.3569 18.4597 31.4932 18.4597 31.6636C18.4597 31.7999 18.3902 31.9703 18.2859 32.0726ZM18.1469 40.9685C18.0425 41.0708 17.9035 41.1389 17.7297 41.1389C17.5559 41.1389 17.4168 41.0707 17.3125 40.9685C17.2082 40.8662 17.1387 40.7299 17.1387 40.5595C17.1387 40.3891 17.2083 40.2527 17.3125 40.1505C17.4169 40.0482 17.5559 39.9801 17.7297 39.9801C17.9035 39.9801 18.0426 40.0483 18.1469 40.1505C18.2512 40.2528 18.3207 40.3891 18.3207 40.5595C18.3207 40.6958 18.2511 40.8662 18.1469 40.9685ZM19.5374 44.7858C19.6418 44.6835 19.7808 44.6154 19.9546 44.6154C20.1284 44.6154 20.2675 44.6836 20.3717 44.7858C20.4761 44.8881 20.5455 45.0244 20.5455 45.1948C20.5455 45.3652 20.476 45.5016 20.3717 45.6038C20.2674 45.7061 20.1284 45.7742 19.9546 45.7742C19.7808 45.7742 19.6417 45.706 19.5374 45.6038C19.4331 45.5015 19.3636 45.3652 19.3636 45.1948C19.3983 45.0244 19.4331 44.888 19.5374 44.7858ZM9.90774 39.8778C9.8034 39.9801 9.66438 40.0482 9.49059 40.0482C9.31678 40.0482 9.17766 39.98 9.07342 39.8778C8.96908 39.7755 8.89963 39.6392 8.89963 39.4688C8.89963 39.2984 8.96918 39.162 9.07342 39.0598C9.17775 38.9575 9.31678 38.8894 9.49059 38.8894C9.66438 38.8894 9.80349 38.9576 9.90774 39.0598C10.0121 39.1621 10.0815 39.2984 10.0815 39.4688C10.0815 39.6392 10.0121 39.7755 9.90774 39.8778ZM6.50085 32.9929C6.60518 32.8906 6.74421 32.8225 6.91801 32.8225C7.0918 32.8225 7.23092 32.8907 7.33516 32.9929C7.4395 33.0952 7.50897 33.2315 7.50897 33.4019C7.50897 33.5723 7.43941 33.7087 7.33516 33.8109C7.23083 33.9132 7.0918 33.9813 6.91801 33.9813C6.74421 33.9813 6.6051 33.9131 6.50085 33.8109C6.39651 33.7086 6.32706 33.5723 6.32706 33.4019C6.32706 33.2315 6.39661 33.0951 6.50085 32.9929ZM7.02235 27.4373C6.91801 27.5395 6.77899 27.6077 6.60518 27.6077C6.43139 27.6077 6.29228 27.5395 6.18803 27.4373C6.0837 27.335 6.01422 27.1987 6.01422 27.0283C6.01422 26.8579 6.08378 26.7215 6.18803 26.6193C6.29236 26.517 6.43139 26.4489 6.60518 26.4489C6.77899 26.4489 6.91809 26.5171 7.02235 26.6193C7.12667 26.7216 7.19614 26.8579 7.19614 27.0283C7.19614 27.1987 7.12658 27.335 7.02235 27.4373ZM17.4168 16.8373C17.5211 16.735 17.6601 16.6669 17.8339 16.6669C18.0077 16.6669 18.1469 16.7351 18.2511 16.8373C18.3554 16.9396 18.4249 17.0759 18.4249 17.2463C18.4249 17.4167 18.3553 17.5531 18.2511 17.6553C18.1468 17.7576 18.0077 17.8257 17.8339 17.8257C17.6601 17.8257 17.521 17.7575 17.4168 17.6553C17.3125 17.553 17.243 17.4167 17.243 17.2463C17.243 17.11 17.3125 16.9395 17.4168 16.8373Z" fill="#4C5D6E"/>
<path fill-rule="evenodd" clip-rule="evenodd" d="M67.7551 25.7673H73.9431V33.6747C72.9349 33.9815 71.9964 34.2201 71.1272 34.3564C70.2581 34.4927 69.3543 34.5609 68.4156 34.5609C66.0516 34.5609 64.2787 33.8792 63.0272 32.5158C61.7757 31.1525 61.1847 29.2097 61.1847 26.6875C61.1847 24.2335 61.9148 22.2907 63.34 20.9274C64.7654 19.564 66.7817 18.8482 69.3195 18.8482C70.9186 18.8482 72.4482 19.155 73.9431 19.8026L72.8307 22.3929C71.6835 21.8476 70.5015 21.575 69.2848 21.575C67.8594 21.575 66.7122 22.0521 65.8431 22.9724C64.974 23.8927 64.5569 25.1878 64.5569 26.7557C64.5569 28.4258 64.9045 29.6869 65.5998 30.539C66.2951 31.4252 67.3032 31.8341 68.6243 31.8341C69.3196 31.8341 70.0148 31.766 70.7101 31.6296V28.4258L67.7551 28.4258V25.7673ZM81.765 24.7108C81.0697 24.7108 80.5482 24.9153 80.1311 25.3583C79.7487 25.8014 79.5053 26.3808 79.4706 27.1648H84.0247C84.0247 26.3809 83.8161 25.7673 83.3989 25.3583C82.9818 24.9153 82.4255 24.7108 81.765 24.7108ZM82.2169 34.5268C80.3049 34.5268 78.8101 34.0156 77.7324 32.959C76.6547 31.9365 76.0985 30.4709 76.0985 28.5622C76.0985 26.6195 76.5852 25.0857 77.5933 24.0291C78.6015 22.9725 79.9573 22.4271 81.7302 22.4271C83.3989 22.4271 84.72 22.9043 85.6586 23.8246C86.5972 24.7789 87.0492 26.0741 87.0492 27.7101V29.2438L79.3663 29.2439C79.4011 30.1642 79.6792 30.8458 80.2006 31.3571C80.7221 31.8683 81.4174 32.1069 82.356 32.1069C83.086 32.1069 83.7465 32.0387 84.407 31.9024C85.0328 31.7661 85.7281 31.5275 86.4234 31.2207V33.6748C85.8671 33.9475 85.2414 34.152 84.6156 34.2883C83.9204 34.4587 83.1556 34.5268 82.2169 34.5268ZM94.0715 24.7108C93.3762 24.7108 92.8547 24.9153 92.4376 25.3583C92.0552 25.8014 91.8119 26.3808 91.7771 27.1648H96.3312C96.3312 26.3809 96.1226 25.7673 95.7054 25.3583C95.2882 24.9153 94.7668 24.7108 94.0715 24.7108ZM94.5234 34.5268C92.6114 34.5268 91.1166 34.0156 90.0389 32.959C88.9612 31.9365 88.405 30.4709 88.405 28.5622C88.405 26.6195 88.8917 25.0857 89.8998 24.0291C90.908 22.9725 92.2638 22.4271 94.0367 22.4271C95.7054 22.4271 97.0265 22.9043 97.9651 23.8246C98.9038 24.7789 99.3557 26.0741 99.3557 27.7101V29.2438L91.6728 29.2439C91.7075 30.1642 91.9856 30.8458 92.5071 31.3571C93.0285 31.8683 93.7238 32.1069 94.6624 32.1069C95.3925 32.1069 96.053 32.0387 96.7135 31.9024C97.3392 31.7661 98.0345 31.5275 98.7298 31.2207V33.6748C98.1735 33.9475 97.5478 34.152 96.9221 34.2883C96.2616 34.4587 95.4621 34.5268 94.5234 34.5268ZM104.57 27.9828L105.996 26.2104L109.333 22.6657H112.983L108.255 27.7442L113.261 34.3564L109.507 34.3564L106.065 29.6188L104.674 30.7095V34.3564H101.441V18.0645H104.675V25.3242L104.501 27.9828H104.57ZM115.556 19.0529H120.388C122.613 19.0529 124.212 19.3597 125.185 19.9732C126.194 20.5867 126.68 21.5751 126.68 22.9044C126.68 23.8247 126.472 24.5744 126.02 25.1539C125.568 25.7333 125.011 26.0742 124.281 26.2105V26.3128C125.255 26.5173 125.985 26.9263 126.402 27.5397C126.854 28.1191 127.063 28.9031 127.063 29.8915C127.063 31.2889 126.541 32.3796 125.533 33.1635C124.525 33.9474 123.1 34.3224 121.361 34.3224H115.521V19.0529H115.556ZM118.858 25.1197H120.77C121.674 25.1197 122.3 24.9834 122.717 24.7108C123.099 24.4381 123.308 23.995 123.308 23.3474C123.308 22.768 123.099 22.3589 122.648 22.0863C122.196 21.8477 121.535 21.7114 120.562 21.7114H118.823V25.1197H118.858ZM118.858 27.6761V31.6638H121.014C121.917 31.6638 122.578 31.4934 123.03 31.1526C123.482 30.8118 123.69 30.3005 123.69 29.5847C123.69 28.3236 122.752 27.6761 120.909 27.6761H118.858ZM135.997 22.4272C136.449 22.4272 136.796 22.4613 137.109 22.5295L136.866 25.5288C136.588 25.4606 136.275 25.4265 135.893 25.4265C134.85 25.4265 134.05 25.6992 133.459 26.2104C132.868 26.7217 132.59 27.4715 132.59 28.3917V34.3223L129.357 34.3224V22.6657H131.825L132.312 24.6426L132.486 24.6426C132.868 23.9951 133.355 23.4497 133.981 23.0748C134.606 22.6317 135.267 22.4272 135.997 22.4272ZM145.835 34.3224L145.209 32.7204H145.14C144.584 33.4021 144.027 33.8793 143.437 34.1179C142.846 34.3905 142.115 34.4928 141.177 34.4928C140.03 34.4928 139.126 34.186 138.465 33.5384C137.805 32.8908 137.492 31.9705 137.492 30.8117C137.492 29.5847 137.944 28.6644 138.813 28.085C139.682 27.5056 141.038 27.1647 142.811 27.0965L144.862 27.0283V26.517C144.862 25.3241 144.236 24.7447 143.019 24.7447C142.081 24.7447 140.968 25.0174 139.682 25.5968L138.604 23.4495C139.96 22.7337 141.49 22.3929 143.158 22.3929C144.758 22.3929 145.974 22.7337 146.843 23.4154C147.712 24.0971 148.13 25.1196 148.13 26.517V34.2881L145.835 34.2883V34.3224ZM144.862 28.903L143.61 28.9371C142.672 28.9712 141.976 29.1416 141.49 29.4484C141.038 29.7552 140.794 30.2323 140.794 30.8458C140.794 31.732 141.316 32.2092 142.359 32.2092C143.124 32.2092 143.715 32.0047 144.166 31.5616C144.618 31.1526 144.827 30.5732 144.827 29.8575V28.903H144.862ZM150.737 19.6323C150.737 18.6098 151.328 18.0645 152.51 18.0645C153.692 18.0645 154.283 18.5757 154.283 19.6323C154.283 20.1436 154.144 20.5185 153.831 20.7912C153.553 21.0638 153.101 21.2002 152.51 21.2002C151.328 21.2002 150.737 20.6889 150.737 19.6323ZM154.109 34.3224H150.876V22.6657H154.109V34.3224ZM167.945 34.3224H164.712V27.5056C164.712 26.6536 164.573 26.0401 164.26 25.597C163.947 25.188 163.461 24.9494 162.8 24.9494C161.896 24.9494 161.236 25.2562 160.818 25.8356C160.401 26.415 160.227 27.4035 160.227 28.8009V34.2883L156.994 34.2883V22.6657H159.463L159.915 24.1654L160.088 24.1655C160.436 23.5861 160.958 23.177 161.583 22.8703C162.209 22.5976 162.939 22.4272 163.739 22.4272C165.129 22.4272 166.172 22.8021 166.902 23.5179C167.632 24.2677 167.98 25.3243 167.98 26.6877L167.98 34.3224H167.945ZM179 30.8458C179 32.0388 178.583 32.959 177.714 33.5726C176.879 34.1861 175.593 34.5269 173.925 34.5269C173.055 34.5269 172.325 34.4587 171.7 34.3565C171.074 34.2542 170.518 34.0839 169.996 33.8453V31.2208C170.587 31.4935 171.283 31.7321 172.047 31.9025C172.812 32.107 173.473 32.1752 174.029 32.1752C175.211 32.1752 175.802 31.8344 175.802 31.1867C175.802 30.9481 175.732 30.7437 175.558 30.5733C175.419 30.4029 175.141 30.2324 174.759 30.0279C174.377 29.8234 173.855 29.5848 173.229 29.3462C172.326 28.9713 171.63 28.6304 171.213 28.2896C170.796 27.9828 170.483 27.608 170.274 27.199C170.066 26.79 169.996 26.2787 169.996 25.6652C169.996 24.6427 170.413 23.8247 171.213 23.2794C172.047 22.7 173.195 22.4273 174.689 22.4273C176.115 22.4273 177.505 22.7341 178.861 23.3476L177.888 25.6312C177.297 25.3926 176.741 25.1881 176.219 25.0177C175.698 24.8473 175.176 24.7791 174.62 24.7791C173.647 24.7791 173.195 25.0177 173.195 25.529C173.195 25.8017 173.334 26.0744 173.647 26.2789C173.959 26.4833 174.62 26.7901 175.663 27.1991C176.601 27.574 177.262 27.9149 177.714 28.2216C178.131 28.5284 178.479 28.9033 178.687 29.3123C178.896 29.7892 179 30.2664 179 30.8458Z" fill="#4C5D6E"/>
</svg>
