<svg width="55" height="55" viewBox="0 0 55 55" fill="none" xmlns="http://www.w3.org/2000/svg">
<circle cx="27.5" cy="27.5" r="27" stroke="#D13A44"/>
<path d="M21.2483 29.0583C18.5282 29.0583 16.3103 26.7795 16.3103 23.9848V19.9002C16.3103 17.1054 18.5282 14.8267 21.2483 14.8267C23.9683 14.8267 26.1862 17.1054 26.1862 19.9002V24.0278C26.1444 26.7795 23.9683 29.0583 21.2483 29.0583ZM21.2483 15.7296C19.0304 15.7296 17.1891 17.5784 17.1891 19.9002V24.0278C17.1891 26.3065 18.9885 28.1984 21.2483 28.1984C23.508 28.1984 25.3074 26.3495 25.3074 24.0278V19.9002C25.2656 17.5784 23.4661 15.7296 21.2483 15.7296Z" fill="#4B78E2"/>
<path d="M26.772 42.0001H15.4733C13.5483 42.0001 12 40.4092 12 38.4314V34.1748C12 33.3579 12.5022 32.584 13.4646 31.7671C14.2597 31.1651 15.2222 30.6492 16.3102 30.3482L19.8254 29.3593C20.0765 29.2733 20.2857 29.4453 20.3694 29.6603C20.4531 29.8752 20.2439 30.1332 20.0346 30.2192L16.5195 31.2511C15.557 31.5091 14.7201 31.939 14.0087 32.498C13.5065 32.9279 12.8788 33.5729 12.8788 34.1748V38.4314C12.8788 39.8933 14.0505 41.0972 15.4733 41.0972H26.772C28.1948 41.0972 29.3665 39.8933 29.3665 38.4314V34.1748C29.3665 33.5729 28.7388 32.9279 28.2367 32.498C27.5253 31.939 26.6883 31.5091 25.7258 31.2081L22.3362 30.2622C22.0851 30.1762 21.9596 29.9182 22.0014 29.7033C22.0851 29.4453 22.2944 29.3163 22.5455 29.4023L25.9769 30.3482C27.0649 30.6492 27.9856 31.1651 28.8225 31.81C29.785 32.584 30.2872 33.4009 30.2872 34.2178V38.4744C30.2453 40.4092 28.697 42.0001 26.772 42.0001Z" fill="#4B78E2"/>
<path d="M19.9092 30.2192C19.6581 30.2192 19.4489 30.0042 19.4489 29.7462V28.5853C19.4489 28.3273 19.6581 28.1124 19.9092 28.1124C20.1603 28.1554 20.3695 28.3703 20.3695 28.5853V29.7462C20.3695 30.0472 20.1603 30.2192 19.9092 30.2192Z" fill="#4B78E2"/>
<path d="M22.4618 30.2622C22.2107 30.2622 22.0015 30.0472 22.0015 29.7892V28.5853C22.0015 28.3273 22.2107 28.1124 22.4618 28.1124C22.7129 28.1124 22.9221 28.3273 22.9221 28.5853V29.7892C22.8803 30.0472 22.671 30.2622 22.4618 30.2622Z" fill="#4B78E2"/>
<path d="M21.1227 35.0347C19.4488 35.0347 18.0679 33.1858 18.0679 30.8641C18.0679 30.6061 18.0679 30.3481 18.1097 30.0901C18.1516 29.8322 18.3608 29.6602 18.6119 29.7032C18.863 29.7462 19.0304 29.9612 18.9885 30.2191C18.9467 30.4341 18.9467 30.6491 18.9467 30.8641C18.9467 32.6699 19.9091 34.0888 21.1227 34.0888C22.3363 34.0888 23.2988 32.6699 23.2988 30.9071C23.2988 30.6921 23.2988 30.4771 23.2569 30.2621C23.2151 30.0042 23.3824 29.7462 23.6335 29.7462C23.8846 29.7032 24.0938 29.8752 24.1357 30.1331C24.1775 30.3481 24.1775 30.6061 24.1775 30.9071C24.1775 33.1858 22.8384 35.0347 21.1227 35.0347Z" fill="#4B78E2"/>
<path d="M22.8801 20.373C22.3361 20.373 21.9177 20.2441 21.5829 20.0721C21.0807 19.8571 20.7878 19.5131 20.4949 19.2122C20.2438 18.9542 20.0345 18.7392 19.6998 18.6532C19.0302 18.4812 18.1096 18.9972 17.1052 20.1581C16.9379 20.3301 16.6449 20.373 16.4775 20.2011C16.2683 20.0291 16.2683 19.7281 16.4357 19.5561C17.7329 18.1373 18.9047 17.5353 19.909 17.7933C20.4949 17.9223 20.8296 18.3092 21.1644 18.6532C21.4155 18.9112 21.6247 19.1692 22.0013 19.3411C22.5872 19.6421 23.5497 19.8141 25.4746 18.6532C25.6839 18.5242 25.9768 18.6102 26.0605 18.8252C26.186 19.0402 26.1024 19.3411 25.8931 19.4271C24.554 20.1581 23.5915 20.373 22.8801 20.373Z" fill="#4B78E2"/>
<path d="M32.003 25.2316C29.283 25.2316 27.0651 22.9528 27.0651 20.1581V16.0735C27.0651 13.2788 29.283 11 32.003 11C34.7231 11 36.941 13.2788 36.941 16.0735V20.2011C36.8991 22.9528 34.6812 25.2316 32.003 25.2316ZM32.003 11.9029C29.7851 11.9029 27.9439 13.7517 27.9439 16.0735V20.2011C27.9439 22.4799 29.7433 24.3717 32.003 24.3717C34.2628 24.3717 36.0622 22.5229 36.0622 20.2011V16.0735C36.0203 13.7517 34.2209 11.9029 32.003 11.9029Z" fill="#4B78E2"/>
<path d="M25.7259 27.9834C25.5585 27.9834 25.3911 27.8974 25.3493 27.7254C25.2237 27.5104 25.3493 27.2095 25.5585 27.1235C26.0188 26.8655 26.521 26.6935 27.065 26.5215L30.5802 25.5326C30.8312 25.4466 31.0405 25.6186 31.1242 25.8336C31.2079 26.0916 31.0405 26.3065 30.8312 26.3925L27.2742 27.4244C26.8139 27.5534 26.3536 27.7254 25.9351 27.9404C25.8514 27.9834 25.7678 27.9834 25.7259 27.9834Z" fill="#4B78E2"/>
<path d="M37.5267 38.2164H31.3334C31.0823 38.2164 30.873 38.0014 30.873 37.7434C30.873 37.4855 31.0823 37.2705 31.3334 37.2705H37.5267C38.9495 37.2705 40.1212 36.0666 40.1212 34.6047V30.3482C40.1212 29.7032 39.4935 29.1013 38.9914 28.6713C38.28 28.1124 37.443 27.6824 36.4805 27.3814L33.0491 26.4355C32.8399 26.3495 32.7143 26.0916 32.7562 25.8766C32.8399 25.6186 33.0909 25.4896 33.3002 25.5326L36.6898 26.5215C37.7778 26.8225 38.7403 27.3384 39.5354 27.9834C40.4979 28.7573 41 29.5742 41 30.3482V34.6047C41 36.5826 39.4517 38.2164 37.5267 38.2164Z" fill="#4B78E2"/>
<path d="M30.6639 26.4355C30.4128 26.4355 30.2036 26.2205 30.2036 25.9625V24.7587C30.2036 24.5007 30.4128 24.2857 30.6639 24.2857C30.915 24.2857 31.0824 24.5437 31.0824 24.7587V25.9195C31.0824 26.2205 30.915 26.4355 30.6639 26.4355Z" fill="#4B78E2"/>
<path d="M33.1747 26.4355C32.9236 26.4355 32.7562 26.2206 32.7562 26.0056V24.7587C32.7562 24.5437 32.9236 24.3287 33.1747 24.3287C33.4258 24.3287 33.635 24.5437 33.635 24.8017V26.0056C33.635 26.2206 33.4258 26.4355 33.1747 26.4355Z" fill="#4B78E2"/>
<path d="M31.8775 31.208C30.2036 31.208 28.8226 29.3592 28.8226 27.0374C28.8226 26.7794 28.8226 26.5215 28.8645 26.2635C28.9063 26.0055 29.1156 25.8335 29.3666 25.8765C29.6177 25.9195 29.7851 26.1345 29.7433 26.3925C29.7014 26.6074 29.7014 26.8224 29.7014 27.0374C29.7014 28.8432 30.6639 30.2621 31.8775 30.2621C33.091 30.2621 34.0535 28.8002 34.0535 27.0374C34.0535 26.8224 34.0535 26.6074 34.0117 26.3925C33.9698 26.1775 34.1372 25.9195 34.3883 25.9195C34.6394 25.8765 34.8486 26.0485 34.8905 26.3065C34.9323 26.5645 34.9323 26.8224 34.9323 27.0804C34.9323 29.3592 33.5513 31.208 31.8775 31.208Z" fill="#4B78E2"/>
<path d="M33.635 16.5464C33.091 16.5464 32.6726 16.4174 32.3378 16.2454C31.8356 16.0304 31.5008 15.6865 31.2498 15.3855C30.9568 15.1275 30.7894 14.9125 30.4547 14.8266C29.7851 14.6546 28.8645 15.1705 27.8183 16.3314C27.6509 16.5464 27.3998 16.5464 27.1906 16.3744C27.0232 16.2024 27.0232 15.9015 27.1906 15.7295C28.4879 14.3106 29.6596 13.7087 30.6639 13.9666C31.2498 14.0956 31.5845 14.4826 31.9193 14.8266C32.1286 15.0415 32.3378 15.2995 32.7144 15.4285C33.3003 15.7295 34.2209 15.9015 36.1459 14.7836C36.3551 14.6546 36.648 14.7406 36.7317 14.9555C36.8573 15.1705 36.7736 15.4715 36.5643 15.5575C35.3089 16.3314 34.3464 16.5464 33.635 16.5464Z" fill="#4B78E2"/>
</svg>
