<svg width="55" height="55" viewBox="0 0 55 55" fill="none" xmlns="http://www.w3.org/2000/svg">
<circle cx="27.5" cy="27.5" r="27" stroke="#D13A44"/>
<path d="M41.2071 40.9999H14.7456C13.2308 40.9999 12 39.7351 12 38.1783V21.6378C12 20.081 13.2308 18.8162 14.7456 18.8162H24.9704C25.2544 18.8162 25.5385 19.0594 25.5385 19.3999C25.5385 19.6918 25.3018 19.9837 24.9704 19.9837H14.7456C13.8462 19.9837 13.0888 20.7621 13.0888 21.6864V38.227C13.0888 39.1513 13.8462 39.9297 14.7456 39.9297H41.2071C42.1065 39.9297 42.8639 39.1513 42.8639 38.227V21.6864C42.8639 20.7621 42.1065 19.9837 41.2071 19.9837H30.9823C30.6982 19.9837 30.4142 19.7405 30.4142 19.3999C30.4142 19.1081 30.6509 18.8162 30.9823 18.8162H41.2071C42.7219 18.8162 43.9527 20.081 43.9527 21.6378V38.1783C44 39.7351 42.7692 40.9999 41.2071 40.9999Z" fill="#4B78E2"/>
<path d="M33.9171 22.8541H22.0355C21.7514 22.8541 21.4674 22.6108 21.4674 22.2703C21.4674 21.9784 21.7041 21.6865 22.0355 21.6865H33.9171C34.2011 21.6865 34.4852 21.9298 34.4852 22.2703C34.4852 22.6108 34.2485 22.8541 33.9171 22.8541Z" fill="#4B78E2"/>
<path d="M30.9822 22.8541H25.0178C24.7337 22.8541 24.4497 22.6108 24.4497 22.2703V14.5838C24.4497 14.2432 24.6864 14 25.0178 14H30.9822C31.2663 14 31.5503 14.2432 31.5503 14.5838V22.2703C31.5503 22.6108 31.2663 22.8541 30.9822 22.8541ZM25.5385 21.7351H30.4142V15.1189H25.5385V21.7351Z" fill="#4B78E2"/>
<path d="M20.8993 33.0215C18.8638 33.0215 17.4911 30.6863 17.207 28.5458C17.207 28.1566 17.4437 27.8647 17.7277 27.8161C18.0591 27.7674 18.3431 28.0107 18.3905 28.3512C18.5325 29.7134 19.4792 31.7566 20.8993 31.7566C22.0828 31.7566 22.9348 30.3458 23.2662 28.9836C23.3609 28.6917 23.6922 28.4972 24.0236 28.5945C24.3076 28.6431 24.497 28.9836 24.4496 29.3242C24.0236 31.0269 22.8402 33.0215 20.8993 33.0215Z" fill="#4B78E2"/>
<path d="M24.3549 30.054C24.2602 30.054 24.2129 30.054 24.1182 30.0053C22.5561 29.2756 21.3727 27.4756 20.7099 26.2594C19.5265 28.1567 17.3017 29.5188 17.1597 29.6161C16.923 29.7621 16.5443 29.6648 16.3549 29.3729C16.2129 29.081 16.3076 28.7404 16.5916 28.5459C16.6389 28.5459 19.5739 26.7459 20.1419 24.7026C20.1892 24.4594 20.4259 24.2648 20.6626 24.2648C20.8993 24.2648 21.136 24.4107 21.2307 24.654C21.2307 24.7026 22.6034 27.9621 24.5916 28.8864C24.8756 29.0323 25.0176 29.3729 24.8756 29.6648C24.781 29.908 24.5916 30.054 24.3549 30.054Z" fill="#4B78E2"/>
<path d="M21.9407 34.3837C21.6567 34.3837 21.3727 34.1405 21.3727 33.8486C21.278 33.508 21.5147 33.2162 21.8461 33.1675C22.9348 33.0216 24.923 32.0972 25.2544 31.708C25.349 31.2216 24.8283 29.1297 24.2603 26.8918C23.5502 24.4107 21.136 24.2648 21.0887 24.2648H20.6153C20.5206 24.2648 18.1538 24.4107 17.4437 26.8918C16.8757 29.1297 16.3549 31.2216 16.497 31.708C16.8283 32.0972 18.8165 33.0216 19.8579 33.1675C20.1893 33.2162 20.4259 33.508 20.3786 33.8486C20.2839 34.1891 19.9999 34.3837 19.6686 34.3351C18.6271 34.2378 15.6922 33.1189 15.3609 32.1459C15.1242 31.4162 15.4082 30.1513 16.3076 26.5999C17.1123 23.9243 19.4792 23.0972 20.6153 23.0486H21.136C22.2721 23.0972 24.639 23.8756 25.4437 26.5513C26.3431 30.1513 26.6271 31.4162 26.3904 32.0972C26.0117 33.1675 22.9348 34.2378 21.9881 34.3351C21.9881 34.3837 21.9407 34.3837 21.9407 34.3837Z" fill="#4B78E2"/>
<path d="M15.2189 38.5188C14.8876 38.5188 14.6509 38.2269 14.6509 37.935C14.6509 35.1134 17.3491 33.8972 19.1953 33.5566V32.0485C19.1953 31.708 19.4793 31.4647 19.7633 31.4647C20.0947 31.4647 20.3314 31.7566 20.3314 32.0485V34.0917C20.3314 34.3836 20.0947 34.6755 19.8106 34.6755C19.6686 34.6755 15.787 35.1134 15.787 37.935C15.787 38.2755 15.5503 38.5188 15.2189 38.5188Z" fill="#4B78E2"/>
<path d="M26.5324 38.5188C26.2011 38.5188 25.917 38.2756 25.917 37.935C25.917 34.8215 22.0354 34.6756 21.8934 34.6756C21.562 34.6756 21.3253 34.3837 21.3253 34.0918V32.1459C21.3253 31.8053 21.6093 31.5621 21.8934 31.5621C22.2247 31.5621 22.4614 31.854 22.4614 32.1459V33.508C24.3076 33.7513 27.0531 34.8702 27.0531 37.935C27.1005 38.2756 26.8638 38.5188 26.5324 38.5188Z" fill="#4B78E2"/>
<path d="M20.8521 37.1567C20.6627 37.1567 20.5207 37.0594 20.3787 36.9135L18.6272 34.5784C18.4379 34.2865 18.4852 33.9459 18.7219 33.7027C18.9586 33.5081 19.3373 33.5567 19.574 33.8486L20.8994 35.6L22.2722 33.8486C22.4615 33.6054 22.8402 33.5567 23.0769 33.7513C23.3609 33.9459 23.4083 34.3351 23.1716 34.5784L21.3254 36.9135C21.2308 37.0594 21.0414 37.1567 20.8521 37.1567Z" fill="#4B78E2"/>
<path d="M40.5445 27.0379H30.6983C30.3669 27.0379 30.1302 26.746 30.1302 26.4541C30.1302 26.1135 30.4143 25.8703 30.6983 25.8703H40.4971C40.8285 25.8703 41.0652 26.1622 41.0652 26.4541C41.1125 26.7946 40.8758 27.0379 40.5445 27.0379Z" fill="#4B78E2"/>
<path d="M40.5445 31.5135H30.6983C30.3669 31.5135 30.1302 31.2216 30.1302 30.9297C30.1302 30.6378 30.4143 30.3459 30.6983 30.3459H40.4971C40.8285 30.3459 41.0652 30.6378 41.0652 30.9297C41.0652 31.2216 40.8758 31.5135 40.5445 31.5135Z" fill="#4B78E2"/>
<path d="M40.5445 35.9893H30.6983C30.3669 35.9893 30.1302 35.6975 30.1302 35.4056C30.1302 35.065 30.4143 34.8218 30.6983 34.8218H40.4971C40.8285 34.8218 41.0652 35.1137 41.0652 35.4056C41.1125 35.7461 40.8758 35.9893 40.5445 35.9893Z" fill="#4B78E2"/>
</svg>
