<svg width="55" height="55" viewBox="0 0 55 55" fill="none" xmlns="http://www.w3.org/2000/svg">
<circle cx="27.5" cy="27.5" r="27" stroke="#D13A44"/>
<g clip-path="url(#clip0)">
<path d="M28.0004 41C27.9553 41 27.9102 41 27.8651 41C21.7297 39.106 16.5869 34.8776 16.3613 34.7015C16.2711 34.6134 16.226 34.5253 16.226 34.4372C16.1808 34.217 15.459 29.9886 16.8575 25.0995C18.2109 20.4747 16.8575 16.4225 16.8575 16.3785C16.8124 16.2463 16.8575 16.0701 16.9478 15.938C17.038 15.8499 17.1733 15.7618 17.3087 15.7618C26.1959 15.7618 27.4139 14.4405 27.5042 14.3083C27.5944 14.1321 27.7748 14 28.0004 14C28.226 14 28.4064 14.1321 28.4515 14.3083C28.5418 14.4405 29.7598 15.7618 38.647 15.7618C38.7824 15.7618 38.9628 15.8499 39.053 15.938C39.1433 16.0701 39.1884 16.2023 39.1433 16.3785C39.1433 16.4225 37.835 20.4747 39.1433 25.0995C40.5418 29.9445 39.8199 34.217 39.7748 34.3931C39.7748 34.4812 39.6846 34.6134 39.5944 34.6574C39.3688 34.8336 34.226 39.062 28.1357 40.9119C28.0906 41 28.0455 41 28.0004 41ZM17.1282 34.0848C17.9854 34.7455 22.6771 38.3573 28.0004 40.031C33.3237 38.3573 38.0154 34.7896 38.8726 34.0848C39.0079 33.248 39.4139 29.46 38.1959 25.3638C37.0681 21.4878 37.6996 18.0962 38.0154 16.7308C31.2936 16.6868 28.8575 15.8499 28.0004 15.1892C27.0981 15.8499 24.6621 16.6868 17.9402 16.7308C18.3011 18.0962 18.9327 21.4878 17.8049 25.3638C16.5869 29.5041 17.038 33.248 17.1282 34.0848Z" fill="#4B78E2"/>
</g>
<defs>
<clipPath id="clip0">
<rect width="24" height="27" fill="white" transform="translate(16 14)"/>
</clipPath>
</defs>
</svg>
