<svg width="104" height="104" viewBox="0 0 104 104" fill="none" xmlns="http://www.w3.org/2000/svg">
<path d="M52 0C80.7188 0 104 23.2812 104 52C104 80.7188 80.7188 104 52 104C23.2812 104 0 80.7188 0 52C0 23.2812 23.2812 0 52 0ZM68.0134 36.8134L44.85 59.9769L35.9866 51.1134C33.702 48.8289 29.998 48.8289 27.7134 51.1134C25.4289 53.398 25.4289 57.102 27.7134 59.3866L40.7134 72.3866C42.998 74.6711 46.702 74.6711 48.9866 72.3866L76.2866 45.0866C78.5711 42.802 78.5711 39.098 76.2866 36.8134C74.002 34.5289 70.298 34.5289 68.0134 36.8134Z" fill="#44CC8B"/>
</svg>
