<svg width="51" height="51" viewBox="0 0 51 51" fill="none" xmlns="http://www.w3.org/2000/svg">
<circle cx="25.5" cy="25.5" r="25.5" fill="white"/>
<path d="M25 35C26.653 35 27.9931 36.3431 27.9931 38C27.9931 39.6569 26.653 41 25 41C23.347 41 22.0069 39.6569 22.0069 38C22.0069 36.3431 23.347 35 25 35ZM26.5035 11C27.33 11 28 11.6716 28 12.5C28 12.5182 27.9997 12.5364 27.999 12.5547L27.3752 29.7046C27.3585 30.1631 27.2416 30.571 27.0423 30.911C26.843 31.2511 26.5613 31.5233 26.215 31.7106C25.8687 31.8978 25.4578 32 25 32C24.5422 32 24.1313 31.8978 23.785 31.7106C23.4387 31.5233 23.157 31.2511 22.9577 30.911C22.7584 30.571 22.6415 30.1631 22.6249 29.7046L22.001 12.5547C21.9709 11.7268 22.6161 11.0312 23.442 11.001L26.5035 11Z" fill="#D13A44"/>
</svg>
