<svg width="51" height="51" viewBox="0 0 51 51" fill="none" xmlns="http://www.w3.org/2000/svg">
<circle cx="25.4395" cy="25.5669" r="24.5" stroke="#D13A44"/>
<g clip-path="url(#clip0)">
<path d="M24.9513 34.0208C24.9027 34.0208 24.8055 34.0208 24.7568 33.9722C24.5624 33.9236 24.4166 33.7778 24.4166 33.6319C24.4166 33.6319 23.7846 31.1528 21.8402 29.2083C19.8957 27.2639 17.4166 26.6319 17.4166 26.6319C17.2221 26.5833 17.0763 26.4375 16.9791 26.2917C16.9305 26.0972 16.9305 25.9028 17.0277 25.7569C25.7777 12.1944 38.3193 12 38.4166 12C38.611 12 38.7082 12.0486 38.8541 12.1458C38.9999 12.2431 38.9999 12.3889 38.9999 12.5347C38.9999 12.6806 38.8055 25.2222 25.243 33.9236C25.1457 34.0208 25.0485 34.0208 24.9513 34.0208ZM22.618 28.3819C24.1249 29.8889 24.9027 31.6389 25.243 32.6111C36.0832 25.3194 37.5902 15.6458 37.8332 13.1667C35.3541 13.4097 25.6805 14.9653 18.3888 25.7569C19.361 26.0972 21.111 26.875 22.618 28.3819Z" fill="white"/>
<path d="M11.5833 24.6873C11.3888 24.6873 11.243 24.5901 11.0972 24.4443C10.9513 24.2498 10.9513 24.0068 11.0972 23.8123C15.8124 16.1318 23.7847 18.2707 23.8333 18.2707C24.1249 18.3679 24.3194 18.6595 24.2222 18.9512C24.1249 19.2915 23.8333 19.4373 23.5416 19.3401C23.2499 19.2915 17.0277 17.6387 12.7986 23.3262C15.4236 22.8887 18.8263 22.5484 19.5555 23.5207C19.7499 23.7637 19.7013 24.104 19.4583 24.2984C19.1666 24.4929 18.7777 24.4443 18.6319 24.2012C18.1944 23.8609 14.9861 24.0554 11.6805 24.6873C11.6319 24.6873 11.5833 24.6873 11.5833 24.6873Z" fill="white"/>
<path d="M26.8957 40C26.7985 40 26.6527 39.9513 26.5554 39.9027C26.4096 39.7569 26.3124 39.5625 26.3124 39.3194C26.9443 36.0138 27.1388 32.8055 26.7985 32.368C26.5554 32.1736 26.5068 31.8333 26.7013 31.5902C26.8957 31.3472 27.236 31.2986 27.479 31.493C28.4513 32.2222 28.111 35.5763 27.6735 38.25C33.361 33.9236 31.6596 27.5555 31.6596 27.4583C31.5624 27.1666 31.7082 26.875 32.0485 26.7777C32.3402 26.6805 32.6804 26.875 32.729 27.1666C32.729 27.2638 34.8679 35.1875 27.1874 39.9027C27.0902 40 26.9929 40 26.8957 40Z" fill="white"/>
<path d="M35.9861 22.0626C35.6944 22.0626 35.4028 21.8196 35.4028 21.4793C35.4028 19.5835 34.868 18.0765 33.7986 17.1043C32.0972 15.4515 29.5694 15.5973 29.5694 15.5973C29.2778 15.5973 28.9861 15.3543 28.9861 15.0626C28.9861 14.771 29.2291 14.4793 29.5208 14.4793C29.6666 14.4793 32.5833 14.3335 34.625 16.2779C35.9375 17.4932 36.5694 19.2432 36.5694 21.4793C36.5208 21.8196 36.2778 22.0626 35.9861 22.0626Z" fill="white"/>
<path d="M27.9166 26.5345C27.0416 26.5345 26.1666 26.1942 25.486 25.5137C24.1249 24.1525 24.1249 22.0137 25.486 20.6525C26.8472 19.2914 28.986 19.2914 30.3472 20.6525C31.7083 22.0137 31.7083 24.1525 30.3472 25.5137C29.6666 26.1942 28.7916 26.5345 27.9166 26.5345ZM27.9166 20.7498C27.3333 20.7498 26.7499 20.9928 26.2638 21.4303C25.3402 22.3539 25.3402 23.8123 26.2638 24.6873C27.1874 25.6109 28.6458 25.6109 29.5208 24.6873C30.4444 23.8123 30.4444 22.3539 29.5694 21.4303C29.1319 20.9928 28.4999 20.7498 27.9166 20.7498Z" fill="white"/>
<path d="M14.9861 36.597C14.8403 36.597 14.6944 36.5484 14.5972 36.4512C14.3542 36.2081 14.3542 35.8679 14.5972 35.6734L20.3333 29.9373C20.5764 29.6942 20.9167 29.6942 21.1111 29.9373C21.3542 30.1804 21.3542 30.5206 21.1111 30.7151L15.375 36.4026C15.2778 36.5484 15.1319 36.597 14.9861 36.597Z" fill="white"/>
<path d="M19.507 36.1108C19.3611 36.1108 19.2153 36.0622 19.1181 35.965C18.875 35.7219 18.875 35.3816 19.1181 35.1872L22.1806 32.1247C22.4236 31.8816 22.7639 31.8816 22.9584 32.1247C23.2014 32.3677 23.2014 32.708 22.9584 32.9025L19.8959 35.965C19.7986 36.0622 19.6528 36.1108 19.507 36.1108Z" fill="white"/>
<path d="M15.4236 32.0761C15.2778 32.0761 15.1319 32.0275 15.0347 31.9303C14.7917 31.6873 14.7917 31.347 15.0347 31.1525L18.0972 28.0414C18.3403 27.7984 18.6805 27.7984 18.875 28.0414C19.118 28.2845 19.118 28.6248 18.875 28.8192L15.8611 31.8817C15.7153 32.0275 15.5694 32.0761 15.4236 32.0761Z" fill="white"/>
</g>
<defs>
<clipPath id="clip0">
<rect width="28" height="28" fill="white" transform="translate(11 12)"/>
</clipPath>
</defs>
</svg>
