<svg width="51" height="50" viewBox="0 0 51 50" fill="none" xmlns="http://www.w3.org/2000/svg">
<g clip-path="url(#clip0)">
<path d="M16.637 31.3922C14.9381 31.3922 13.5868 29.9805 13.5868 28.2942V25.8628C13.5868 24.1373 14.9768 22.7648 16.637 22.7648C18.3358 22.7648 19.6872 24.1765 19.6872 25.8628V28.2942C19.6872 29.9805 18.2972 31.3922 16.637 31.3922ZM16.637 23.5883C15.4015 23.5883 14.3976 24.6079 14.3976 25.8628V28.2942C14.3976 29.5491 15.4015 30.5687 16.637 30.5687C17.8725 30.5687 18.8764 29.5491 18.8764 28.2942V25.8628C18.8764 24.6079 17.8725 23.5883 16.637 23.5883Z" fill="white"/>
<path d="M19.8803 39H13.2008C12.0039 39 11 37.9804 11 36.7647V34.2549C11 33.7451 11.3089 33.2353 11.9266 32.7647C12.4286 32.3726 13.0077 32.0981 13.6641 31.902L15.749 31.3137C15.9421 31.2353 16.1351 31.353 16.2124 31.5883C16.2896 31.7843 16.1351 32.0196 15.9421 32.0981L13.8571 32.6471C13.3166 32.8039 12.8147 33.0785 12.4286 33.3922C12.0039 33.7059 11.8108 34.0196 11.8108 34.2549V36.7647C11.8108 37.549 12.4286 38.1765 13.2008 38.1765H19.8803C20.6525 38.1765 21.2703 37.549 21.2703 36.7647V34.2549C21.2703 34.0196 21.0386 33.7059 20.6525 33.3922C20.2664 33.0785 19.8031 32.8039 19.2239 32.6471L17.2162 32.0981C17.0232 32.0196 16.8687 31.7843 16.9459 31.5883C17.0232 31.353 17.2162 31.2353 17.4479 31.3137L19.4556 31.902C20.112 32.0981 20.6911 32.3726 21.1931 32.7647C21.8108 33.2353 22.1197 33.7451 22.1197 34.2549V36.7647C22.0811 37.9804 21.1158 39 19.8803 39Z" fill="white"/>
<path d="M15.8263 32.0981C15.5946 32.0981 15.4402 31.902 15.4402 31.7059V31.0001C15.4402 30.7648 15.6332 30.6079 15.8263 30.6079C16.0579 30.6079 16.2124 30.804 16.2124 31.0001V31.7059C16.2124 31.902 16.0579 32.0981 15.8263 32.0981Z" fill="white"/>
<path d="M17.332 32.0981C17.1004 32.0981 16.9459 31.902 16.9459 31.7059V31.0001C16.9459 30.7648 17.139 30.6079 17.332 30.6079C17.5637 30.6079 17.7181 30.804 17.7181 31.0001V31.7059C17.7181 31.902 17.5637 32.0981 17.332 32.0981Z" fill="white"/>
<path d="M16.5598 34.8826C15.4787 34.8826 14.5907 33.7454 14.5907 32.2944C14.5907 32.1375 14.5907 31.9807 14.6293 31.8238C14.6679 31.6277 14.861 31.4709 15.0926 31.5101C15.3243 31.5493 15.4787 31.7454 15.4401 31.9807C15.4401 32.0983 15.4015 32.216 15.4015 32.3336C15.4015 33.2748 15.942 34.0983 16.5598 34.0983C17.1776 34.0983 17.7181 33.2748 17.7181 32.3336C17.7181 32.216 17.7181 32.0983 17.6795 31.9807C17.6409 31.7454 17.7953 31.5493 18.027 31.5101C18.2587 31.4709 18.4517 31.6277 18.4903 31.863C18.5289 32.0199 18.5289 32.1767 18.5289 32.3336C18.4903 33.7454 17.6409 34.8826 16.5598 34.8826Z" fill="white"/>
<path d="M17.6023 26.2941C17.2935 26.2941 17.0232 26.2156 16.7529 26.098C16.444 25.9804 16.251 25.7451 16.0965 25.5882C15.9421 25.4313 15.8263 25.3137 15.7104 25.2745C15.3243 25.196 14.8224 25.5098 14.2433 26.1372C14.0888 26.2941 13.8572 26.2941 13.7027 26.1764C13.5483 26.0196 13.5483 25.7843 13.6641 25.5882C14.4749 24.6862 15.2085 24.3333 15.8649 24.4902C16.251 24.5686 16.4826 24.8039 16.6757 25.0392C16.7915 25.1568 16.9074 25.3137 17.1004 25.3921C17.4093 25.549 17.9498 25.6274 19.0309 25C19.224 24.8823 19.4556 24.9607 19.5714 25.1568C19.6873 25.3529 19.6101 25.5882 19.417 25.7058C18.722 26.098 18.1429 26.2941 17.6023 26.2941Z" fill="white"/>
<path d="M35.5174 31.3922C33.8185 31.3922 32.4672 29.9805 32.4672 28.2942V25.8628C32.4672 24.1373 33.8571 22.7648 35.5174 22.7648C37.2162 22.7648 38.5675 24.1765 38.5675 25.8628V28.2942C38.5675 29.9805 37.2162 31.3922 35.5174 31.3922ZM35.5174 23.5883C34.2818 23.5883 33.278 24.6079 33.278 25.8628V28.2942C33.278 29.5491 34.2818 30.5687 35.5174 30.5687C36.7529 30.5687 37.7567 29.5491 37.7567 28.2942V25.8628C37.7567 24.6079 36.7529 23.5883 35.5174 23.5883Z" fill="white"/>
<path d="M38.7993 39H32.0811C30.8842 39 29.8804 37.9804 29.8804 36.7647V34.2549C29.8804 33.7451 30.1893 33.2353 30.807 32.7647C31.3089 32.3726 31.8881 32.0981 32.5445 31.902L34.6294 31.3137C34.8225 31.2353 35.0541 31.353 35.0927 31.5883C35.1699 31.7843 35.0155 32.0196 34.8225 32.0981L32.7375 32.6471C32.197 32.8039 31.695 33.0392 31.2703 33.3922C30.9228 33.7059 30.6912 34.0196 30.6912 34.2549V36.7647C30.6912 37.549 31.3089 38.1765 32.0811 38.1765H38.7993C39.5715 38.1765 40.1892 37.549 40.1892 36.7647V34.2549C40.1892 34.0196 39.9576 33.7059 39.5715 33.3922C39.1854 33.0785 38.6835 32.8039 38.1429 32.6471L36.1352 32.0981C35.9035 32.0196 35.7877 31.7843 35.8263 31.5883C35.9035 31.353 36.1352 31.2353 36.3282 31.3137L38.336 31.902C38.9923 32.0588 39.5715 32.3726 40.0734 32.7647C40.6912 33.2353 41.0001 33.7451 41.0001 34.2549V36.7647C41.0001 37.9804 39.9962 39 38.7993 39Z" fill="white"/>
<path d="M34.7067 32.0981C34.475 32.0981 34.3206 31.902 34.3206 31.7059V31.0001C34.3206 30.7648 34.5136 30.6079 34.7067 30.6079C34.8997 30.6079 35.0928 30.804 35.0928 31.0001V31.7059C35.1314 31.902 34.9383 32.0981 34.7067 32.0981Z" fill="white"/>
<path d="M36.2124 32.0981C35.9807 32.0981 35.8263 31.902 35.8263 31.7059V31.0001C35.8263 30.7648 36.0193 30.6079 36.2124 30.6079C36.4441 30.6079 36.5985 30.804 36.5985 31.0001V31.7059C36.6371 31.902 36.4441 32.0981 36.2124 32.0981Z" fill="white"/>
<path d="M35.4402 34.8825C34.3591 34.8825 33.4711 33.7452 33.4711 32.2943C33.4711 32.1374 33.4711 31.9805 33.5097 31.8237C33.5483 31.5884 33.7413 31.4315 33.973 31.4707C34.2047 31.5099 34.3591 31.706 34.3205 31.9413C34.3205 32.059 34.2819 32.1766 34.2819 32.2943C34.2819 33.2354 34.8224 34.059 35.4402 34.059C36.0579 34.059 36.5985 33.2354 36.5985 32.2943C36.5985 32.1766 36.5985 32.059 36.5599 31.9413C36.5599 31.7452 36.7143 31.5492 36.9074 31.5099C37.139 31.4707 37.3321 31.6276 37.3707 31.8629C37.4093 32.0197 37.4093 32.1766 37.4093 32.3335C37.4093 33.7452 36.5213 34.8825 35.4402 34.8825Z" fill="white"/>
<path d="M36.4827 26.2941C36.1738 26.2941 35.9036 26.2156 35.6333 26.098C35.3244 25.9804 35.1314 25.7451 34.9769 25.5882C34.8225 25.4313 34.7066 25.3137 34.5522 25.2745C34.2047 25.196 33.7028 25.5098 33.1622 26.1372C33.0078 26.2941 32.7375 26.2941 32.5831 26.1764C32.4286 26.0196 32.4286 25.7843 32.5445 25.5882C33.3553 24.6862 34.0889 24.3333 34.7453 24.4902C35.1314 24.5686 35.363 24.8039 35.5561 25.0392C35.7105 25.196 35.8263 25.3137 35.9808 25.3921C36.2897 25.549 36.8302 25.6274 37.9113 25C38.1043 24.8823 38.336 24.9607 38.4518 25.1568C38.5676 25.3529 38.4904 25.5882 38.2974 25.7058C37.6024 26.098 37.0232 26.2941 36.4827 26.2941Z" fill="white"/>
<path d="M29.1854 14.098H21.0387C20.807 14.098 20.6526 13.902 20.6526 13.7059C20.6526 13.5098 20.8456 13.3137 21.0387 13.3137H29.1854C29.4171 13.3137 29.5715 13.5098 29.5715 13.7059C29.5715 13.902 29.4171 14.098 29.1854 14.098Z" fill="white"/>
<path d="M25.8649 16.5686H21.0387C20.807 16.5686 20.6526 16.3725 20.6526 16.1765C20.6526 15.9412 20.8456 15.7843 21.0387 15.7843H25.8263C26.058 15.7843 26.2124 15.9804 26.2124 16.1765C26.251 16.3725 26.058 16.5686 25.8649 16.5686Z" fill="white"/>
<path d="M20.3822 22.4902C20.3436 22.4902 20.2664 22.4902 20.2278 22.451C20.0734 22.3725 19.9961 22.2549 19.9961 22.0588V19.1961C18.529 18.098 17.7181 16.5294 17.7181 14.9216C17.7181 11.6667 21.0386 9 25.1313 9C29.2239 9 32.5444 11.6667 32.5444 14.9216C32.5444 18.1765 29.2239 20.8431 25.1313 20.8431C24.2432 20.8431 23.3938 20.7255 22.583 20.451L20.6911 22.3725C20.6139 22.451 20.4981 22.4902 20.3822 22.4902ZM25.1313 9.82353C21.5019 9.82353 18.529 12.098 18.529 14.9216C18.529 16.3333 19.3012 17.7059 20.6525 18.6471C20.7683 18.7255 20.8069 18.8431 20.8069 18.9608V21.0784L22.1969 19.6667C22.2741 19.6275 22.4286 19.5882 22.583 19.6275C23.3938 19.902 24.2432 20.0196 25.1313 20.0196C28.7606 20.0196 31.7336 17.7451 31.7336 14.9216C31.7336 12.098 28.7606 9.82353 25.1313 9.82353Z" fill="white"/>
<path d="M31.6949 24.7646C31.5791 24.7646 31.5019 24.7254 31.4247 24.647L29.9189 23.1176C29.2625 23.3136 28.5675 23.4313 27.8725 23.4313C25.8648 23.4313 23.9729 22.647 22.8532 21.3136C22.6988 21.1176 22.6988 20.8823 22.8918 20.7254C23.0463 20.5686 23.3165 20.6078 23.4324 20.7646C24.4362 21.9019 26.0579 22.6078 27.8725 22.6078C28.5675 22.6078 29.2625 22.4901 29.9189 22.294C30.0733 22.2548 30.2277 22.294 30.305 22.4117L31.3088 23.4313V21.8627C31.3088 21.745 31.386 21.5882 31.4633 21.5489C32.5443 20.7646 33.1621 19.7058 33.1621 18.5686C33.1621 17.8235 32.8918 17.0784 32.3899 16.4509C32.2741 16.2156 32.2741 15.9803 32.4671 15.8235C32.6216 15.7058 32.8918 15.7058 33.0077 15.9019C33.6254 16.6862 33.9729 17.5882 33.9729 18.5293C33.9729 19.8627 33.3165 21.1176 32.1196 22.0587V24.3725C32.1196 24.5293 32.0038 24.6862 31.888 24.7646C31.8108 24.7646 31.7721 24.7646 31.6949 24.7646Z" fill="white"/>
</g>
<circle cx="25.8218" cy="25" r="24.5" stroke="#D13A44"/>
<defs>
<clipPath id="clip0">
<rect width="30" height="30" fill="white" transform="translate(11 9)"/>
</clipPath>
</defs>
</svg>
