<svg width="51" height="50" viewBox="0 0 51 50" fill="none" xmlns="http://www.w3.org/2000/svg">
<circle cx="25.2612" cy="25" r="24.5" stroke="#D13A44"/>
<path d="M31.3955 39H16.8074C15.8176 39 15 38.1909 15 37.2114V13.7886C15 12.8091 15.8176 12 16.8074 12H31.3955C32.3852 12 33.2029 12.8091 33.2029 13.7886V37.2114C33.2029 38.1909 32.3852 39 31.3955 39ZM16.8074 12.9369C16.334 12.9369 15.9467 13.3202 15.9467 13.7886V37.2114C15.9467 37.6798 16.334 38.0631 16.8074 38.0631H31.3955C31.8689 38.0631 32.2561 37.6798 32.2561 37.2114V13.7886C32.2561 13.3202 31.8689 12.9369 31.3955 12.9369H16.8074Z" fill="white"/>
<path d="M29.0719 16.4715H18.9592C18.701 16.4715 18.4858 16.2585 18.4858 16.003C18.4858 15.7475 18.701 15.5345 18.9592 15.5345H29.0719C29.3301 15.5345 29.5453 15.7475 29.5453 16.003C29.5453 16.2585 29.3301 16.4715 29.0719 16.4715Z" fill="white"/>
<path d="M29.0719 20.0064H18.9592C18.701 20.0064 18.4858 19.7934 18.4858 19.5379C18.4858 19.2824 18.701 19.0695 18.9592 19.0695H29.0719C29.3301 19.0695 29.5453 19.2824 29.5453 19.5379C29.5453 19.7934 29.3301 20.0064 29.0719 20.0064Z" fill="white"/>
<path d="M29.0719 23.3279H18.9592C18.701 23.3279 18.4858 23.115 18.4858 22.8594C18.4858 22.6039 18.701 22.391 18.9592 22.391H29.0719C29.3301 22.391 29.5453 22.6039 29.5453 22.8594C29.5453 23.115 29.3301 23.3279 29.0719 23.3279Z" fill="white"/>
<path d="M32.7295 20.0062C32.4713 20.0062 32.2562 19.7933 32.2562 19.5378C32.2562 19.2823 32.4713 19.0693 32.7295 19.0693C34.0205 19.0693 35.0533 18.5157 35.0533 18.0047V15.4495C35.0533 14.981 34.0635 14.3848 32.7295 14.3848C32.4713 14.3848 32.2562 14.1719 32.2562 13.9163C32.2562 13.6608 32.4713 13.4479 32.7295 13.4479C34.5369 13.4479 36 14.2996 36 15.4495V18.0047C36 19.1545 34.5369 20.0062 32.7295 20.0062Z" fill="white"/>
<path d="M32.7295 25.5852C32.4713 25.5852 32.2562 25.3723 32.2562 25.1168C32.2562 24.8612 32.4713 24.6483 32.7295 24.6483C34.0205 24.6483 35.0533 24.0947 35.0533 23.5836V21.0284C35.0533 20.56 34.0635 19.9638 32.7295 19.9638C32.4713 19.9638 32.2562 19.7508 32.2562 19.4953C32.2562 19.2398 32.4713 19.0269 32.7295 19.0269C34.5369 19.0269 36 19.8786 36 21.0284V23.5836C36 24.7335 34.5369 25.5852 32.7295 25.5852Z" fill="white"/>
<path d="M32.7295 31.164C32.4713 31.164 32.2562 30.951 32.2562 30.6955C32.2562 30.44 32.4713 30.227 32.7295 30.227C34.0205 30.227 35.0533 29.6734 35.0533 29.1624V26.6072C35.0533 26.1387 34.0635 25.5425 32.7295 25.5425C32.4713 25.5425 32.2562 25.3296 32.2562 25.074C32.2562 24.8185 32.4713 24.6056 32.7295 24.6056C34.5369 24.6056 36 25.4573 36 26.6072V29.1624C36 30.2696 34.5369 31.164 32.7295 31.164Z" fill="white"/>
<path d="M32.7295 36.7429C32.4713 36.7429 32.2562 36.53 32.2562 36.2745C32.2562 36.019 32.4713 35.806 32.7295 35.806C34.0205 35.806 35.0533 35.2524 35.0533 34.7414V32.1861C35.0533 31.7177 34.0635 31.1215 32.7295 31.1215C32.4713 31.1215 32.2562 30.9085 32.2562 30.653C32.2562 30.3975 32.4713 30.1846 32.7295 30.1846C34.5369 30.1846 36 31.0363 36 32.1861V34.7414C36 35.8486 34.5369 36.7429 32.7295 36.7429Z" fill="white"/>
</svg>
