<svg width="51" height="50" viewBox="0 0 51 50" fill="none" xmlns="http://www.w3.org/2000/svg">
<circle cx="25.6436" cy="25" r="24.5" stroke="#D13A44"/>
<path d="M37.7197 31.3267C37.4344 31.3267 37.2306 31.1287 37.2306 30.8515C37.2306 30.5743 37.4344 30.3762 37.7197 30.3762C39.5134 30.3762 40.9809 28.9505 40.9809 27.2079C40.9809 26.1386 40.451 25.1485 39.5134 24.5545C39.3503 24.396 39.2688 24.1584 39.3503 23.9604C39.5541 23.4059 39.6357 22.8515 39.6357 22.297C39.6357 19.6832 37.5159 17.505 34.8255 17.3069C34.6217 17.3069 34.4586 17.1881 34.4178 17.0297C33.2764 14.5743 30.749 12.9505 27.9363 12.9505C25.0828 12.9505 22.5554 14.5743 21.4548 17.1089C21.3732 17.3465 21.1287 17.4653 20.8841 17.4257C20.558 17.3465 20.1503 17.3069 19.7834 17.3069C16.7261 17.3069 14.2803 19.7228 14.2803 22.6535C14.2803 22.8911 14.321 23.1287 14.3618 23.4455C14.3618 23.5644 14.3618 23.7228 14.2803 23.802C14.1987 23.8812 14.0357 24 13.9134 24C12.242 24.198 10.9783 25.5446 10.9783 27.1683C10.9783 28.9109 12.4459 30.3366 14.2395 30.3366C14.5248 30.3366 14.7287 30.5347 14.7287 30.8119C14.7287 31.0891 14.5248 31.2871 14.2395 31.2871C11.9159 31.3267 10 29.4653 10 27.1683C10 25.2277 11.386 23.5644 13.3019 23.1287C13.3019 22.9703 13.3019 22.8119 13.3019 22.6535C13.3019 19.1683 16.2369 16.3168 19.8242 16.3168C20.1503 16.3168 20.4357 16.3564 20.7618 16.396C22.0662 13.703 24.8382 12 27.9363 12C31.0344 12 33.8064 13.703 35.1516 16.396C38.2497 16.7129 40.614 19.2871 40.614 22.297C40.614 22.8515 40.5325 23.3663 40.3694 23.9208C41.3885 24.7129 41.9592 25.901 41.9592 27.1683C42 29.4653 40.0841 31.3267 37.7197 31.3267Z" fill="white"/>
<path d="M26.6725 32.3167H17.5413C16.9706 32.3167 16.5222 31.881 16.5222 31.3266V23.6434C16.5222 23.089 16.9706 22.6533 17.5413 22.6533H29.6891C30.2598 22.6533 30.7082 23.089 30.7082 23.6434V25.8216C30.7082 26.0989 30.5044 26.2969 30.219 26.2969C29.9337 26.2969 29.7299 26.0989 29.7299 25.8216V23.6434H17.5821V31.3266H26.7133C26.9987 31.3266 27.2025 31.5246 27.2025 31.8018C27.1617 32.0791 26.9579 32.3167 26.6725 32.3167Z" fill="white"/>
<path d="M26.6725 30.4949H17.0114C16.726 30.4949 16.5222 30.2969 16.5222 30.0197C16.5222 29.7425 16.726 29.5444 17.0114 29.5444H26.6725C26.9579 29.5444 27.1617 29.7425 27.1617 30.0197C27.1617 30.2969 26.9579 30.4949 26.6725 30.4949Z" fill="white"/>
<path d="M23.9822 25.4255H23.2484C22.9631 25.4255 22.7593 25.2275 22.7593 24.9502C22.7593 24.673 22.9631 24.475 23.2484 24.475H23.9822C24.2676 24.475 24.4714 24.673 24.4714 24.9502C24.4714 25.1878 24.2268 25.4255 23.9822 25.4255Z" fill="white"/>
<path d="M30.4228 28.2773H29.689C29.4037 28.2773 29.1998 28.0793 29.1998 27.802C29.1998 27.5248 29.4037 27.3268 29.689 27.3268H30.4228C30.7081 27.3268 30.9119 27.5248 30.9119 27.802C30.9119 28.0397 30.6673 28.2773 30.4228 28.2773Z" fill="white"/>
<path d="M26.4279 35.9997H20.7616C20.4763 35.9997 20.2725 35.7621 20.2725 35.5244V33.9799C20.2725 33.7423 20.4355 33.5442 20.6801 33.5046L22.2291 33.2274C22.2699 33.2274 22.3107 33.2274 22.3107 33.2274V31.8017C22.3107 31.5244 22.5145 31.3264 22.7998 31.3264H24.4304C24.675 31.3264 24.9196 31.564 24.9196 31.8017L24.9604 33.1878C25.0011 33.1878 25.0419 33.1878 25.0419 33.1878L26.5094 33.465C26.754 33.5046 26.917 33.7027 26.917 33.9403V35.4848C26.917 35.7621 26.7132 35.9997 26.4279 35.9997ZM21.2508 35.0096H25.8979V34.3759L24.8788 34.1779H24.4304C24.1451 34.1779 23.9413 33.9799 23.9413 33.7027V32.3165H23.289V33.7027C23.289 33.9799 23.0852 34.1779 22.7998 34.1779H22.3514L21.2508 34.3759V35.0096Z" fill="white"/>
<path d="M34.5809 35.9999H32.2165C31.7681 35.9999 31.3605 35.6435 31.3605 35.1682V29.0692C31.3605 28.6336 31.7274 28.2375 32.2165 28.2375H34.5809C35.0293 28.2375 35.4369 28.594 35.4369 29.0692V35.1682C35.4369 35.6039 35.0293 35.9999 34.5809 35.9999ZM32.3388 35.0098H34.4178V29.188H32.3388V35.0098Z" fill="white"/>
<path d="M32.9095 36H27.2025C26.6318 36 26.1833 35.5644 26.1833 35.0099V26.3367C26.1833 25.7822 26.6318 25.3466 27.2025 25.3466H32.9095C33.4802 25.3466 33.9286 25.7822 33.9286 26.3367V28.7129C33.9286 28.9901 33.7248 29.1881 33.4394 29.1881C33.1541 29.1881 32.9502 28.9901 32.9502 28.7129V26.3367H27.2025V35.0099H32.9502C33.2356 35.0099 33.4394 35.2079 33.4394 35.4852C33.3986 35.7624 33.1948 36 32.9095 36Z" fill="white"/>
</svg>
