<svg width="51" height="50" viewBox="0 0 51 50" fill="none" xmlns="http://www.w3.org/2000/svg">
<circle cx="25.0835" cy="25" r="24.5" stroke="#D13A44"/>
<g clip-path="url(#clip0)">
<path d="M11.5104 30.6064C11.3829 30.6064 11.2553 30.5635 11.1277 30.4346C10.9151 30.2198 10.9151 29.8761 11.1277 29.7043L19.5896 21.1554C19.8022 20.9406 20.1424 20.9406 20.3125 21.1554L27.201 28.1148L38.0016 17.2031C38.2142 16.9883 38.5544 16.9883 38.7245 17.2031C38.9371 17.4179 38.9371 17.7616 38.7245 17.9334L27.5837 29.2747C27.3711 29.4895 27.0309 29.4895 26.8609 29.2747L19.9723 22.3153L11.8931 30.4776C11.8081 30.5635 11.638 30.6064 11.5104 30.6064Z" fill="white"/>
<path d="M39.1924 19.0501L40.0003 16L36.9813 16.8162L39.1924 19.0501Z" fill="white"/>
<path d="M13.1263 33.9999C12.9987 33.9999 12.8711 33.9569 12.7436 33.828C12.531 33.6132 12.531 33.2696 12.7436 33.0977L25.6702 20.0381C25.8829 19.8233 26.223 19.8233 26.3931 20.0381L33.9195 27.6419L37.8315 23.7326C38.0441 23.5178 38.3843 23.5178 38.5544 23.7326C38.767 23.9474 38.767 24.291 38.5544 24.4629L34.3022 28.7588C34.0896 28.9736 33.7494 28.9736 33.5793 28.7588L26.0529 21.198L13.509 33.871C13.4239 33.9569 13.2963 33.9999 13.1263 33.9999Z" fill="white"/>
<path d="M38.9796 25.5371L39.7876 22.4869L36.7685 23.3032L38.9796 25.5371Z" fill="white"/>
</g>
<defs>
<clipPath id="clip0">
<rect width="29" height="18" fill="white" transform="translate(11 16)"/>
</clipPath>
</defs>
</svg>
