<svg width="51" height="50" viewBox="0 0 51 50" fill="none" xmlns="http://www.w3.org/2000/svg">
<circle cx="25.6436" cy="25" r="24.5" stroke="#D13A44"/>
<g clip-path="url(#clip0)">
<path d="M36.7572 18.0786H34.8051C34.5559 18.0786 34.3483 17.8714 34.3483 17.6229V10.4557C34.3898 10.2071 34.5975 10 34.8051 10H36.7572C38.0032 10 39 10.9943 39 12.2371C39 12.9829 38.6262 13.6457 38.0863 14.0186C38.6262 14.4329 39 15.0957 39 15.8C39 17.0843 38.0032 18.0786 36.7572 18.0786ZM35.262 17.2086H36.7572C37.5048 17.2086 38.1278 16.5871 38.1278 15.8414C38.1278 15.0957 37.5048 14.4743 36.7572 14.4743H35.262V17.2086ZM35.262 13.6043H36.7572C37.5048 13.6043 38.1278 12.9829 38.1278 12.2371C38.1278 11.4914 37.5048 10.87 36.7572 10.87H35.262V13.6043Z" fill="white"/>
<path d="M17.1118 36.6387C16.8626 36.6387 16.655 36.4315 16.655 36.183V31.0044C16.655 30.2173 16.0319 29.5958 15.2428 29.5958C14.4537 29.5958 13.8307 30.2173 13.8307 31.0044V36.2244C13.8307 36.473 13.623 36.6801 13.3738 36.6801C13.2077 36.6387 13 36.4315 13 36.2244V31.0044C13 29.7615 14.0383 28.7258 15.2843 28.7258C16.5304 28.7258 17.5687 29.7615 17.5687 31.0044V36.2244C17.5687 36.4315 17.361 36.6387 17.1118 36.6387Z" fill="white"/>
<path d="M17.1118 33.2001H13.4569C13.2077 33.2001 13 32.993 13 32.7444C13 32.4958 13.2077 32.2887 13.4569 32.2887H17.1118C17.361 32.2887 17.5687 32.4958 17.5687 32.7444C17.5687 32.993 17.361 33.2001 17.1118 33.2001Z" fill="white"/>
<path d="M14.4537 38.9998C14.1214 38.9998 13.7891 38.9998 13.4153 38.9584C13.1661 38.917 13 38.7098 13 38.4613C13.0415 38.2127 13.2492 38.047 13.4984 38.047C17.278 38.3784 19.8115 36.6384 20.0607 36.4313C21.016 35.4784 21.0575 34.6084 21.1406 33.6141C21.2236 32.5784 21.3067 31.4184 22.5112 30.217C22.6358 30.0927 25.5016 27.5655 30.361 29.5127C33.1438 30.7141 34.3898 30.2998 34.8882 29.927C35.3035 29.637 35.4696 29.1813 35.4281 28.9327C35.3866 28.1041 35.262 25.6598 30.9425 24.7898C29.655 24.4998 27.9521 24.417 26.2907 24.3341C22.262 24.0855 18.0671 23.837 18.1917 21.0198C18.3578 17.167 22.0128 16.9184 23.5911 16.9598C24.2556 16.9598 25.5016 17.2913 27.1214 17.7055C29.4473 18.2855 32.3546 18.9898 34.1406 18.9898C34.3898 18.9898 34.5974 19.197 34.5974 19.4455C34.5974 19.6941 34.3898 19.9013 34.1406 19.9013C32.2716 19.9013 29.3227 19.1555 26.9553 18.5755C25.4185 18.1613 24.131 17.8298 23.5911 17.8298C21.9712 17.747 19.23 18.1198 19.1054 21.0613C18.9808 23.0084 22.7189 23.2155 26.3323 23.4641C27.9936 23.547 29.738 23.6713 31.1502 23.9613C34.4313 24.6241 36.1757 26.2813 36.3419 28.9327C36.3834 29.4298 36.1342 30.1755 35.4281 30.7141C34.639 31.2113 33.0192 31.6255 29.9872 30.3827C25.6677 28.6427 23.0927 30.8798 23.0927 30.9213C22.1374 31.8741 22.0543 32.7027 21.9712 33.697C21.9297 34.7327 21.8466 35.8927 20.6422 37.0941L20.6006 37.1355C20.476 37.2184 18.1502 38.9998 14.4537 38.9998Z" fill="white"/>
</g>
<defs>
<clipPath id="clip0">
<rect width="26" height="29" fill="white" transform="translate(13 10)"/>
</clipPath>
</defs>
</svg>
