<svg width="51" height="51" viewBox="0 0 51 51" fill="none" xmlns="http://www.w3.org/2000/svg">
<circle cx="25.2612" cy="25.5669" r="24.5" stroke="#D13A44"/>
<path d="M30.428 34.693H16.4497C16.2249 34.693 16 34.4559 16 34.1793V13.4742C16 13.2371 16.2249 13 16.4497 13H30.428C30.6903 13 30.8777 13.2371 30.8777 13.4742V34.1793C30.8777 34.4559 30.6903 34.693 30.428 34.693ZM16.9369 33.7052H29.9783V13.9878H16.9369V33.7052Z" fill="white"/>
<path d="M32.4517 36.7874H18.4734C18.2111 36.7874 18.0237 36.5503 18.0237 36.3132C18.0237 36.0366 18.2485 35.8391 18.4734 35.8391H31.9645V15.6081C31.9645 15.3315 32.1894 15.1339 32.4142 15.1339C32.6765 15.1339 32.8639 15.371 32.8639 15.6081V36.3132C32.9014 36.5898 32.6765 36.7874 32.4517 36.7874Z" fill="white"/>
<path d="M34.5128 38.9999H20.572C20.3097 38.9999 20.1223 38.7628 20.1223 38.5258C20.1223 38.2492 20.3472 38.0516 20.572 38.0516H34.0631V17.8206C34.0631 17.544 34.288 17.3464 34.5128 17.3464C34.7752 17.3464 34.9626 17.5835 34.9626 17.8206V38.5258C35 38.7628 34.7752 38.9999 34.5128 38.9999Z" fill="white"/>
<path d="M28.2919 16.6355H18.5483C18.286 16.6355 18.0986 16.3984 18.0986 16.1613C18.0986 15.8847 18.3235 15.6871 18.5483 15.6871H28.2919C28.5543 15.6871 28.7416 15.9242 28.7416 16.1613C28.7416 16.3984 28.5543 16.6355 28.2919 16.6355Z" fill="white"/>
<path d="M28.2919 19.3221H18.5483C18.286 19.3221 18.0986 19.085 18.0986 18.8479C18.0986 18.5713 18.3235 18.3738 18.5483 18.3738H28.2919C28.5543 18.3738 28.7416 18.6109 28.7416 18.8479C28.7416 19.085 28.5543 19.3221 28.2919 19.3221Z" fill="white"/>
<path d="M28.2919 22.0092H18.5483C18.286 22.0092 18.0986 21.7722 18.0986 21.5351C18.0986 21.2585 18.3235 21.0609 18.5483 21.0609H28.2919C28.5543 21.0609 28.7416 21.298 28.7416 21.5351C28.7416 21.7722 28.5543 22.0092 28.2919 22.0092Z" fill="white"/>
<path d="M28.2919 24.696H18.5483C18.286 24.696 18.0986 24.4589 18.0986 24.2218C18.0986 23.9452 18.3235 23.7477 18.5483 23.7477H28.2919C28.5543 23.7477 28.7416 23.9848 28.7416 24.2218C28.7416 24.4589 28.5543 24.696 28.2919 24.696Z" fill="white"/>
</svg>
